<svg width="575" height="737" viewBox="0 0 575 737" fill="none" xmlns="http://www.w3.org/2000/svg">
<g clip-path="url(#clip0_920_8042)">
<path d="M567.599 355.505C559.734 341.118 546.782 330.907 531.516 326.266C531.054 325.338 530.591 323.946 529.666 323.018C528.741 321.625 527.816 320.233 526.891 318.841C529.666 313.736 531.054 307.702 531.516 301.669C531.516 291.458 527.816 282.176 520.877 274.751C513.938 267.325 503.761 263.148 493.584 263.148C488.496 263.148 483.407 264.076 479.244 265.933C471.842 259.899 462.59 256.651 452.414 256.651L487.57 160.581C489.421 155.011 489.421 149.442 487.108 144.337C506.074 142.48 522.727 130.414 529.204 112.314L532.442 103.496C537.068 90.9647 536.605 77.5057 531.054 65.4389C525.503 53.3722 515.788 44.0901 503.298 39.9131L402.454 3.24874C396.903 0.928212 391.352 0 385.8 0C364.984 0 346.48 12.995 339.541 32.4874L336.303 41.3054C329.827 59.4055 334.453 79.8262 347.868 93.2853C343.242 96.0699 339.079 100.247 337.228 105.816L327.051 134.127C314.562 137.375 303.459 146.193 298.371 158.26C295.133 165.686 294.208 174.04 295.595 182.394C287.269 186.571 281.255 194.924 279.867 204.671C278.942 211.168 279.867 217.202 282.643 222.307C280.33 222.307 278.017 222.307 275.241 222.307C226.207 222.307 181.335 232.981 142.478 253.402C122.586 263.612 105.008 276.607 89.2799 291.458L88.8174 291.923C73.0893 306.774 59.6742 323.946 48.572 343.438C25.905 381.959 13.8777 427.906 13.8777 478.957C13.8777 498.45 15.7281 517.942 19.4288 536.506C12.9525 545.788 10.177 557.391 12.0273 568.53C-0.462614 587.094 -1.85039 611.691 9.25179 632.112C17.1158 646.499 30.0684 656.71 45.3338 661.351C45.7964 662.279 46.259 663.671 47.1842 664.599C48.1094 665.992 49.0346 667.384 49.9598 668.776C42.5583 682.7 44.4087 700.8 55.9734 712.402C62.9123 719.828 73.0893 724.005 83.2663 724.005C88.3548 724.005 93.4433 723.077 97.6066 721.22C105.008 727.254 114.26 730.503 124.437 730.503C131.838 730.503 138.777 728.646 145.253 724.933C150.342 722.149 154.968 717.972 158.669 713.795C193.825 729.11 233.146 737 275.241 737C324.276 737 369.147 726.326 408.467 705.905C419.57 700.336 428.821 692.91 436.685 686.412C438.536 685.02 440.849 683.164 442.699 681.771C443.162 681.771 443.162 681.307 443.624 681.307C480.169 650.676 506.074 613.548 521.802 570.85C531.054 545.324 536.142 517.942 537.53 488.703C537.53 487.775 537.53 487.311 537.53 486.383C537.53 484.526 537.993 482.206 537.993 480.349C537.993 475.708 537.993 471.531 537.53 466.89C540.306 465.962 543.081 465.034 545.857 463.178C555.571 457.608 562.51 448.79 565.748 438.116C567.599 431.618 568.061 425.585 566.673 419.088C577.313 400.523 578.701 375.926 567.599 355.505Z" fill="white"/>
<path d="M370.072 81.6826L373.31 83.0749L387.188 88.1801L386.726 88.6442C384.875 93.2852 386.726 98.8545 391.351 101.175C391.814 101.639 392.277 101.639 393.202 101.639C390.889 110.457 395.515 119.739 404.304 123.452C411.243 126.701 419.107 124.844 424.658 120.203C425.583 122.06 427.434 123.452 429.747 124.38C435.298 126.701 441.311 124.38 444.087 118.811V118.347C444.549 118.811 445.475 119.739 446.4 119.739C448.25 120.667 450.563 120.667 452.876 119.739C452.876 123.916 455.189 127.629 458.89 129.485C463.978 131.806 469.992 129.485 472.305 124.38C473.23 122.524 473.23 120.667 473.23 118.811L475.08 119.275L478.319 120.667V120.203C490.808 122.988 503.761 116.026 508.387 103.496L511.625 94.6776C516.714 81.2185 509.775 65.903 495.897 60.7978L395.052 23.6694C381.637 18.5642 366.372 25.5258 361.283 39.449L358.045 48.267C352.957 61.726 358.508 75.6492 370.072 81.6826ZM408.005 119.275C407.542 120.203 406.617 120.203 406.154 120.203C398.29 116.491 397.828 108.601 397.828 108.137C397.828 107.208 398.29 106.744 399.216 106.744C400.141 106.744 400.603 107.208 400.603 108.137C400.603 108.601 401.066 114.634 407.08 117.419C408.005 117.419 408.005 118.347 408.005 119.275ZM431.134 104.424L432.059 104.888C431.597 104.888 431.597 104.888 431.134 104.888V104.424ZM461.665 128.557C460.74 128.557 459.815 128.557 458.89 128.093C457.039 127.165 456.114 125.773 455.652 123.916C455.652 122.988 456.114 122.524 457.039 122.06C457.965 122.06 458.427 122.524 458.89 123.452C458.89 124.844 460.74 125.773 461.665 125.773C462.59 125.773 463.053 126.237 463.053 127.165C463.053 127.629 462.59 128.557 461.665 128.557ZM442.236 109.065C442.699 109.065 442.699 109.065 442.236 109.065V109.065Z" fill="#023047"/>
<path d="M537.993 414.446C551.87 403.308 556.496 382.887 547.245 366.643C539.843 353.184 525.965 346.223 511.625 347.151C512.088 342.974 511.625 338.333 509.312 334.156C503.761 323.946 490.809 320.233 480.169 325.802C479.706 325.802 479.706 326.266 479.244 326.266C478.781 324.41 478.319 322.553 477.393 321.161C475.08 317.448 471.842 314.664 467.679 313.271C472.767 307.238 474.155 297.956 469.992 290.53C464.441 280.784 452.413 277.071 442.699 282.64C436.223 286.353 432.522 293.315 432.522 300.276C431.597 299.348 430.209 298.42 429.284 297.492C425.121 294.243 420.495 291.458 416.331 288.21L465.829 153.155L358.045 113.706L344.63 150.834C343.242 151.762 341.854 153.155 340.929 155.011C340.467 155.475 340.467 155.939 340.467 156.868C331.677 154.547 322.426 159.188 318.725 168.006C315.487 174.968 317.337 182.858 321.963 188.427C320.113 189.355 318.725 191.211 317.8 193.532C315.487 199.101 317.8 205.135 323.351 207.919H323.813C323.351 208.383 322.426 209.312 322.426 210.24C321.5 212.096 321.5 213.953 321.963 215.809L321.5 216.737C317.8 216.737 314.099 219.058 312.249 222.771C310.398 226.948 311.786 231.589 315.024 234.373L309.473 250.153C297.908 248.761 286.806 246.44 274.779 246.44C229.445 246.44 188.737 255.722 152.655 274.751C134.614 284.033 118.423 295.635 104.545 309.094C104.545 309.094 104.545 309.094 104.083 309.558C89.7425 323.017 77.7152 338.797 67.0756 356.433C45.7964 390.313 35.6195 431.618 35.6195 478.957C35.6195 502.162 38.395 523.975 43.4835 544.396C43.0209 544.396 43.0209 544.396 42.5583 544.86C33.7691 549.965 30.531 561.104 35.1569 569.922C35.6195 570.85 36.5446 571.778 37.0072 572.706C23.1295 583.845 18.5036 604.266 27.7554 620.509C35.1569 633.968 49.0346 640.93 63.3749 640.002C62.9123 644.179 63.3749 648.82 65.6878 652.997C71.2389 663.207 84.1915 666.92 94.831 661.351C95.2936 661.351 95.2936 660.886 95.7562 660.886C96.2188 662.743 96.6814 664.599 97.6066 665.992C99.9195 669.704 103.158 672.489 107.321 673.881C102.232 679.915 100.845 689.197 105.008 696.623C110.559 706.369 122.586 710.082 132.301 704.512C141.553 699.407 144.791 688.733 141.09 678.987C144.328 680.843 148.029 683.164 151.267 685.02C187.349 704.048 228.057 713.33 273.391 713.33C318.725 713.33 359.895 704.048 395.977 685.02C407.542 678.987 416.794 670.633 426.971 662.743C457.965 636.753 483.407 602.873 498.21 562.032C506.999 537.434 511.625 512.373 512.55 487.311C512.55 484.526 513.013 482.206 513.013 479.421C513.013 465.034 511.625 450.647 509.312 436.723C514.863 444.149 525.04 446.934 533.367 442.293C542.156 437.188 545.394 426.049 540.768 417.231C539.381 416.767 538.918 415.375 537.993 414.446ZM322.426 168.934C326.126 161.045 333.99 160.58 334.453 160.58C335.378 160.58 335.841 161.045 335.841 161.973C335.841 162.901 335.378 163.365 334.453 163.365C333.99 163.365 327.977 163.829 325.201 169.863C324.739 170.791 323.813 170.791 323.351 170.791C322.426 170.791 321.963 169.863 322.426 168.934ZM41.1705 590.807C40.7079 591.271 33.7691 601.481 40.2454 613.548C41.1705 614.94 40.2454 616.796 38.8576 617.725C37.4698 618.653 35.6195 618.189 34.6943 616.332C26.8302 601.017 35.6195 588.022 36.082 587.558C37.0072 586.165 38.8576 585.701 40.2454 586.63C42.0957 587.558 42.0957 589.414 41.1705 590.807ZM116.573 696.623C115.648 698.015 113.797 698.479 112.409 697.551C111.022 696.623 109.634 695.23 108.709 693.374C106.858 690.125 106.396 686.412 108.246 682.699C109.171 681.307 111.022 680.843 112.409 681.307C113.797 682.235 114.26 684.092 113.797 685.484C112.409 687.805 113.797 691.053 116.11 692.446C117.498 693.374 117.498 695.23 116.573 696.623ZM316.874 225.091C316.874 226.019 316.412 226.484 315.487 226.484C314.562 226.484 314.099 226.019 314.099 225.091C314.099 224.163 314.099 223.235 314.562 222.307C315.487 220.45 316.874 219.522 318.725 219.058C319.187 219.058 319.65 219.058 320.113 219.522L319.187 222.307C317.337 222.307 316.874 223.699 316.874 225.091ZM458.427 290.994C459.352 289.602 461.203 289.138 462.59 290.066C463.978 290.994 465.366 292.387 466.291 294.243C468.142 297.492 468.604 301.205 466.754 304.917C465.829 306.31 463.978 306.774 462.59 306.31C461.203 305.381 460.74 303.525 461.203 302.133C462.59 299.812 461.203 296.563 458.89 295.171C457.965 294.243 457.502 292.387 458.427 290.994ZM505.611 422.336C505.611 422.8 505.611 422.8 505.611 422.8V422.336ZM534.755 400.987C533.367 400.059 532.904 398.203 533.829 396.81C534.292 396.346 541.231 386.136 534.755 374.069C533.829 372.677 534.755 370.82 536.142 369.892C537.53 368.964 539.381 369.428 540.306 371.285C548.17 386.6 539.38 399.595 538.918 400.059C537.993 401.451 536.142 401.915 534.755 400.987Z" fill="#023047"/>
<path d="M483.87 290.994C478.319 296.563 477.856 305.846 483.407 311.415C488.958 316.984 498.21 317.448 503.761 311.879C509.312 306.31 509.775 297.028 504.224 291.458C498.673 285.425 489.421 285.425 483.87 290.994ZM503.298 304.453C502.836 305.846 501.448 307.238 499.598 306.774C498.21 306.31 496.822 304.917 497.285 303.061C497.747 300.276 495.897 297.956 493.584 297.028C492.196 296.563 491.271 294.707 491.734 293.315C492.196 291.922 494.047 290.994 495.434 291.458C497.285 291.922 499.135 293.315 500.06 294.707C502.836 297.028 504.224 300.74 503.298 304.453Z" fill="#023047"/>
<path d="M71.2389 675.738C65.6878 681.307 65.2253 690.589 70.7763 696.159C76.3274 701.728 85.5792 702.192 91.1303 696.623C96.6814 691.054 97.144 681.771 91.5929 676.202C86.0418 670.633 77.2526 670.169 71.2389 675.738ZM83.2663 694.302C82.8037 695.695 80.9533 696.623 79.5656 696.159C77.7152 695.695 75.8648 694.302 74.9397 692.91C72.6267 690.589 71.2389 686.877 72.1641 682.7C72.6267 681.307 74.0145 679.915 75.8648 680.379C77.2526 680.843 78.6404 682.235 78.1778 684.092C77.7152 686.877 79.5656 689.197 81.8785 690.125C83.2663 691.054 84.1915 692.91 83.2663 694.302Z" fill="#023047"/>
<path d="M307.623 216.273C311.786 216.737 315.487 213.953 315.949 210.24C316.412 206.063 313.636 202.35 309.936 201.886C305.772 201.422 302.072 204.207 301.609 207.919C300.684 212.096 303.459 215.809 307.623 216.273ZM303.922 208.384C304.384 206.527 305.31 205.135 307.16 204.207C308.085 203.742 309.01 204.207 309.01 205.135C309.473 206.063 309.01 206.991 308.085 206.991C306.697 207.455 306.235 209.312 306.697 210.24C307.16 211.168 306.697 212.096 305.772 212.096C304.847 212.56 303.922 212.096 303.922 211.168C303.922 210.704 303.922 209.776 303.922 208.384Z" fill="#023047"/>
<path d="M446.862 126.237C442.699 125.773 438.998 128.557 438.536 132.27C438.073 136.447 440.849 140.16 444.549 140.624C448.713 141.088 452.413 138.304 452.876 134.591C453.339 130.878 451.026 127.165 446.862 126.237ZM448.25 138.304C447.325 138.768 446.4 138.768 445.475 138.768C443.624 138.304 442.237 137.375 441.311 135.519C440.849 134.591 441.311 133.663 442.236 133.663C443.162 133.198 444.087 133.663 444.087 134.591C444.549 135.983 446.4 136.447 447.325 135.983C448.25 135.519 449.175 135.983 449.175 136.911C449.175 136.911 448.713 137.84 448.25 138.304Z" fill="#023047"/>
<path d="M192.438 432.082C217.88 432.082 241.935 420.944 264.139 409.341C279.405 401.451 295.133 394.49 310.861 387.528C311.323 387.528 311.323 387.064 311.323 387.064C311.323 387.064 311.323 386.6 311.323 386.136C305.772 369.428 297.908 353.649 284.493 342.046C270.153 330.443 250.262 319.769 231.295 316.52C208.166 312.343 183.186 318.841 162.369 329.979C143.866 339.725 128.6 355.505 118.886 373.605C116.11 379.174 113.335 385.208 111.022 390.777C110.559 391.705 110.097 393.098 110.559 394.49C111.022 395.418 111.484 395.882 112.41 396.346C121.199 403.308 130.451 409.805 140.165 415.839C149.879 421.408 160.056 426.513 170.696 429.298C177.635 431.154 185.036 432.082 192.438 432.082Z" fill="#00467F"/>
<path d="M104.545 406.557C94.3685 439.972 94.3685 474.78 102.695 507.732C114.722 553.214 144.328 594.055 188.274 619.581C276.167 670.633 388.113 640.466 438.998 552.286C443.162 545.324 446.4 537.899 449.638 530.473C454.264 507.268 463.978 426.049 381.637 396.81C292.357 363.395 225.744 512.837 104.545 406.557Z" fill="#0080FF"/>
<path d="M145.716 461.785C147.566 460.857 149.879 462.25 150.804 464.106C151.73 465.962 150.342 468.283 148.492 469.211C146.641 470.139 144.328 468.747 143.403 466.891C142.478 465.034 143.403 462.714 145.716 461.785Z" fill="#00467F"/>
<path d="M152.655 449.255C154.043 448.79 155.893 449.255 156.356 451.111C156.818 452.503 156.356 454.36 154.505 454.824C153.117 455.288 151.267 454.824 150.805 452.967C150.805 451.111 151.267 449.719 152.655 449.255Z" fill="#00467F"/>
<path d="M154.505 460.857C155.43 460.393 156.818 460.857 156.818 461.785C157.281 462.714 156.818 464.106 155.893 464.106C154.968 464.57 153.58 464.106 153.58 463.178C153.117 462.249 153.58 461.321 154.505 460.857Z" fill="#00467F"/>
<path d="M161.444 450.647C163.757 449.719 166.995 451.111 167.92 453.432C168.846 455.752 167.458 459.001 165.145 459.929C162.832 460.857 159.594 459.465 158.669 457.144C157.743 454.36 159.131 451.575 161.444 450.647Z" fill="#00467F"/>
<path d="M397.365 482.206C403.752 482.206 408.93 477.011 408.93 470.603C408.93 464.195 403.752 459.001 397.365 459.001C390.978 459.001 385.801 464.195 385.801 470.603C385.801 477.011 390.978 482.206 397.365 482.206Z" fill="#00467F"/>
<path d="M436.685 504.019C436.685 508.66 432.985 512.373 428.359 512.373C423.733 512.373 420.032 508.66 420.032 504.019C420.032 499.378 423.733 495.665 428.359 495.665C432.985 495.665 436.685 499.378 436.685 504.019Z" fill="#00467F"/>
<path d="M402.454 497.521C402.454 500.77 399.678 503.091 396.903 503.091C393.665 503.091 391.352 500.306 391.352 497.521C391.352 494.273 394.127 491.952 396.903 491.952C400.141 491.488 402.454 494.273 402.454 497.521Z" fill="#00467F"/>
<path d="M423.733 527.224C423.733 535.114 417.257 542.076 408.93 542.076C401.066 542.076 394.127 535.578 394.127 527.224C394.127 519.334 400.603 512.373 408.93 512.373C416.794 512.837 423.733 519.334 423.733 527.224Z" fill="#00467F"/>
<path d="M197.989 582.917C200.764 585.702 200.764 590.807 197.989 593.592C195.213 596.376 190.125 596.376 187.349 593.592C184.574 590.807 184.574 585.702 187.349 582.917C190.125 580.132 195.213 580.132 197.989 582.917Z" fill="#00467F"/>
<path d="M226.207 586.166C228.057 588.486 228.057 591.735 226.207 594.056C223.894 595.912 220.656 595.912 218.343 594.056C216.492 591.735 216.492 588.486 218.343 586.166C220.656 583.845 224.356 583.845 226.207 586.166Z" fill="#00467F"/>
<path d="M207.241 598.697C208.628 600.089 208.628 602.41 207.241 604.266C205.853 605.658 203.54 605.658 201.69 604.266C200.302 602.874 200.302 600.553 201.69 598.697C203.077 596.84 205.39 596.84 207.241 598.697Z" fill="#00467F"/>
<path d="M230.37 602.874C234.071 606.586 234.071 612.62 230.37 616.333C226.669 620.045 220.656 620.045 216.955 616.333C213.254 612.62 213.254 606.586 216.955 602.874C220.656 599.161 226.669 599.161 230.37 602.874Z" fill="#00467F"/>
<path d="M266.452 356.433C262.751 354.113 261.826 349.472 264.139 345.759C266.452 342.046 271.078 341.118 274.779 343.438C278.48 345.759 279.405 350.4 277.092 354.113C274.779 357.826 270.153 358.754 266.452 356.433Z" fill="#0080FF"/>
<path d="M243.323 362.467C240.547 360.61 240.085 357.362 241.935 354.577C243.785 351.792 247.023 351.328 249.799 353.185C252.574 355.041 253.037 358.29 251.187 361.074C249.336 363.395 245.636 364.323 243.323 362.467Z" fill="#0080FF"/>
<path d="M253.962 342.974C252.112 341.582 251.649 339.261 253.037 337.405C254.425 335.549 256.738 335.084 258.588 336.477C260.439 337.869 260.901 340.19 259.513 342.046C258.126 343.438 255.813 343.902 253.962 342.974Z" fill="#0080FF"/>
<path d="M131.376 389.849C126.75 386.6 125.825 380.567 128.6 375.926C131.838 371.285 137.852 370.356 142.478 373.141C147.104 376.39 148.029 382.423 145.253 387.064C142.478 391.705 136.002 393.098 131.376 389.849Z" fill="#0080FF"/>
</g>
<defs>
<clipPath id="clip0_920_8042">
<rect width="575" height="737" fill="white"/>
</clipPath>
</defs>
</svg>
