<svg width="197" height="465" viewBox="0 0 197 465" fill="none" xmlns="http://www.w3.org/2000/svg">
<path d="M53.8991 460.444C53.9021 460.2 53.8838 459.95 53.8168 459.7C49.7469 444.997 29.5498 435.841 29.5498 435.841L21.5472 436.413C16.9442 449.372 17.5382 457.318 18.2754 460.861C18.2967 460.96 18.3302 461.055 18.3577 461.149C24.959 461.688 38.5487 462.038 53.8991 460.447V460.444Z" fill="url(#paint0_linear_253_3144)"/>
<path d="M18.3584 461.147C18.7148 462.329 19.6714 463.248 20.899 463.484C30.2908 465.283 45.2178 463.837 51.484 463.09C52.8671 462.926 53.8785 461.76 53.8998 460.444C38.5494 462.038 24.9598 461.685 18.3584 461.147Z" fill="#91B3FA"/>
<path d="M18.3271 425.546L21.7177 440.418C21.9675 441.507 22.8844 442.323 23.9963 442.42C25.358 442.537 27.2986 442.606 29.2482 442.345C30.9968 442.112 32.2153 440.49 31.9046 438.753L29.5498 425.549H18.3271V425.546Z" fill="url(#paint1_linear_253_3144)"/>
<path d="M88.5611 460.961C79.7207 460.736 75.1513 459.786 72.7873 458.906C72.7812 459.706 72.7873 460.522 72.8147 461.366C72.8452 462.268 73.5794 462.987 74.4811 462.985L123.012 462.699C124.559 462.69 125.464 461.052 124.794 459.759C118.43 460.239 102.224 461.31 88.5611 460.961Z" fill="#91B3FA"/>
<path d="M124.793 459.756C124.735 459.642 124.683 459.528 124.601 459.422C120.315 453.964 109.4 443.095 87.8289 438.381L77.4805 438.084C77.4805 438.084 72.8714 445.383 72.7861 458.903C75.1501 459.783 79.7226 460.733 88.56 460.958C102.223 461.307 118.429 460.233 124.793 459.756Z" fill="url(#paint2_linear_253_3144)"/>
<path d="M75.1025 424.233C75.267 424.927 77.4177 435.51 78.2524 439.613C78.4505 440.588 79.2851 441.304 80.2752 441.354C82.0481 441.446 84.9056 441.454 87.3609 440.846C88.6861 440.518 89.5787 439.286 89.4842 437.92L88.3266 421.182L75.1025 424.233Z" fill="url(#paint3_linear_253_3144)"/>
<path d="M67.26 228.854C67.26 228.854 81.4954 318 91.7676 424.081C91.9595 426.057 90.2323 427.776 88.1029 428.184C84.9652 428.786 80.3531 429.503 76.533 429.403C74.495 429.35 72.7891 427.973 72.4479 426.141C68.9476 407.437 43.977 307.055 37.4213 284.962C37.4213 284.962 29.8939 378.808 32.3004 427.495C32.3614 428.706 31.3866 429.755 30.0675 429.894C28.063 430.105 24.8583 430.266 20.7793 429.872C19.2317 429.722 17.9827 428.656 17.7604 427.251C15.2685 411.421 0.920325 317.2 1.52959 249.323C1.5631 245.495 6.45854 214.048 6.45854 214.048L67.2661 228.854H67.26Z" fill="url(#paint4_linear_253_3144)"/>
<path d="M72.7734 78.9413L74.6804 125.588C80.0937 127.287 85.2481 128.606 90.1557 129.591C93.2264 120.585 99.9862 109.53 105.518 101.31C85.1811 94.7577 72.7734 78.9385 72.7734 78.9385V78.9413Z" fill="url(#paint5_linear_253_3144)"/>
<path d="M4.31419 233.992C2.85196 233.518 1.83144 232.31 1.66999 230.902C-0.221777 214.164 -9.38816 110.387 48.4767 67.6968C48.4767 67.6968 51.7941 59.7845 79.0708 79.235C106.348 98.6855 91.7435 119.072 85.2122 147.19C77.3101 181.215 63.4463 209.028 69.5785 229.969C70.0019 231.413 69.1672 232.932 67.6289 233.448C46.4417 240.564 25.3338 240.8 4.31114 233.992H4.31419Z" fill="url(#paint6_linear_253_3144)"/>
<path d="M71.0465 36.6025C71.0282 38.0795 47.9219 67.9882 47.9219 67.9882C47.9219 67.9882 52.0679 75.4314 71.869 81.4753L88.9588 49.4511L71.0465 36.6025Z" fill="url(#paint7_linear_253_3144)"/>
<path d="M59.6012 138.944C59.4581 138.944 59.3088 138.905 59.1809 138.827C40.7232 127.461 32.0382 109.116 31.9529 108.933C31.7914 108.583 31.9711 108.183 32.3519 108.036C32.7358 107.889 33.1744 108.05 33.3359 108.397C33.4182 108.577 41.9417 126.559 60.0216 137.692C60.3659 137.903 60.4542 138.328 60.2227 138.641C60.0795 138.836 59.8419 138.941 59.6012 138.941V138.944Z" fill="url(#paint8_linear_253_3144)"/>
<path d="M87.0946 113.52C86.8479 113.52 86.6072 113.408 86.464 113.206C86.4092 113.128 80.7705 105.127 70.0291 87.6003C66.7269 82.2116 62.3859 78.7968 57.128 77.4558C48.4216 75.2376 40.029 79.4936 39.9467 79.5353C39.5842 79.7157 39.1303 79.6074 38.9232 79.2798C38.7191 78.9522 38.844 78.533 39.2034 78.347C39.566 78.161 48.1962 73.7579 57.5179 76.1371C63.181 77.578 67.8328 81.2094 71.3391 86.9312C82.053 104.413 87.6704 112.387 87.7252 112.465C87.9506 112.781 87.8501 113.206 87.4998 113.408C87.3749 113.483 87.2317 113.517 87.0946 113.517V113.52Z" fill="url(#paint9_linear_253_3144)"/>
<path d="M89.2402 19.4619C89.2402 19.4619 97.4623 36.6748 98.0136 45.7087C98.565 54.7427 100.7 60.6034 89.2402 62.4246C77.78 64.2431 68.1232 59.0403 62.8926 50.0425C62.8926 50.0425 54.698 36.175 56.535 30.4976C58.3719 24.8201 89.2402 19.4647 89.2402 19.4647V19.4619Z" fill="url(#paint10_linear_253_3144)"/>
<path d="M66.8092 43.5713L67.4611 43.3103C68.2927 42.9772 68.6461 42.0749 68.2288 41.3419C66.6112 38.4963 63.4613 31.9748 67.5312 30.4534C72.7769 28.4934 93.5558 24.6316 98.04 17.9103C102.348 11.4527 98.5305 3.11554 92.7943 0.744606C92.4104 0.586359 91.9565 0.711321 91.7616 1.0528L91.2833 1.87734C90.9573 2.44093 90.0404 2.35487 89.8454 1.74409C89.6596 1.15552 88.8005 1.04168 88.4441 1.56085C87.0672 3.57086 83.3446 6.8302 73.3953 8.50429C59.2543 10.8835 49.9082 16.0973 49.6736 25.0036C49.6584 25.57 48.9974 25.8837 48.4673 25.5894C47.4224 25.0092 45.753 24.7371 43.5201 26.4473C39.636 29.4234 41.2262 37.1415 49.7376 43.4936C50.1428 43.7962 50.1397 44.3708 49.701 44.629C48.1566 45.5452 45.8566 47.7218 51.8182 50.6258C57.984 53.6297 62.587 53.3826 64.3599 53.1161C64.8016 53.0494 65.085 52.6608 64.9875 52.2638L63.0957 44.4375C62.9891 43.9933 63.3577 43.574 63.8573 43.574H66.8061L66.8092 43.5713Z" fill="url(#paint11_linear_253_3144)"/>
<path d="M67.1627 45.2229C67.1627 45.2229 64.025 34.2289 58.6178 37.3106C53.2075 40.3922 61.4234 49.6288 65.7736 50.0397L67.1627 45.2201V45.2229Z" fill="url(#paint12_linear_253_3144)"/>
<path d="M173.622 75.4314C173.622 75.4314 169.501 68.7739 169.763 65.5368C170.024 62.3024 167.813 57.5523 170.168 57.9021C172.522 58.2546 173.007 57.9659 173.647 61.8472C174.286 65.7284 181.713 82.683 173.622 75.4286V75.4314Z" fill="url(#paint13_linear_253_3144)"/>
<path d="M174.399 64.8456L174.305 78.1466C146.409 105.596 123.83 107.211 105.522 101.312C99.9866 109.532 93.2268 120.585 90.1592 129.594C164.654 144.56 182.195 82.1473 182.195 82.1473C192.284 78.3382 194.319 76.1089 193.883 73.613L174.399 64.8428V64.8456Z" fill="url(#paint14_linear_253_3144)"/>
<path d="M195.852 51.65C193.469 50.7699 188.812 42.6743 187.919 45.3367C187.026 47.9992 188.297 51.65 187.919 52.7827C187.541 53.9154 181.735 66.9444 182.893 69.8373C183.73 71.925 188.342 71.6169 189.046 75.0345C189.281 76.1672 190.274 76.9806 191.428 76.9834C192.583 76.9834 193.576 76.1727 193.811 75.0372C193.905 74.5819 198.231 52.5301 195.852 51.65Z" fill="url(#paint15_linear_253_3144)"/>
<defs>
<linearGradient id="paint0_linear_253_3144" x1="17.7697" y1="448.72" x2="53.8991" y2="448.72" gradientUnits="userSpaceOnUse">
<stop stop-color="#09005D"/>
<stop offset="1" stop-color="#1A0F91"/>
</linearGradient>
<linearGradient id="paint1_linear_253_3144" x1="27.8164" y1="411.234" x2="22.073" y2="466.245" gradientUnits="userSpaceOnUse">
<stop stop-color="#FEBBBA"/>
<stop offset="1" stop-color="#FF928E"/>
</linearGradient>
<linearGradient id="paint2_linear_253_3144" x1="72.7861" y1="449.558" x2="124.796" y2="449.558" gradientUnits="userSpaceOnUse">
<stop stop-color="#09005D"/>
<stop offset="1" stop-color="#1A0F91"/>
</linearGradient>
<linearGradient id="paint3_linear_253_3144" x1="83.1335" y1="417.07" x2="80.5629" y2="472.274" gradientUnits="userSpaceOnUse">
<stop stop-color="#FEBBBA"/>
<stop offset="1" stop-color="#FF928E"/>
</linearGradient>
<linearGradient id="paint4_linear_253_3144" x1="73.5598" y1="463.018" x2="13.8037" y2="150.361" gradientUnits="userSpaceOnUse">
<stop stop-color="#09005D"/>
<stop offset="1" stop-color="#1A0F91"/>
</linearGradient>
<linearGradient id="paint5_linear_253_3144" x1="146.519" y1="38.8631" x2="4.57327" y2="210.692" gradientUnits="userSpaceOnUse">
<stop stop-color="#4042E2"/>
<stop offset="1" stop-color="#4F52FF"/>
</linearGradient>
<linearGradient id="paint6_linear_253_3144" x1="115.834" y1="47.6744" x2="-82.9739" y2="448.068" gradientUnits="userSpaceOnUse">
<stop stop-color="#4042E2"/>
<stop offset="1" stop-color="#4F52FF"/>
</linearGradient>
<linearGradient id="paint7_linear_253_3144" x1="55.3488" y1="91.3033" x2="68.9347" y2="50.5983" gradientUnits="userSpaceOnUse">
<stop stop-color="#FEBBBA"/>
<stop offset="1" stop-color="#FF928E"/>
</linearGradient>
<linearGradient id="paint8_linear_253_3144" x1="69.2185" y1="-37.2709" x2="63.0171" y2="14.702" gradientUnits="userSpaceOnUse">
<stop stop-color="#4042E2"/>
<stop offset="1" stop-color="#4F52FF"/>
</linearGradient>
<linearGradient id="paint9_linear_253_3144" x1="82.2449" y1="-35.7158" x2="76.0409" y2="16.2572" gradientUnits="userSpaceOnUse">
<stop stop-color="#4042E2"/>
<stop offset="1" stop-color="#4F52FF"/>
</linearGradient>
<linearGradient id="paint10_linear_253_3144" x1="94.748" y1="31.4665" x2="6.25312" y2="108.805" gradientUnits="userSpaceOnUse">
<stop stop-color="#FEBBBA"/>
<stop offset="1" stop-color="#FF928E"/>
</linearGradient>
<linearGradient id="paint11_linear_253_3144" x1="57.8774" y1="8.66252" x2="96.7088" y2="63.5209" gradientUnits="userSpaceOnUse">
<stop stop-color="#09005D"/>
<stop offset="1" stop-color="#1A0F91"/>
</linearGradient>
<linearGradient id="paint12_linear_253_3144" x1="85.1329" y1="27.6686" x2="41.4269" y2="64.364" gradientUnits="userSpaceOnUse">
<stop stop-color="#FEBBBA"/>
<stop offset="1" stop-color="#FF928E"/>
</linearGradient>
<linearGradient id="paint13_linear_253_3144" x1="196.369" y1="49.3234" x2="104.837" y2="136.08" gradientUnits="userSpaceOnUse">
<stop stop-color="#FEBBBA"/>
<stop offset="1" stop-color="#FF928E"/>
</linearGradient>
<linearGradient id="paint14_linear_253_3144" x1="198.444" y1="56.625" x2="109.347" y2="141.075" gradientUnits="userSpaceOnUse">
<stop stop-color="#FEBBBA"/>
<stop offset="1" stop-color="#FF928E"/>
</linearGradient>
<linearGradient id="paint15_linear_253_3144" x1="200.053" y1="53.2074" x2="108.521" y2="139.967" gradientUnits="userSpaceOnUse">
<stop stop-color="#FEBBBA"/>
<stop offset="1" stop-color="#FF928E"/>
</linearGradient>
</defs>
</svg>
