<svg width="193" height="223" viewBox="0 0 193 223" fill="none" xmlns="http://www.w3.org/2000/svg">
<path fill-rule="evenodd" clip-rule="evenodd" d="M3.32272 160.377C-2.93414 153.863 4.34512 117.38 0.411621 106.372C6.66849 99.8579 16.9094 99.8579 23.1662 106.372L25.2604 108.552L25.2859 108.579L27.4056 110.786L27.4311 110.812L27.4567 110.839V59.2571C27.4567 53.3544 31.2619 48.3291 36.4462 46.7338V45.5639L31.4917 40.5918C30.8277 39.9271 30.4191 39.0231 30.4191 38.0127V15.9442C30.4447 13.9766 34.5563 15.9442 36.4462 15.9442L93.2936 14.1932C94.8004 14.1932 82.3881 18.451 105.562 15.9442L184.287 97.4383L184.287 222.405H86.2929L3.32272 160.377Z" fill="#8ECAE6"/>
<path d="M106.51 16.926C104.878 15.1987 102.646 14.1932 100.342 14.1932H9.12313C6.81926 14.1932 4.58738 15.1987 2.95548 16.926C1.34757 18.6791 0.411621 21.0767 0.411621 23.5517V24.2993V24.7118V150.187C0.411621 152.636 1.34757 155.059 2.95548 156.787C4.58738 158.514 6.81926 159.519 9.12313 159.519H100.366C102.646 159.519 104.902 158.514 106.51 156.787C108.141 155.034 109.053 152.636 109.053 150.187V24.7118V24.2993V23.5517C109.053 21.0767 108.118 18.6791 106.51 16.926ZM11.187 84.8067V75.139H33.5537V84.8067C33.5537 85.3997 33.3377 85.9669 32.9298 86.4051C32.5458 86.8176 31.9938 87.0754 31.4419 87.0754H13.2749C12.7229 87.0754 12.195 86.8434 11.787 86.4051C11.403 85.9669 11.187 85.3997 11.187 84.8067ZM34.8257 147.97C34.8257 148.563 34.6097 149.156 34.2257 149.568C33.8417 149.98 33.2898 150.238 32.7378 150.238H14.5468C13.9948 150.238 13.4669 150.006 13.0589 149.568C12.6749 149.156 12.4589 148.563 12.4589 147.97V128.454C12.4589 127.861 12.6749 127.268 13.0589 126.855C13.4429 126.443 13.9948 126.185 14.5468 126.185H32.7138C33.2658 126.185 33.8177 126.417 34.2017 126.855C34.5857 127.268 34.8017 127.861 34.8017 128.454V147.97H34.8257ZM34.8257 117.162C34.8257 117.755 34.6097 118.348 34.2017 118.76C33.8177 119.173 33.2658 119.43 32.7138 119.43H14.5468C13.9948 119.43 13.4669 119.198 13.0589 118.76C12.6749 118.348 12.4349 117.755 12.4349 117.162V97.6456C12.4349 97.0526 12.6509 96.4596 13.0589 96.0472C13.4429 95.6347 13.9948 95.3769 14.5468 95.3769H32.7138C33.2658 95.3769 33.7937 95.6089 34.2017 96.0472C34.5857 96.4596 34.8257 97.0526 34.8257 97.6456V117.162ZM39.9854 84.8067V75.139H62.3521V84.8067C62.3521 85.3997 62.1361 85.9669 61.7281 86.4051C61.3442 86.8176 60.7922 87.0754 60.2402 87.0754H42.0733C41.5213 87.0754 40.9933 86.8434 40.5853 86.4051C40.1774 85.9669 39.9854 85.3997 39.9854 84.8067ZM41.0893 97.6456C41.0893 97.0526 41.3053 96.4596 41.7133 96.0472C42.0972 95.6347 42.6492 95.3769 43.2012 95.3769H61.3682C61.9201 95.3769 62.4481 95.6089 62.8561 96.0472C63.2401 96.4596 63.48 97.0526 63.48 97.6456V117.162C63.48 117.755 63.264 118.348 62.8561 118.76C62.4721 119.173 61.9201 119.43 61.3682 119.43H43.2012C42.6492 119.43 42.1212 119.198 41.7133 118.76C41.3293 118.348 41.0893 117.755 41.0893 117.162V97.6456ZM63.528 147.97C63.528 148.563 63.312 149.156 62.9041 149.568C62.5201 149.98 61.9681 150.238 61.4162 150.238H43.2492C42.6972 150.238 42.1692 150.006 41.7613 149.568C41.3773 149.156 41.1373 148.563 41.1373 147.97V128.454C41.1373 127.861 41.3533 127.268 41.7613 126.855C42.1452 126.443 42.6972 126.185 43.2492 126.185H61.4162C61.9681 126.185 62.4961 126.417 62.9041 126.855C63.288 127.268 63.528 127.861 63.528 128.454V147.97ZM97.0061 147.97C97.0061 148.588 96.7901 149.156 96.3822 149.568C95.9742 150.006 95.4462 150.238 94.8942 150.238H72.3595C71.8076 150.238 71.2556 150.006 70.8716 149.568C70.4876 149.156 70.2477 148.563 70.2477 147.97V95.7378C70.2477 95.1448 70.4636 94.5519 70.8716 94.1394C71.2556 93.7269 71.8076 93.4691 72.3595 93.4691H94.8942C95.4462 93.4691 95.9982 93.7011 96.3822 94.1394C96.7661 94.5519 97.0061 95.1448 97.0061 95.7378V147.97ZM71.1596 84.8067V75.139H93.5263V84.8067C93.5263 85.3997 93.3103 85.9669 92.9264 86.4051C92.5424 86.8176 91.9904 87.0754 91.4385 87.0754H73.2715C72.7195 87.0754 72.1675 86.8434 71.7836 86.4051C71.3996 85.9669 71.1596 85.3997 71.1596 84.8067ZM101.182 67.9461H8.28317V29.9968H101.182V67.9461Z" fill="#D9F1F2"/>
<path d="M72.3594 93.4691C71.8075 93.4691 71.2555 93.7011 70.8715 94.1394C70.4875 94.5518 70.2476 95.1448 70.2476 95.7378V147.97C70.2476 148.563 70.4635 149.155 70.8715 149.568C71.2555 149.98 71.8075 150.238 72.3594 150.238H94.8942C95.4461 150.238 95.9981 150.006 96.3821 149.568C96.7901 149.13 97.006 148.563 97.006 147.97V95.7378C97.006 95.1448 96.7901 94.5518 96.3821 94.1394C95.9981 93.7269 95.4461 93.4691 94.8942 93.4691H72.3594ZM89.5425 125.154H77.1112V122.911L74.8514 128.032L89.5425 125.154ZM89.5425 119.121H77.1112V116.878L72.8395 120.766L89.5425 119.121Z" fill="#0080FF"/>
<path d="M43.1773 95.3764C42.6253 95.3764 42.0974 95.6084 41.6894 96.0467C41.3054 96.4592 41.0654 97.0522 41.0654 97.6451V117.161C41.0654 117.754 41.2814 118.347 41.6894 118.76C42.0734 119.172 42.6253 119.43 43.1773 119.43H61.3443C61.8962 119.43 62.4242 119.198 62.8322 118.76C63.2162 118.347 63.4562 117.754 63.4562 117.161V97.6451C63.4562 97.0522 63.2402 96.4592 62.8322 96.0467C62.4482 95.6342 61.8962 95.3764 61.3443 95.3764H43.1773Z" fill="#0080FF"/>
<path d="M43.2731 126.21C42.7212 126.21 42.1932 126.442 41.7852 126.881C41.4012 127.293 41.1613 127.886 41.1613 128.479V147.995C41.1613 148.588 41.3772 149.181 41.7852 149.594C42.1692 150.006 42.7212 150.264 43.2731 150.264H61.4401C61.9921 150.264 62.52 150.032 62.928 149.594C63.312 149.181 63.552 148.588 63.552 147.995V128.479C63.552 127.886 63.336 127.293 62.928 126.881C62.544 126.468 61.9921 126.21 61.4401 126.21H43.2731Z" fill="#0080FF"/>
<path d="M14.5464 95.3764C13.9945 95.3764 13.4665 95.6084 13.0585 96.0467C12.6746 96.4592 12.4346 97.0522 12.4346 97.6451V117.161C12.4346 117.754 12.6506 118.347 13.0585 118.76C13.4425 119.172 13.9945 119.43 14.5464 119.43H32.7134C33.2654 119.43 33.7934 119.198 34.2013 118.76C34.5853 118.347 34.8253 117.754 34.8253 117.161V97.6451C34.8253 97.0522 34.6093 96.4592 34.2013 96.0467C33.8174 95.6342 33.2654 95.3764 32.7134 95.3764H14.5464Z" fill="#0080FF"/>
<path d="M40.5854 86.4057C40.9694 86.8182 41.5214 87.076 42.0734 87.076H60.2403C60.7923 87.076 61.3203 86.8439 61.7282 86.4057C62.1122 85.9932 62.3522 85.4002 62.3522 84.8073V75.1395H39.9855V84.8073C39.9855 85.4002 40.2015 85.9674 40.5854 86.4057Z" fill="#0080FF"/>
<path d="M71.7833 86.4057C72.1672 86.8182 72.7192 87.076 73.2712 87.076H91.4382C91.9901 87.076 92.5181 86.8439 92.9261 86.4057C93.31 85.9932 93.526 85.4002 93.526 84.8073V75.1395H71.1593V84.8073C71.1593 85.4002 71.3993 85.9674 71.7833 86.4057Z" fill="#0080FF"/>
<path d="M11.7869 86.4057C12.1708 86.8182 12.7228 87.076 13.2748 87.076H31.4417C31.9937 87.076 32.5217 86.8439 32.9297 86.4057C33.3136 85.9932 33.5536 85.4002 33.5536 84.8073V75.1395H11.1869V84.8073C11.1869 85.4002 11.4029 85.9674 11.7869 86.4057Z" fill="#0080FF"/>
<path d="M14.5469 126.21C13.9949 126.21 13.4429 126.442 13.059 126.881C12.675 127.293 12.459 127.886 12.459 128.479V147.995C12.459 148.588 12.675 149.181 13.059 149.594C13.4429 150.006 13.9949 150.264 14.5469 150.264H32.7138C33.2658 150.264 33.8178 150.032 34.2017 149.594C34.5857 149.181 34.8017 148.588 34.8017 147.995V128.479C34.8017 127.886 34.5857 127.293 34.2017 126.881C33.8178 126.468 33.2658 126.21 32.7138 126.21H14.5469Z" fill="#0080FF"/>
<path d="M101.182 67.9459V29.9966H8.28284V67.9459H101.182ZM83.4226 58.0461L83.7346 57.7883C83.8306 57.7883 83.9745 57.8399 84.1905 57.9688C84.4065 58.0977 84.6945 58.2266 85.0305 58.3813C85.3665 58.5359 85.7504 58.6648 86.2064 58.7937C86.6624 58.9226 87.1664 58.9742 87.7423 58.9742C88.2223 58.9742 88.6543 58.9226 89.0383 58.7937C89.4222 58.6648 89.7342 58.4844 89.9982 58.2781C90.2622 58.0461 90.4542 57.7883 90.5742 57.4531C90.6942 57.1438 90.7662 56.7829 90.7662 56.3961C90.7662 55.9579 90.6942 55.5712 90.5262 55.236C90.3822 54.9009 90.1422 54.5915 89.8302 54.3595C89.5182 54.1274 89.1342 53.9212 88.6783 53.7923C88.2223 53.6634 87.6703 53.586 87.0464 53.586H85.5584L85.2705 53.5345L85.0785 53.3282L84.9585 52.89C84.9345 52.7095 84.9345 52.4517 84.9345 52.1681C84.9345 51.8845 84.9345 51.6783 84.9585 51.4978L85.0545 51.0853L85.2465 50.8791L85.5105 50.8275H87.0224C87.5263 50.8275 87.9823 50.7759 88.3903 50.647C88.7983 50.5181 89.1103 50.3377 89.3982 50.1056C89.6622 49.8736 89.8782 49.59 90.0222 49.2291C90.1662 48.8939 90.2382 48.5072 90.2382 48.1205C90.2382 47.8111 90.1902 47.5018 90.0942 47.2182C89.9982 46.9346 89.8542 46.7026 89.6622 46.4963C89.4702 46.2901 89.2302 46.1354 88.9183 46.0065C88.6063 45.8776 88.2703 45.826 87.8623 45.826C87.4063 45.826 86.9744 45.9034 86.5664 46.0581C86.1584 46.2127 85.7984 46.3674 85.4625 46.5479C85.1505 46.7284 84.8625 46.883 84.6465 47.0377C84.4305 47.1924 84.2625 47.2697 84.1425 47.2697L83.9505 47.2182L83.8065 47.0119L83.7346 46.5994C83.7106 46.419 83.7105 46.187 83.7105 45.9034C83.7105 45.6713 83.7106 45.4651 83.7346 45.3104L83.7826 44.9237L83.8785 44.6401L84.0705 44.3823C84.1665 44.305 84.3345 44.1503 84.6225 43.9698C84.8865 43.7893 85.2465 43.6089 85.6544 43.4284C86.0624 43.248 86.5424 43.119 87.0944 42.9901C87.6463 42.8612 88.2223 42.8097 88.8703 42.8097C89.7102 42.8097 90.4302 42.9128 91.0781 43.119C91.7261 43.3253 92.2541 43.6347 92.71 44.0214C93.142 44.4081 93.478 44.8979 93.718 45.4651C93.934 46.0323 94.054 46.7026 94.054 47.4244C94.054 47.9916 93.982 48.5072 93.862 48.9971C93.718 49.4869 93.526 49.9252 93.286 50.2861C93.022 50.6728 92.71 50.9822 92.3261 51.2658C91.9421 51.5236 91.4861 51.7298 90.9821 51.8587V51.9103C91.5821 51.9876 92.1341 52.1423 92.614 52.4001C93.094 52.6579 93.502 52.9673 93.838 53.354C94.174 53.7407 94.438 54.1532 94.6059 54.643C94.7739 55.1329 94.8699 55.6485 94.8699 56.1899C94.8699 57.118 94.7019 57.943 94.3899 58.6391C94.054 59.3609 93.598 59.9539 93.022 60.4437C92.4461 60.9336 91.7261 61.2945 90.9101 61.5523C90.0942 61.8101 89.2062 61.939 88.2463 61.939C87.6703 61.939 87.1184 61.8874 86.5904 61.8101C86.0864 61.707 85.6304 61.6039 85.2225 61.4749C84.8385 61.346 84.5025 61.1914 84.2385 61.0625C83.9745 60.9078 83.8065 60.8046 83.7346 60.7273L83.5426 60.4695L83.4466 60.1343L83.3746 59.6445C83.3506 59.4383 83.3506 59.2062 83.3506 58.9484C83.3026 58.5359 83.3506 58.2266 83.4226 58.0461ZM69.5994 59.2836C69.6234 59.0516 69.6713 58.8711 69.7433 58.6906L70.0073 58.175L70.4393 57.6336L73.4151 54.2048C74.0151 53.5345 74.4951 52.9415 74.8551 52.3743C75.215 51.8329 75.503 51.3173 75.695 50.8791C75.887 50.415 76.031 50.0025 76.103 49.6416C76.175 49.2549 76.223 48.8939 76.223 48.5588C76.223 48.2494 76.175 47.94 76.079 47.6565C75.983 47.3729 75.839 47.1408 75.671 46.9088C75.479 46.7026 75.263 46.5221 74.999 46.419C74.7351 46.2901 74.3991 46.2385 74.0391 46.2385C73.5111 46.2385 73.0552 46.3159 72.6472 46.4448C72.2392 46.5995 71.8792 46.7541 71.5912 46.9346C71.2793 47.1151 71.0393 47.2698 70.8233 47.4244L70.3433 47.6565L70.1273 47.5791L69.9833 47.2955C69.9353 47.1666 69.9113 46.9862 69.8873 46.7541C69.8633 46.5221 69.8633 46.2643 69.8633 45.9292L69.8873 45.3878L69.9593 45.001L70.0553 44.7175L70.2953 44.4339C70.4153 44.3307 70.6073 44.1761 70.8953 43.9956C71.1833 43.8151 71.5672 43.6604 71.9992 43.48C72.4312 43.3253 72.9112 43.1706 73.4391 43.0675C73.9671 42.9644 74.5191 42.887 75.071 42.887C75.959 42.887 76.7509 43.0159 77.4229 43.248C78.0949 43.48 78.6468 43.8409 79.1028 44.2534C79.5348 44.6917 79.8708 45.2073 80.0868 45.8002C80.3027 46.3932 80.4227 47.0377 80.4227 47.708C80.4227 48.301 80.3747 48.8939 80.2548 49.4869C80.1588 50.0799 79.9188 50.6986 79.5828 51.3689C79.2468 52.0392 78.7668 52.7868 78.1669 53.586C77.5429 54.411 76.7509 55.3391 75.743 56.4219L73.7271 58.6391H80.5187L80.7587 58.7164L80.9507 58.9742L81.0707 59.4383C81.0947 59.6445 81.1187 59.8765 81.1187 60.1343C81.1187 60.4179 81.0947 60.65 81.0947 60.8304L80.9987 61.3203L80.8307 61.5781L80.5907 61.6554H70.7033L70.1993 61.6038L69.8633 61.3718L69.6714 60.882C69.6234 60.6757 69.6234 60.3922 69.6234 60.057C69.5514 59.7734 69.5754 59.5156 69.5994 59.2836ZM56.5681 46.6768L56.6401 46.2901L56.7841 46.0323L57.0481 45.826L60.7439 43.248L60.9118 43.1448L61.1758 43.0933L61.5838 43.0675C61.7518 43.0675 61.9918 43.0675 62.2558 43.0675C62.5918 43.0675 62.8557 43.0675 63.0717 43.0933C63.2877 43.119 63.4317 43.119 63.5517 43.1706L63.7677 43.2995L63.8157 43.5058V58.768H66.6235L66.8395 58.8453L67.0075 59.1031L67.1035 59.5414C67.1275 59.7219 67.1275 59.9539 67.1275 60.2375C67.1275 60.4953 67.1035 60.7273 67.0795 60.9078L66.9595 61.346L66.7915 61.5781L66.5755 61.6554H57.0721L56.8801 61.5781L56.7121 61.346L56.5921 60.9078C56.5681 60.7273 56.5441 60.4953 56.5441 60.2375C56.5441 59.9539 56.5441 59.7219 56.5681 59.5414L56.6641 59.1031L56.8321 58.8453L57.0481 58.768H60.2639V46.7541L57.504 48.4041L57.0001 48.5846L56.6881 48.5072L56.5441 48.0947C56.5201 47.8885 56.4961 47.6049 56.4961 47.244C56.5441 47.0119 56.5441 46.8057 56.5681 46.6768Z" fill="white"/>
</svg>
