<svg width="177" height="209" viewBox="0 0 177 209" fill="none" xmlns="http://www.w3.org/2000/svg">
<path fill-rule="evenodd" clip-rule="evenodd" d="M1.64771 101.296C26.8904 56.2503 21.7932 89.8273 31.1944 53.2472C34.0545 42.093 34.4066 25.9909 32.4998 8.20133L32.6368 6.63796L32.5838 6.60936L32.5308 6.58076H32.5044H32.4514H32.4249H32.3984H32.3719H32.3455L32.2925 6.55216H32.266L32.213 6.52356L32.1601 6.49496L32.1071 6.46636L32.0542 6.43776H32.0277L32.0012 6.40916L31.9482 6.35196H31.9217L31.8688 6.32336H31.8423L31.7893 6.29476L31.7364 6.26616L31.6834 6.23756L31.6304 6.15175H31.604L31.5775 6.12315L31.551 6.09455H31.5245L31.498 6.06595H31.4715L31.4451 6.00875L31.3921 5.95155L31.3391 5.92295L31.2332 5.80855H31.2067L31.1802 5.77995L31.1538 5.75134L31.1008 5.69414L31.0478 5.63694L31.0213 5.57974L30.9684 5.52254V5.49394L30.9419 5.46534L30.9154 5.43674L30.8889 5.40814L30.8624 5.37954V5.35094L30.836 5.32234L30.783 5.23654L30.7565 5.17933L30.7036 5.12213L30.6771 5.06493L30.6506 5.03633V5.00773L30.6241 4.97913V4.95053L30.5976 4.89333L30.5711 4.83613L30.5447 4.77893L30.5182 4.69312V4.66452L30.4917 4.63592V4.60732V4.57872L30.4387 4.52152V4.49292L30.4122 4.46432L30.3858 4.37852V4.32132L30.3593 4.23552V4.20692V4.14971V4.12111L30.3063 4.06391V4.03531V3.97811V3.89231V3.83511V3.77791V3.74931V3.69211V3.66351V3.6349V3.5777V3.5491L31.9739 4.51186L29.6951 3.19623C29.6421 1.3372 31.7399 0.193176 33.4347 0.193176H59.2393L61.252 0.993992L176.477 125.006V208.405H97.9036L16.6063 135.331L1.64771 101.296Z" fill="#8ECAE6"/>
<path fill-rule="evenodd" clip-rule="evenodd" d="M49.9486 49.3383C77.1377 49.3383 99.1838 71.491 99.1838 98.841C99.1838 126.191 77.1377 148.344 49.9486 148.344C22.7594 148.344 0.713379 126.158 0.713379 98.841C0.713379 71.491 22.7594 49.3383 49.9486 49.3383Z" fill="#D9F1F2"/>
<path d="M67.9643 3.052H31.9026V61.7147H67.9643V3.052Z" fill="#D9F1F2"/>
<path fill-rule="evenodd" clip-rule="evenodd" d="M86.912 70.1273C93.0175 78.053 96.6568 88.025 96.6568 98.8415C96.6568 124.795 75.7536 145.811 49.948 145.811C24.1424 145.811 3.23926 124.795 3.23926 98.8415C3.23926 89.9089 5.7356 81.561 10.0365 74.4474C21.3754 61.8444 67.9939 72.7909 86.912 70.1273Z" fill="#00B2CC"/>
<path d="M67.9643 3.052H31.9026V10.1352H67.9643V3.052Z" fill="#C6E8EA"/>
<path fill-rule="evenodd" clip-rule="evenodd" d="M32.6847 0.193176H67.1824C69.1073 0.193176 70.6713 1.88274 70.6713 3.9622C70.6713 6.04166 69.1073 7.73122 67.1824 7.73122H32.6847C30.7598 7.73122 29.1958 6.04166 29.1958 3.9622C29.1958 1.88274 30.7598 0.193176 32.6847 0.193176Z" fill="#D9F1F2"/>
<path fill-rule="evenodd" clip-rule="evenodd" d="M41.4374 90.7532C43.3623 90.7532 44.9262 92.3128 44.9262 94.2623C44.9262 96.2118 43.3623 97.7714 41.4374 97.7714C39.5125 97.7714 37.9485 96.1793 37.9485 94.2623C37.9485 92.3453 39.5125 90.7532 41.4374 90.7532Z" fill="#00D6F7"/>
<path fill-rule="evenodd" clip-rule="evenodd" d="M20.6845 82.0803C23.2109 82.0803 25.2862 84.1598 25.2862 86.6941C25.2862 89.261 23.2109 91.3079 20.6845 91.3079C18.128 91.3079 16.0828 89.2285 16.0828 86.6941C16.0828 84.1598 18.158 82.0803 20.6845 82.0803Z" fill="#00D6F7"/>
<path fill-rule="evenodd" clip-rule="evenodd" d="M14.3679 101.602C15.1499 101.602 15.7815 102.252 15.7815 103.032C15.7815 103.812 15.1499 104.461 14.3679 104.461C13.586 104.461 12.9543 103.812 12.9543 103.032C12.9543 102.22 13.586 101.602 14.3679 101.602Z" fill="#00D6F7"/>
<path fill-rule="evenodd" clip-rule="evenodd" d="M34.2489 124.307C36.7753 124.307 38.8506 126.387 38.8506 128.921C38.8506 131.488 36.7753 133.535 34.2489 133.535C31.6924 133.535 29.6472 131.455 29.6472 128.921C29.6472 126.387 31.6924 124.307 34.2489 124.307Z" fill="#00D6F7"/>
<path fill-rule="evenodd" clip-rule="evenodd" d="M79.515 73.798C81.4399 73.798 83.0039 75.3576 83.0039 77.3071C83.0039 79.2566 81.4399 80.8162 79.515 80.8162C77.5901 80.8162 76.0261 79.2566 76.0261 77.3071C76.0261 75.3576 77.5901 73.798 79.515 73.798Z" fill="#00D6F7"/>
<path fill-rule="evenodd" clip-rule="evenodd" d="M62.3098 76.0065C63.0918 76.0065 63.7234 76.6563 63.7234 77.4361C63.7234 78.2159 63.0918 78.8657 62.3098 78.8657C61.5278 78.8657 60.8962 78.2159 60.8962 77.4361C60.8962 76.6563 61.5278 76.0065 62.3098 76.0065Z" fill="#00D6F7"/>
<path fill-rule="evenodd" clip-rule="evenodd" d="M70.4613 108.132C72.9877 108.132 75.063 110.211 75.063 112.745C75.063 115.312 72.9877 117.359 70.4613 117.359C67.9048 117.359 65.8596 115.28 65.8596 112.745C65.8596 110.211 67.9048 108.132 70.4613 108.132Z" fill="#00D6F7"/>
<path fill-rule="evenodd" clip-rule="evenodd" d="M80.295 99.8158C82.2198 99.8158 83.7838 101.408 83.7838 103.325C83.7838 105.274 82.2198 106.834 80.295 106.834C78.3701 106.834 76.8061 105.274 76.8061 103.325C76.776 101.408 78.3701 99.8158 80.295 99.8158Z" fill="#00D6F7"/>
<path fill-rule="evenodd" clip-rule="evenodd" d="M71.3035 100.043C72.0855 100.043 72.7171 100.693 72.7171 101.473C72.7171 102.253 72.0855 102.902 71.3035 102.902C70.5215 102.902 69.8899 102.253 69.8899 101.473C69.8899 100.693 70.5215 100.043 71.3035 100.043Z" fill="#00D6F7"/>
<path fill-rule="evenodd" clip-rule="evenodd" d="M37.4375 72.6285C38.2195 72.6285 38.8511 73.2783 38.8511 74.0581C38.8511 74.8379 38.2195 75.4877 37.4375 75.4877C36.6555 75.4877 36.0239 74.8379 36.0239 74.0581C36.0239 73.2458 36.6555 72.6285 37.4375 72.6285Z" fill="#00D6F7"/>
<path fill-rule="evenodd" clip-rule="evenodd" d="M57.6174 124.112C58.3994 124.112 59.031 124.762 59.031 125.542C59.031 126.322 58.3994 126.971 57.6174 126.971C56.8355 126.971 56.2039 126.322 56.2039 125.542C56.2039 124.762 56.8355 124.112 57.6174 124.112Z" fill="#00D6F7"/>
<path fill-rule="evenodd" clip-rule="evenodd" d="M32.2337 103.584C33.0156 103.584 33.6473 104.234 33.6473 105.013C33.6473 105.793 33.0156 106.443 32.2337 106.443C31.4517 106.443 30.8201 105.793 30.8201 105.013C30.8201 104.234 31.4517 103.584 32.2337 103.584Z" fill="#00D6F7"/>
<path fill-rule="evenodd" clip-rule="evenodd" d="M84.2049 122.001C84.9868 122.001 85.6184 122.651 85.6184 123.431C85.6184 124.21 84.9868 124.86 84.2049 124.86C83.4229 124.86 82.7913 124.21 82.7913 123.431C82.7913 122.651 83.4229 122.001 84.2049 122.001Z" fill="#00D6F7"/>
<path fill-rule="evenodd" clip-rule="evenodd" d="M56.9265 133.5C58.5506 133.5 59.874 134.832 59.874 136.489C59.874 138.146 58.5506 139.478 56.9265 139.478C55.3024 139.478 53.979 138.146 53.979 136.489C53.979 134.832 55.3024 133.5 56.9265 133.5Z" fill="#00D6F7"/>
<path fill-rule="evenodd" clip-rule="evenodd" d="M49.9486 49.3383C77.1377 49.3383 99.1838 71.491 99.1838 98.841C99.1838 126.191 77.1377 148.344 49.9486 148.344C22.7594 148.344 0.713379 126.158 0.713379 98.841C0.713379 71.491 22.7594 49.3383 49.9486 49.3383Z" fill="#D9F1F2"/>
<path d="M67.9643 3.052H31.9026V61.7147H67.9643V3.052Z" fill="#D9F1F2"/>
<path fill-rule="evenodd" clip-rule="evenodd" d="M86.912 70.1273C93.0175 78.053 96.6568 88.025 96.6568 98.8415C96.6568 124.795 75.7536 145.811 49.948 145.811C24.1424 145.811 3.23926 124.795 3.23926 98.8415C3.23926 89.9089 5.7356 81.561 10.0365 74.4474C21.3754 61.8444 67.9939 72.7909 86.912 70.1273Z" fill="#0080FF"/>
<path d="M67.9643 3.052H31.9026V10.1352H67.9643V3.052Z" fill="#C6E8EA"/>
<path fill-rule="evenodd" clip-rule="evenodd" d="M32.6847 0.193176H67.1824C69.1073 0.193176 70.6713 1.88274 70.6713 3.9622C70.6713 6.04166 69.1073 7.73122 67.1824 7.73122H32.6847C30.7598 7.73122 29.1958 6.04166 29.1958 3.9622C29.1958 1.88274 30.7598 0.193176 32.6847 0.193176Z" fill="#D9F1F2"/>
<path fill-rule="evenodd" clip-rule="evenodd" d="M41.4374 90.7532C43.3623 90.7532 44.9262 92.3128 44.9262 94.2623C44.9262 96.2118 43.3623 97.7714 41.4374 97.7714C39.5125 97.7714 37.9485 96.1793 37.9485 94.2623C37.9485 92.3453 39.5125 90.7532 41.4374 90.7532Z" fill="#074E95"/>
<path fill-rule="evenodd" clip-rule="evenodd" d="M20.6845 82.0803C23.2109 82.0803 25.2862 84.1598 25.2862 86.6941C25.2862 89.261 23.2109 91.3079 20.6845 91.3079C18.128 91.3079 16.0828 89.2285 16.0828 86.6941C16.0828 84.1598 18.158 82.0803 20.6845 82.0803Z" fill="#074E95"/>
<path fill-rule="evenodd" clip-rule="evenodd" d="M14.3679 101.602C15.1499 101.602 15.7815 102.252 15.7815 103.032C15.7815 103.812 15.1499 104.461 14.3679 104.461C13.586 104.461 12.9543 103.812 12.9543 103.032C12.9543 102.22 13.586 101.602 14.3679 101.602Z" fill="#074E95"/>
<path fill-rule="evenodd" clip-rule="evenodd" d="M34.2489 124.307C36.7753 124.307 38.8506 126.387 38.8506 128.921C38.8506 131.488 36.7753 133.535 34.2489 133.535C31.6924 133.535 29.6472 131.455 29.6472 128.921C29.6472 126.387 31.6924 124.307 34.2489 124.307Z" fill="#074E95"/>
<path fill-rule="evenodd" clip-rule="evenodd" d="M79.515 73.798C81.4399 73.798 83.0039 75.3576 83.0039 77.3071C83.0039 79.2566 81.4399 80.8162 79.515 80.8162C77.5901 80.8162 76.0261 79.2566 76.0261 77.3071C76.0261 75.3576 77.5901 73.798 79.515 73.798Z" fill="#FF7F85"/>
<path fill-rule="evenodd" clip-rule="evenodd" d="M62.3098 76.0065C63.0918 76.0065 63.7234 76.6563 63.7234 77.4361C63.7234 78.2159 63.0918 78.8657 62.3098 78.8657C61.5278 78.8657 60.8962 78.2159 60.8962 77.4361C60.8962 76.6563 61.5278 76.0065 62.3098 76.0065Z" fill="#FF7F85"/>
<path fill-rule="evenodd" clip-rule="evenodd" d="M70.4613 108.132C72.9877 108.132 75.063 110.211 75.063 112.745C75.063 115.312 72.9877 117.359 70.4613 117.359C67.9048 117.359 65.8596 115.28 65.8596 112.745C65.8596 110.211 67.9048 108.132 70.4613 108.132Z" fill="#FF7F85"/>
<path fill-rule="evenodd" clip-rule="evenodd" d="M80.295 99.8158C82.2198 99.8158 83.7838 101.408 83.7838 103.325C83.7838 105.274 82.2198 106.834 80.295 106.834C78.3701 106.834 76.8061 105.274 76.8061 103.325C76.776 101.408 78.3701 99.8158 80.295 99.8158Z" fill="#FF7F85"/>
<path fill-rule="evenodd" clip-rule="evenodd" d="M71.3035 100.043C72.0855 100.043 72.7171 100.693 72.7171 101.473C72.7171 102.253 72.0855 102.902 71.3035 102.902C70.5215 102.902 69.8899 102.253 69.8899 101.473C69.8899 100.693 70.5215 100.043 71.3035 100.043Z" fill="#FF7F85"/>
<path fill-rule="evenodd" clip-rule="evenodd" d="M37.4375 72.6285C38.2195 72.6285 38.8511 73.2783 38.8511 74.0581C38.8511 74.8379 38.2195 75.4877 37.4375 75.4877C36.6555 75.4877 36.0239 74.8379 36.0239 74.0581C36.0239 73.2458 36.6555 72.6285 37.4375 72.6285Z" fill="#074E95"/>
<path fill-rule="evenodd" clip-rule="evenodd" d="M57.6174 124.112C58.3994 124.112 59.031 124.762 59.031 125.542C59.031 126.322 58.3994 126.971 57.6174 126.971C56.8355 126.971 56.2039 126.322 56.2039 125.542C56.2039 124.762 56.8355 124.112 57.6174 124.112Z" fill="#FF7F85"/>
<path fill-rule="evenodd" clip-rule="evenodd" d="M32.2337 103.584C33.0156 103.584 33.6473 104.234 33.6473 105.013C33.6473 105.793 33.0156 106.443 32.2337 106.443C31.4517 106.443 30.8201 105.793 30.8201 105.013C30.8201 104.234 31.4517 103.584 32.2337 103.584Z" fill="#074E95"/>
<path fill-rule="evenodd" clip-rule="evenodd" d="M84.2049 122.001C84.9868 122.001 85.6184 122.651 85.6184 123.431C85.6184 124.21 84.9868 124.86 84.2049 124.86C83.4229 124.86 82.7913 124.21 82.7913 123.431C82.7913 122.651 83.4229 122.001 84.2049 122.001Z" fill="#FF7F85"/>
<path fill-rule="evenodd" clip-rule="evenodd" d="M56.9265 133.5C58.5506 133.5 59.874 134.832 59.874 136.489C59.874 138.146 58.5506 139.478 56.9265 139.478C55.3024 139.478 53.979 138.146 53.979 136.489C53.979 134.832 55.3024 133.5 56.9265 133.5Z" fill="#FF7F85"/>
<path fill-rule="evenodd" clip-rule="evenodd" d="M49.9487 49.3383C77.1379 49.3383 99.1839 71.491 99.1839 98.841C99.1839 126.191 77.1379 148.344 49.9487 148.344V49.3383Z" fill="#D9F1F2"/>
<path d="M67.9946 3.052H49.9487V61.7147H67.9946V3.052Z" fill="#D9F1F2"/>
<path fill-rule="evenodd" clip-rule="evenodd" d="M86.9127 70.1272C93.0182 78.0529 96.6575 88.0249 96.6575 98.8414C96.6575 124.795 75.7543 145.811 49.9487 145.811V68.7955C64.0546 69.7375 78.3409 71.3291 86.9127 70.1272Z" fill="#00B2CC"/>
<path d="M67.9946 3.052H49.9487V10.1352H67.9946V3.052Z" fill="#C6E8EA"/>
<path fill-rule="evenodd" clip-rule="evenodd" d="M49.9485 0.193176H67.1823C69.1072 0.193176 70.6712 1.88274 70.6712 3.9622C70.6712 6.04166 69.1072 7.73122 67.1823 7.73122H49.9485V0.193176Z" fill="#D9F1F2"/>
<path fill-rule="evenodd" clip-rule="evenodd" d="M79.5149 73.7976C81.4398 73.7976 83.0038 75.3572 83.0038 77.3067C83.0038 79.2562 81.4398 80.8158 79.5149 80.8158C77.59 80.8158 76.0261 79.2562 76.0261 77.3067C75.996 75.3572 77.59 73.7976 79.5149 73.7976Z" fill="#00D6F7"/>
<path fill-rule="evenodd" clip-rule="evenodd" d="M62.3098 76.0071C63.0918 76.0071 63.7234 76.6569 63.7234 77.4367C63.7234 78.2165 63.0918 78.8663 62.3098 78.8663C61.5278 78.8663 60.8962 78.2165 60.8962 77.4367C60.8962 76.6569 61.5278 76.0071 62.3098 76.0071Z" fill="#00D6F7"/>
<path fill-rule="evenodd" clip-rule="evenodd" d="M70.4613 108.131C72.9877 108.131 75.063 110.211 75.063 112.745C75.063 115.312 72.9877 117.359 70.4613 117.359C67.9048 117.359 65.8596 115.28 65.8596 112.745C65.8596 110.211 67.9048 108.131 70.4613 108.131Z" fill="#00D6F7"/>
<path fill-rule="evenodd" clip-rule="evenodd" d="M80.295 99.8157C82.2198 99.8157 83.7838 101.375 83.7838 103.325C83.7838 105.274 82.2198 106.834 80.295 106.834C78.3701 106.834 76.8061 105.274 76.8061 103.325C76.776 101.408 78.3701 99.8157 80.295 99.8157Z" fill="#00D6F7"/>
<path fill-rule="evenodd" clip-rule="evenodd" d="M71.3035 100.043C72.0855 100.043 72.7171 100.693 72.7171 101.473C72.7171 102.253 72.0855 102.902 71.3035 102.902C70.5215 102.902 69.8899 102.253 69.8899 101.473C69.8899 100.693 70.5215 100.043 71.3035 100.043Z" fill="#00D6F7"/>
<path fill-rule="evenodd" clip-rule="evenodd" d="M57.6175 124.112C58.3994 124.112 59.031 124.762 59.031 125.542C59.031 126.322 58.3994 126.971 57.6175 126.971C56.8355 126.971 56.2039 126.322 56.2039 125.542C56.2039 124.73 56.8355 124.112 57.6175 124.112Z" fill="#00D6F7"/>
<path fill-rule="evenodd" clip-rule="evenodd" d="M84.2049 122.001C84.9868 122.001 85.6184 122.651 85.6184 123.43C85.6184 124.21 84.9868 124.86 84.2049 124.86C83.4229 124.86 82.7913 124.21 82.7913 123.43C82.7913 122.651 83.4229 122.001 84.2049 122.001Z" fill="#00D6F7"/>
<path fill-rule="evenodd" clip-rule="evenodd" d="M56.9267 133.5C58.5509 133.5 59.8742 134.832 59.8742 136.489C59.8742 138.146 58.5509 139.478 56.9267 139.478C55.3026 139.478 53.9792 138.146 53.9792 136.489C53.9792 134.832 55.3026 133.5 56.9267 133.5Z" fill="#00D6F7"/>
<path fill-rule="evenodd" clip-rule="evenodd" d="M49.9487 49.3383C77.1379 49.3383 99.1839 71.491 99.1839 98.841C99.1839 126.191 77.1379 148.344 49.9487 148.344V145.843L65.1373 120.831L49.9487 69.0549V49.3383Z" fill="#C6E8EA"/>
<path d="M67.9946 3.052H49.9487V61.7147H67.9946V3.052Z" fill="#C6E8EA"/>
<path fill-rule="evenodd" clip-rule="evenodd" d="M86.9127 70.1272C93.0182 78.0529 96.6575 88.0249 96.6575 98.8414C96.6575 124.795 75.7543 145.811 49.9487 145.811V68.7955C64.0546 69.7375 78.3409 71.3291 86.9127 70.1272Z" fill="#074E95"/>
<path d="M67.9946 3.052H49.9487V10.1352H67.9946V3.052Z" fill="#B4D4D6"/>
<path fill-rule="evenodd" clip-rule="evenodd" d="M49.9485 0.193176H67.1823C69.1072 0.193176 70.6712 1.88274 70.6712 3.9622C70.6712 6.04166 69.1072 7.73122 67.1823 7.73122H49.9485V0.193176Z" fill="#C6E8EA"/>
<path fill-rule="evenodd" clip-rule="evenodd" d="M79.5149 73.7976C81.4398 73.7976 83.0038 75.3572 83.0038 77.3067C83.0038 79.2562 81.4398 80.8158 79.5149 80.8158C77.59 80.8158 76.0261 79.2562 76.0261 77.3067C75.996 75.3572 77.59 73.7976 79.5149 73.7976Z" fill="#0080FF"/>
<path fill-rule="evenodd" clip-rule="evenodd" d="M62.3098 76.0071C63.0918 76.0071 63.7234 76.6569 63.7234 77.4367C63.7234 78.2165 63.0918 78.8663 62.3098 78.8663C61.5278 78.8663 60.8962 78.2165 60.8962 77.4367C60.8962 76.6569 61.5278 76.0071 62.3098 76.0071Z" fill="#0080FF"/>
<path fill-rule="evenodd" clip-rule="evenodd" d="M70.4613 108.131C72.9877 108.131 75.063 110.211 75.063 112.745C75.063 115.312 72.9877 117.359 70.4613 117.359C67.9048 117.359 65.8596 115.28 65.8596 112.745C65.8596 110.211 67.9048 108.131 70.4613 108.131Z" fill="#0080FF"/>
<path fill-rule="evenodd" clip-rule="evenodd" d="M80.295 99.8157C82.2198 99.8157 83.7838 101.375 83.7838 103.325C83.7838 105.274 82.2198 106.834 80.295 106.834C78.3701 106.834 76.8061 105.274 76.8061 103.325C76.776 101.408 78.3701 99.8157 80.295 99.8157Z" fill="#0080FF"/>
<path fill-rule="evenodd" clip-rule="evenodd" d="M71.3035 100.043C72.0855 100.043 72.7171 100.693 72.7171 101.473C72.7171 102.253 72.0855 102.902 71.3035 102.902C70.5215 102.902 69.8899 102.253 69.8899 101.473C69.8899 100.693 70.5215 100.043 71.3035 100.043Z" fill="#0080FF"/>
<path fill-rule="evenodd" clip-rule="evenodd" d="M57.6175 124.112C58.3994 124.112 59.031 124.762 59.031 125.542C59.031 126.322 58.3994 126.971 57.6175 126.971C56.8355 126.971 56.2039 126.322 56.2039 125.542C56.2039 124.73 56.8355 124.112 57.6175 124.112Z" fill="#0080FF"/>
<path fill-rule="evenodd" clip-rule="evenodd" d="M84.2049 122.001C84.9868 122.001 85.6184 122.651 85.6184 123.43C85.6184 124.21 84.9868 124.86 84.2049 124.86C83.4229 124.86 82.7913 124.21 82.7913 123.43C82.7913 122.651 83.4229 122.001 84.2049 122.001Z" fill="#0080FF"/>
<path fill-rule="evenodd" clip-rule="evenodd" d="M56.9267 133.5C58.5509 133.5 59.8742 134.832 59.8742 136.489C59.8742 138.146 58.5509 139.478 56.9267 139.478C55.3026 139.478 53.9792 138.146 53.9792 136.489C53.9792 134.832 55.3026 133.5 56.9267 133.5Z" fill="#0080FF"/>
</svg>
