<svg width="236" height="251" viewBox="0 0 236 251" fill="none" xmlns="http://www.w3.org/2000/svg">
<g clip-path="url(#clip0_920_7280)">
<g clip-path="url(#clip1_920_7280)">
<path d="M157.454 82.033C157.454 80.3114 157.454 78.8766 157.454 77.4419C157.48 75.642 157.715 75.4072 159.489 75.4072C163.611 75.4072 167.733 75.4072 172.012 75.4072C171.516 74.4159 170.681 73.8681 170.029 73.1899C166.664 69.7205 163.22 66.3554 159.802 62.9381C159.541 62.6773 159.254 62.4164 158.941 62.1817C157.324 60.8252 156.619 59.2339 156.828 57.0166C157.063 54.5124 156.88 51.9821 156.906 49.4517C156.985 44.6258 159.802 40.5043 164.159 38.8348C168.594 37.1392 173.029 38.287 176.499 41.8607C181.169 46.6345 185.944 51.3038 190.666 56.0515C196.797 62.2077 202.928 68.364 209.059 74.4942C214.642 80.0766 220.251 85.659 225.834 91.2413C229.33 94.7369 232.826 98.2324 236.348 101.728C236.791 102.145 237.026 102.589 236.948 103.215C236.922 103.397 236.948 103.554 236.948 103.736C236.948 140.805 236.974 177.873 236.974 214.967C236.974 227.149 236.948 239.305 236.974 251.487C236.974 252.609 236.765 253 235.513 253C191.083 252.974 146.653 252.974 102.249 252.974C101.441 252.974 100.893 252.765 100.319 252.191C87.6917 239.514 75.0385 226.836 62.3592 214.184C53.1236 204.95 43.888 195.663 34.5481 186.507C32.1218 184.107 31 181.525 31 178.003C31.0783 134.414 31.0522 90.824 31.0522 47.2344C31.0522 46.1388 30.9217 45.0693 31.0783 43.9737C31.6522 40.426 34.3133 38.1044 37.9397 38.1044C50.2799 38.1044 62.6201 38.1304 74.9863 38.1044C86.8047 38.1044 98.6231 38.0783 110.441 38C112.503 37.9739 114.016 38.6261 115.477 40.113C125.051 49.7648 134.73 59.3383 144.357 68.9379C148.453 73.0073 152.523 77.1289 156.593 81.2244C156.802 81.433 157.011 81.6156 157.454 82.033Z" fill="#8DC8E4"/>
</g>
<path d="M114.049 39C113.65 38.5589 113.16 38.2098 112.613 37.9768C112.065 37.7437 111.474 37.6322 110.879 37.65C99.6892 37.65 88.4592 37.65 77.2692 37.65H37.9992C36.8404 37.5837 35.6834 37.81 34.6349 38.308C33.5864 38.806 32.6801 39.5598 31.9992 40.5C31.1024 41.8836 30.6941 43.5275 30.8392 45.17V179.09C30.8718 180.742 31.521 182.322 32.6592 183.52C33.7299 184.695 35.1756 185.462 36.7492 185.69H136.089C136.926 185.631 137.742 185.407 138.491 185.029C139.239 184.651 139.905 184.128 140.449 183.49C141.672 181.986 142.327 180.099 142.299 178.16V166.62C142.299 134.32 142.299 102.033 142.299 69.76C142.344 68.9989 142.226 68.2371 141.953 67.5251C141.681 66.8131 141.26 66.1671 140.719 65.63C131.799 56.79 122.909 47.9133 114.049 39ZM45.9992 65.47C46.2991 63.892 47.16 62.4758 48.4228 61.4832C49.6856 60.4906 51.2651 59.9886 52.8692 60.07C60.3592 60.07 67.8693 60.07 75.3693 60.07C82.6992 60.07 89.9992 60.07 97.3692 60.07C102.769 60.07 105.939 64.16 104.699 69.45C103.889 72.84 101.309 74.81 97.4792 74.85C88.2992 74.85 79.1092 74.85 69.9292 74.85H53.5392C47.9992 74.81 44.8092 70.91 45.9992 65.47ZM124.999 138.91C115.079 148.87 105.149 158.803 95.2092 168.71C94.5373 169.369 93.7393 169.886 92.863 170.23C91.9867 170.573 91.0501 170.737 90.1092 170.71C88.9756 170.741 87.854 170.471 86.8582 169.928C85.8625 169.386 85.0279 168.589 84.4393 167.62C81.4393 162.92 78.2992 158.21 75.2892 153.46C74.7092 152.57 74.4392 152.46 73.6692 153.27C68.8492 158.17 63.9893 163.07 59.0792 167.86C58.175 168.805 57.0333 169.489 55.7738 169.84C54.5143 170.192 53.1834 170.198 51.9206 169.859C50.6578 169.519 49.5095 168.847 48.5962 167.911C47.6828 166.975 47.038 165.811 46.7292 164.54C46.3707 163.378 46.3397 162.139 46.6396 160.961C46.9395 159.782 47.5588 158.709 48.4292 157.86C55.9592 150.26 63.4292 142.69 71.0892 135.21C71.8442 134.483 72.755 133.937 73.7525 133.615C74.75 133.293 75.8078 133.203 76.8454 133.352C77.883 133.5 78.8731 133.883 79.7402 134.472C80.6073 135.061 81.3286 135.84 81.8492 136.75C84.7892 141.38 87.8492 145.94 90.7692 150.53C91.3492 151.45 91.6193 151.53 92.4692 150.72C99.7193 143.39 107.019 136.13 114.269 128.84C116.389 126.72 118.899 125.84 121.759 126.84C123.105 127.252 124.305 128.042 125.214 129.116C126.124 130.191 126.705 131.504 126.889 132.9C127.122 133.98 127.071 135.101 126.739 136.155C126.408 137.209 125.808 138.158 124.999 138.91ZM126.739 99.39C126.37 100.725 125.593 101.911 124.518 102.784C123.442 103.657 122.122 104.173 120.739 104.26C118.929 104.37 117.079 104.33 115.259 104.33H53.5692C49.6792 104.33 47.2493 102.83 46.1593 99.78C44.2292 94.38 47.5492 89.55 53.2692 89.55C75.2692 89.51 97.3026 89.51 119.369 89.55C124.999 89.59 128.289 94.07 126.709 99.39H126.739Z" fill="#D9F1F2"/>
<path d="M173 177C175.617 167.95 177.451 158.693 178.48 149.33C178.48 149.02 178.36 148.64 178.79 148.48V74.8096C171.96 74.8096 165.12 74.8896 158.29 74.8096C156.75 74.8096 156.56 75.2796 156.56 76.6296C156.6 96.7696 156.6 116.926 156.56 137.1C156.449 143.203 156.823 149.306 157.68 155.35C158.95 163.23 160.34 171.06 162.89 178.66C163.77 181.29 164.78 183.87 166.94 185.76H168.37C171.09 183.41 172 180.17 173 177Z" fill="#074E95"/>
<path d="M166.88 60.0001C170.2 60.0001 173.52 60.0001 176.88 60.0001C177.88 60.0001 178.15 59.6901 178.11 58.6901C178.03 56.8701 178.11 55.0201 178.11 53.2101C178.243 50.9545 178.166 48.6914 177.88 46.4501C177.346 43.8081 175.85 41.4582 173.684 39.8549C171.517 38.2515 168.833 37.5087 166.15 37.7701C163.45 38.0544 160.941 39.2973 159.078 41.2734C157.216 43.2494 156.124 45.8276 156 48.5401C155.92 52.0101 156 55.4401 155.92 58.9201C155.92 59.9201 156.31 60.0001 157.12 59.9201L166.88 60.0001Z" fill="#074E95"/>
</g>
<defs>
<clipPath id="clip0_920_7280">
<rect width="236" height="251" fill="white"/>
</clipPath>
<clipPath id="clip1_920_7280">
<rect width="206" height="215" fill="white" transform="translate(31 38)"/>
</clipPath>
</defs>
</svg>
