<svg width="32" height="32" viewBox="0 0 32 32" fill="none" xmlns="http://www.w3.org/2000/svg">
<path fill-rule="evenodd" clip-rule="evenodd" d="M16.2665 6.22303C15.7754 6.13958 15.106 6.13326 13.8983 6.13326C11.8539 6.13326 10.4007 6.13494 9.29891 6.2824C8.21956 6.42685 7.59937 6.69782 7.14857 7.14862C6.69714 7.60004 6.42656 8.21833 6.28228 9.29149C6.1349 10.3877 6.1332 11.8326 6.1332 13.8666V18.1333C6.1332 20.1672 6.1349 21.6122 6.28228 22.7084C6.42656 23.7815 6.69714 24.3998 7.14857 24.8512C7.59999 25.3027 8.21828 25.5732 9.29144 25.7175C10.3876 25.8649 11.8326 25.8666 13.8665 25.8666H18.1332C20.1671 25.8666 21.6121 25.8649 22.7083 25.7175C23.7815 25.5732 24.3998 25.3027 24.8512 24.8512C25.3026 24.3998 25.5732 23.7815 25.7175 22.7084C25.8648 21.6122 25.8665 20.1672 25.8665 18.1333V17.667C25.8665 16.0286 25.855 15.2519 25.6811 14.6666H22.3426C21.1343 14.6666 20.1468 14.6666 19.3672 14.5618C18.5523 14.4523 17.8458 14.2152 17.2819 13.6512C16.718 13.0873 16.4809 12.3808 16.3713 11.5659C16.2665 10.7863 16.2665 9.79888 16.2665 8.59052V6.22303ZM17.8665 7.05V8.53326C17.8665 9.81295 17.8682 10.6922 17.957 11.3527C18.0427 11.9902 18.1962 12.3027 18.4133 12.5199C18.6304 12.737 18.943 12.8904 19.5804 12.9761C20.2409 13.0649 21.1202 13.0666 22.3999 13.0666H24.554C24.2378 12.7599 23.8326 12.3924 23.3065 11.9189L19.0838 8.11845C18.5661 7.65249 18.1808 7.30853 17.8665 7.05ZM14.0537 4.53323C15.5306 4.53283 16.4848 4.53258 17.363 4.86958C18.2412 5.20658 18.9472 5.84237 20.0396 6.82606C20.0774 6.86002 20.1155 6.89439 20.1542 6.92918L24.3769 10.7296C24.4218 10.7701 24.4662 10.81 24.5101 10.8495C25.7727 11.9851 26.5891 12.7194 27.0283 13.7055C27.4674 14.6915 27.4671 15.7896 27.4666 17.4878C27.4666 17.5468 27.4665 17.6065 27.4665 17.667V18.1934C27.4666 20.1537 27.4666 21.7064 27.3032 22.9215C27.1351 24.1721 26.7808 25.1843 25.9825 25.9826C25.1843 26.7809 24.1721 27.1351 22.9215 27.3032C21.7063 27.4666 20.1537 27.4666 18.1934 27.4666H13.8064C11.8461 27.4666 10.2934 27.4666 9.07825 27.3032C7.82766 27.1351 6.81545 26.7809 6.0172 25.9826C5.21894 25.1843 4.86468 24.1721 4.69655 22.9215C4.53317 21.7064 4.53319 20.1537 4.5332 18.1934V13.8064C4.53319 11.8461 4.53317 10.2935 4.69655 9.0783C4.86468 7.82772 5.21894 6.8155 6.0172 6.01725C6.81607 5.21837 7.83168 4.8645 9.08667 4.69654C10.3069 4.53323 11.8673 4.53324 13.8383 4.53326L13.8983 4.53326C13.9507 4.53326 14.0025 4.53324 14.0537 4.53323Z" fill="#156578"/>
<path d="M8.88549 17.4189C7.94182 18.3626 7.94182 19.8926 8.88549 20.8363L9.7969 21.7477L9.97311 21.7138C9.973 21.7138 9.97313 21.7138 9.97346 21.7137L9.97839 21.7126C9.9835 21.7115 9.99225 21.7095 10.0044 21.7064C10.0288 21.7003 10.0668 21.6899 10.1167 21.674C10.2167 21.642 10.3645 21.5877 10.5468 21.4999C10.9109 21.3244 11.4135 21.0147 11.9473 20.4809C12.4811 19.9471 12.7908 19.4445 12.9664 19.0803C13.0542 18.898 13.1086 18.7502 13.1405 18.6502C13.1565 18.6002 13.1668 18.5622 13.173 18.5378C13.176 18.5257 13.1781 18.5169 13.1792 18.5118L13.1803 18.5069C13.1803 18.5066 13.1803 18.5064 13.1803 18.5065L13.2143 18.3304L12.3029 17.4189C11.3592 16.4753 9.82917 16.4753 8.88549 17.4189Z" fill="#156578"/>
<path d="M13.6599 18.776C13.6564 18.7876 13.6526 18.7998 13.6485 18.8125C13.6096 18.9343 13.5463 19.1055 13.4468 19.3118C13.2477 19.7249 12.9044 20.278 12.3244 20.858C11.7444 21.4381 11.1913 21.7813 10.7783 21.9804C10.572 22.0798 10.4008 22.1431 10.279 22.182C10.2663 22.1861 10.2542 22.1898 10.2426 22.1934L11.1637 23.1145C12.1074 24.0582 13.6374 24.0582 14.5811 23.1145C15.5248 22.1709 15.5248 20.6409 14.5811 19.6972L13.6599 18.776Z" fill="#156578"/>
</svg>
