<svg width="29" height="28" viewBox="0 0 29 28" fill="none" xmlns="http://www.w3.org/2000/svg">
<path d="M20.6344 23.3333H7.80111C7.18227 23.3333 6.58878 23.0875 6.15119 22.6499C5.71361 22.2123 5.46777 21.6188 5.46777 21V8.16663C5.46777 7.54779 5.71361 6.95429 6.15119 6.51671C6.58878 6.07912 7.18227 5.83329 7.80111 5.83329H12.4678V8.16663H7.80111V21H20.6344V16.3333H22.9678V21C22.9678 21.6188 22.7219 22.2123 22.2844 22.6499C21.8468 23.0875 21.2533 23.3333 20.6344 23.3333ZM14.4511 15.9915L12.8061 14.3418L20.1479 6.99996H15.9678V4.66663H24.1344V12.8333H21.8011V8.65079L14.4511 15.9915Z" fill="white"/>
</svg>
