<svg width="32" height="32" viewBox="0 0 32 32" fill="none" xmlns="http://www.w3.org/2000/svg">
<path fill-rule="evenodd" clip-rule="evenodd" d="M6.31839 14.0876C6.19689 14.7063 6.1332 15.3457 6.1332 16C6.1332 16.2415 6.14188 16.481 6.15894 16.7182C6.18137 16.7364 6.20496 16.7555 6.22967 16.7752C6.46449 16.963 6.79554 17.2127 7.18054 17.4611C7.98856 17.9823 8.88711 18.4 9.59987 18.4C10.0645 18.4 10.6279 18.2201 11.219 17.9224C11.5782 17.7416 11.9215 17.5307 12.2246 17.3252C12.079 16.9104 11.9999 16.4645 11.9999 16C11.9999 13.7909 13.7907 12 15.9999 12C18.209 12 19.9999 13.7909 19.9999 16C19.9999 16.8224 19.7517 17.5869 19.3261 18.2225C19.5637 18.3356 19.8092 18.4 20.0589 18.4C20.5527 18.4 20.786 18.1662 21.2498 17.6171C21.261 17.6038 21.2723 17.5904 21.2838 17.5768C21.6693 17.1195 22.2323 16.4517 23.2317 16.2987C23.0947 16.2569 22.9674 16.1778 22.8658 16.0624C22.5738 15.7309 22.6058 15.2254 22.9374 14.9333L24.7274 13.357C24.9347 13.1744 25.21 13.1185 25.4587 13.1833C25.2121 12.354 24.8594 11.5704 24.4164 10.8482L24.0322 11.2323C23.7198 11.5448 23.2133 11.5448 22.9008 11.2323C22.5884 10.9199 22.5884 10.4134 22.9008 10.101L23.4597 9.54209C21.6506 7.45408 18.9795 6.13333 15.9999 6.13333C14.1118 6.13333 12.3476 6.66365 10.8481 7.58348L11.2322 7.96764C11.5446 8.28006 11.5446 8.78659 11.2322 9.09901C10.9198 9.41143 10.4133 9.41143 10.1009 9.09901L9.54196 8.54012C8.46968 9.4692 7.59974 10.6256 7.00711 11.9344C7.44506 11.914 7.81852 12.2503 7.84296 12.689L7.92686 14.1952C7.95144 14.6363 7.61374 15.0139 7.1726 15.0384C6.73146 15.063 6.35392 14.7253 6.32934 14.2842L6.31839 14.0876ZM25.7645 14.5756L23.9949 16.1341C23.9297 16.1915 23.8578 16.2364 23.7821 16.2689C24.5883 16.2997 25.2727 16.6391 25.8118 17.0451C25.848 16.7017 25.8665 16.353 25.8665 16C25.8665 15.5163 25.8317 15.0407 25.7645 14.5756ZM25.4406 18.8767C24.9698 18.345 24.3405 17.8667 23.6631 17.8667C23.1692 17.8667 22.9359 18.1005 22.4721 18.6496C22.4609 18.6628 22.4496 18.6762 22.4381 18.6899C22.0003 19.2092 21.3337 20 20.0589 20C19.3045 20 18.6558 19.7259 18.1368 19.3819C17.5186 19.7734 16.7857 20 15.9999 20C14.8311 20 13.7795 19.4987 13.0481 18.6995C12.7169 18.9207 12.34 19.1494 11.9386 19.3515C11.2546 19.6959 10.428 20 9.59987 20C8.5198 20 7.41691 19.4798 6.59101 18.9794C7.85426 22.9724 11.5891 25.8667 15.9999 25.8667C20.4484 25.8667 24.2093 22.9227 25.4406 18.8767ZM4.5332 16C4.5332 9.66713 9.667 4.53333 15.9999 4.53333C22.3327 4.53333 27.4665 9.66713 27.4665 16C27.4665 22.3329 22.3327 27.4667 15.9999 27.4667C9.667 27.4667 4.5332 22.3329 4.5332 16ZM14.3675 6.90097C14.6799 6.58855 15.1865 6.58855 15.4989 6.90097L16.5656 7.96764C16.878 8.28006 16.878 8.78659 16.5656 9.09901C16.2531 9.41143 15.7466 9.41143 15.4342 9.09901L14.3675 8.03234C14.0551 7.71992 14.0551 7.21339 14.3675 6.90097ZM20.7465 7.89333C21.1 8.15842 21.1716 8.65986 20.9065 9.01332L19.3065 11.1467C19.0414 11.5001 18.54 11.5718 18.1865 11.3067C17.8331 11.0416 17.7614 10.5401 18.0265 10.1867L19.6265 8.05332C19.8916 7.69986 20.3931 7.62823 20.7465 7.89333ZM15.1726 10.4596C15.287 10.8864 15.0337 11.325 14.6069 11.4394L13.1498 11.8298C12.7231 11.9442 12.2844 11.6909 12.17 11.2641C12.0557 10.8374 12.3089 10.3987 12.7357 10.2843L14.1928 9.89392C14.6196 9.77956 15.0583 10.0328 15.1726 10.4596ZM9.48985 10.8519C9.89207 10.669 10.3664 10.8469 10.5492 11.2491L11.1734 12.6224C11.3563 13.0246 11.1784 13.4989 10.7762 13.6817C10.374 13.8646 9.89969 13.6867 9.71686 13.2845L9.09262 11.9112C8.90978 11.509 9.08763 11.0347 9.48985 10.8519ZM20.9222 11.9758C21.3635 11.9551 21.7381 12.296 21.7588 12.7374L21.8296 14.2442C21.8504 14.6855 21.5094 15.0601 21.0681 15.0809C20.6267 15.1016 20.2522 14.7607 20.2314 14.3193L20.1606 12.8125C20.1399 12.3711 20.4808 11.9966 20.9222 11.9758ZM15.9999 13.6C14.6744 13.6 13.5999 14.6745 13.5999 16C13.5999 17.3255 14.6744 18.4 15.9999 18.4C17.3254 18.4 18.3999 17.3255 18.3999 16C18.3999 14.6745 17.3254 13.6 15.9999 13.6ZM10.6058 14.8213C10.9624 15.0822 11.0399 15.5828 10.7789 15.9393L9.888 17.1566C9.62706 17.5132 9.12649 17.5906 8.76995 17.3297C8.41341 17.0688 8.33591 16.5682 8.59686 16.2117L9.48777 14.9944C9.74872 14.6378 10.2493 14.5603 10.6058 14.8213Z" fill="#219EBC"/>
<path fill-rule="evenodd" clip-rule="evenodd" d="M6.31839 14.0876C6.19689 14.7063 6.1332 15.3457 6.1332 16C6.1332 16.2415 6.14188 16.481 6.15894 16.7182C6.18137 16.7364 6.20496 16.7555 6.22967 16.7752C6.46449 16.963 6.79554 17.2127 7.18054 17.4611C7.98856 17.9823 8.88711 18.4 9.59987 18.4C10.0645 18.4 10.6279 18.2201 11.219 17.9224C11.5782 17.7416 11.9215 17.5307 12.2246 17.3252C12.079 16.9104 11.9999 16.4645 11.9999 16C11.9999 13.7909 13.7907 12 15.9999 12C18.209 12 19.9999 13.7909 19.9999 16C19.9999 16.8224 19.7517 17.5869 19.3261 18.2225C19.5637 18.3356 19.8092 18.4 20.0589 18.4C20.5527 18.4 20.786 18.1662 21.2498 17.6171C21.261 17.6038 21.2723 17.5904 21.2838 17.5768C21.6693 17.1195 22.2323 16.4517 23.2317 16.2987C23.0947 16.2569 22.9674 16.1778 22.8658 16.0624C22.5738 15.7309 22.6058 15.2254 22.9374 14.9333L24.7274 13.357C24.9347 13.1744 25.21 13.1185 25.4587 13.1833C25.2121 12.354 24.8594 11.5704 24.4164 10.8482L24.0322 11.2323C23.7198 11.5448 23.2133 11.5448 22.9008 11.2323C22.5884 10.9199 22.5884 10.4134 22.9008 10.101L23.4597 9.54209C21.6506 7.45408 18.9795 6.13333 15.9999 6.13333C14.1118 6.13333 12.3476 6.66365 10.8481 7.58348L11.2322 7.96764C11.5446 8.28006 11.5446 8.78659 11.2322 9.09901C10.9198 9.41143 10.4133 9.41143 10.1009 9.09901L9.54196 8.54012C8.46968 9.4692 7.59974 10.6256 7.00711 11.9344C7.44506 11.914 7.81852 12.2503 7.84296 12.689L7.92686 14.1952C7.95144 14.6363 7.61374 15.0139 7.1726 15.0384C6.73146 15.063 6.35392 14.7253 6.32934 14.2842L6.31839 14.0876ZM25.7645 14.5756L23.9949 16.1341C23.9297 16.1915 23.8578 16.2364 23.7821 16.2689C24.5883 16.2997 25.2727 16.6391 25.8118 17.0451C25.848 16.7017 25.8665 16.353 25.8665 16C25.8665 15.5163 25.8317 15.0407 25.7645 14.5756ZM25.4406 18.8767C24.9698 18.345 24.3405 17.8667 23.6631 17.8667C23.1692 17.8667 22.9359 18.1005 22.4721 18.6496C22.4609 18.6628 22.4496 18.6762 22.4381 18.6899C22.0003 19.2092 21.3337 20 20.0589 20C19.3045 20 18.6558 19.7259 18.1368 19.3819C17.5186 19.7734 16.7857 20 15.9999 20C14.8311 20 13.7795 19.4987 13.0481 18.6995C12.7169 18.9207 12.34 19.1494 11.9386 19.3515C11.2546 19.6959 10.428 20 9.59987 20C8.5198 20 7.41691 19.4798 6.59101 18.9794C7.85426 22.9724 11.5891 25.8667 15.9999 25.8667C20.4484 25.8667 24.2093 22.9227 25.4406 18.8767ZM4.5332 16C4.5332 9.66713 9.667 4.53333 15.9999 4.53333C22.3327 4.53333 27.4665 9.66713 27.4665 16C27.4665 22.3329 22.3327 27.4667 15.9999 27.4667C9.667 27.4667 4.5332 22.3329 4.5332 16ZM14.3675 6.90097C14.6799 6.58855 15.1865 6.58855 15.4989 6.90097L16.5656 7.96764C16.878 8.28006 16.878 8.78659 16.5656 9.09901C16.2531 9.41143 15.7466 9.41143 15.4342 9.09901L14.3675 8.03234C14.0551 7.71992 14.0551 7.21339 14.3675 6.90097ZM20.7465 7.89333C21.1 8.15842 21.1716 8.65986 20.9065 9.01332L19.3065 11.1467C19.0414 11.5001 18.54 11.5718 18.1865 11.3067C17.8331 11.0416 17.7614 10.5401 18.0265 10.1867L19.6265 8.05332C19.8916 7.69986 20.3931 7.62823 20.7465 7.89333ZM15.1726 10.4596C15.287 10.8864 15.0337 11.325 14.6069 11.4394L13.1498 11.8298C12.7231 11.9442 12.2844 11.6909 12.17 11.2641C12.0557 10.8374 12.3089 10.3987 12.7357 10.2843L14.1928 9.89392C14.6196 9.77956 15.0583 10.0328 15.1726 10.4596ZM9.48985 10.8519C9.89207 10.669 10.3664 10.8469 10.5492 11.2491L11.1734 12.6224C11.3563 13.0246 11.1784 13.4989 10.7762 13.6817C10.374 13.8646 9.89969 13.6867 9.71686 13.2845L9.09262 11.9112C8.90978 11.509 9.08763 11.0347 9.48985 10.8519ZM20.9222 11.9758C21.3635 11.9551 21.7381 12.296 21.7588 12.7374L21.8296 14.2442C21.8504 14.6855 21.5094 15.0601 21.0681 15.0809C20.6267 15.1016 20.2522 14.7607 20.2314 14.3193L20.1606 12.8125C20.1399 12.3711 20.4808 11.9966 20.9222 11.9758ZM15.9999 13.6C14.6744 13.6 13.5999 14.6745 13.5999 16C13.5999 17.3255 14.6744 18.4 15.9999 18.4C17.3254 18.4 18.3999 17.3255 18.3999 16C18.3999 14.6745 17.3254 13.6 15.9999 13.6ZM10.6058 14.8213C10.9624 15.0822 11.0399 15.5828 10.7789 15.9393L9.888 17.1566C9.62706 17.5132 9.12649 17.5906 8.76995 17.3297C8.41341 17.0688 8.33591 16.5682 8.59686 16.2117L9.48777 14.9944C9.74872 14.6378 10.2493 14.5603 10.6058 14.8213Z" fill="black" fill-opacity="0.2"/>
<path fill-rule="evenodd" clip-rule="evenodd" d="M6.31839 14.0876C6.19689 14.7063 6.1332 15.3457 6.1332 16C6.1332 16.2415 6.14188 16.481 6.15894 16.7182C6.18137 16.7364 6.20496 16.7555 6.22967 16.7752C6.46449 16.963 6.79554 17.2127 7.18054 17.4611C7.98856 17.9823 8.88711 18.4 9.59987 18.4C10.0645 18.4 10.6279 18.2201 11.219 17.9224C11.5782 17.7416 11.9215 17.5307 12.2246 17.3252C12.079 16.9104 11.9999 16.4645 11.9999 16C11.9999 13.7909 13.7907 12 15.9999 12C18.209 12 19.9999 13.7909 19.9999 16C19.9999 16.8224 19.7517 17.5869 19.3261 18.2225C19.5637 18.3356 19.8092 18.4 20.0589 18.4C20.5527 18.4 20.786 18.1662 21.2498 17.6171C21.261 17.6038 21.2723 17.5904 21.2838 17.5768C21.6693 17.1195 22.2323 16.4517 23.2317 16.2987C23.0947 16.2569 22.9674 16.1778 22.8658 16.0624C22.5738 15.7309 22.6058 15.2254 22.9374 14.9333L24.7274 13.357C24.9347 13.1744 25.21 13.1185 25.4587 13.1833C25.2121 12.354 24.8594 11.5704 24.4164 10.8482L24.0322 11.2323C23.7198 11.5448 23.2133 11.5448 22.9008 11.2323C22.5884 10.9199 22.5884 10.4134 22.9008 10.101L23.4597 9.54209C21.6506 7.45408 18.9795 6.13333 15.9999 6.13333C14.1118 6.13333 12.3476 6.66365 10.8481 7.58348L11.2322 7.96764C11.5446 8.28006 11.5446 8.78659 11.2322 9.09901C10.9198 9.41143 10.4133 9.41143 10.1009 9.09901L9.54196 8.54012C8.46968 9.4692 7.59974 10.6256 7.00711 11.9344C7.44506 11.914 7.81852 12.2503 7.84296 12.689L7.92686 14.1952C7.95144 14.6363 7.61374 15.0139 7.1726 15.0384C6.73146 15.063 6.35392 14.7253 6.32934 14.2842L6.31839 14.0876ZM25.7645 14.5756L23.9949 16.1341C23.9297 16.1915 23.8578 16.2364 23.7821 16.2689C24.5883 16.2997 25.2727 16.6391 25.8118 17.0451C25.848 16.7017 25.8665 16.353 25.8665 16C25.8665 15.5163 25.8317 15.0407 25.7645 14.5756ZM25.4406 18.8767C24.9698 18.345 24.3405 17.8667 23.6631 17.8667C23.1692 17.8667 22.9359 18.1005 22.4721 18.6496C22.4609 18.6628 22.4496 18.6762 22.4381 18.6899C22.0003 19.2092 21.3337 20 20.0589 20C19.3045 20 18.6558 19.7259 18.1368 19.3819C17.5186 19.7734 16.7857 20 15.9999 20C14.8311 20 13.7795 19.4987 13.0481 18.6995C12.7169 18.9207 12.34 19.1494 11.9386 19.3515C11.2546 19.6959 10.428 20 9.59987 20C8.5198 20 7.41691 19.4798 6.59101 18.9794C7.85426 22.9724 11.5891 25.8667 15.9999 25.8667C20.4484 25.8667 24.2093 22.9227 25.4406 18.8767ZM4.5332 16C4.5332 9.66713 9.667 4.53333 15.9999 4.53333C22.3327 4.53333 27.4665 9.66713 27.4665 16C27.4665 22.3329 22.3327 27.4667 15.9999 27.4667C9.667 27.4667 4.5332 22.3329 4.5332 16ZM14.3675 6.90097C14.6799 6.58855 15.1865 6.58855 15.4989 6.90097L16.5656 7.96764C16.878 8.28006 16.878 8.78659 16.5656 9.09901C16.2531 9.41143 15.7466 9.41143 15.4342 9.09901L14.3675 8.03234C14.0551 7.71992 14.0551 7.21339 14.3675 6.90097ZM20.7465 7.89333C21.1 8.15842 21.1716 8.65986 20.9065 9.01332L19.3065 11.1467C19.0414 11.5001 18.54 11.5718 18.1865 11.3067C17.8331 11.0416 17.7614 10.5401 18.0265 10.1867L19.6265 8.05332C19.8916 7.69986 20.3931 7.62823 20.7465 7.89333ZM15.1726 10.4596C15.287 10.8864 15.0337 11.325 14.6069 11.4394L13.1498 11.8298C12.7231 11.9442 12.2844 11.6909 12.17 11.2641C12.0557 10.8374 12.3089 10.3987 12.7357 10.2843L14.1928 9.89392C14.6196 9.77956 15.0583 10.0328 15.1726 10.4596ZM9.48985 10.8519C9.89207 10.669 10.3664 10.8469 10.5492 11.2491L11.1734 12.6224C11.3563 13.0246 11.1784 13.4989 10.7762 13.6817C10.374 13.8646 9.89969 13.6867 9.71686 13.2845L9.09262 11.9112C8.90978 11.509 9.08763 11.0347 9.48985 10.8519ZM20.9222 11.9758C21.3635 11.9551 21.7381 12.296 21.7588 12.7374L21.8296 14.2442C21.8504 14.6855 21.5094 15.0601 21.0681 15.0809C20.6267 15.1016 20.2522 14.7607 20.2314 14.3193L20.1606 12.8125C20.1399 12.3711 20.4808 11.9966 20.9222 11.9758ZM15.9999 13.6C14.6744 13.6 13.5999 14.6745 13.5999 16C13.5999 17.3255 14.6744 18.4 15.9999 18.4C17.3254 18.4 18.3999 17.3255 18.3999 16C18.3999 14.6745 17.3254 13.6 15.9999 13.6ZM10.6058 14.8213C10.9624 15.0822 11.0399 15.5828 10.7789 15.9393L9.888 17.1566C9.62706 17.5132 9.12649 17.5906 8.76995 17.3297C8.41341 17.0688 8.33591 16.5682 8.59686 16.2117L9.48777 14.9944C9.74872 14.6378 10.2493 14.5603 10.6058 14.8213Z" fill="black" fill-opacity="0.2"/>
</svg>
