<svg width="190" height="223" viewBox="0 0 190 223" fill="none" xmlns="http://www.w3.org/2000/svg">
<path fill-rule="evenodd" clip-rule="evenodd" d="M3.16194 132.113C9.92207 119.253 -1.27521 118.71 4.93041 111.832C11.136 104.954 21.293 104.954 27.4986 111.832L29.5756 114.134L29.6009 114.162L31.7032 116.493L31.7285 116.521L31.7539 116.549L42.9531 50.9911C42.9531 44.7586 37.8113 40.061 42.9531 38.3766L45.9325 34.4181L41.0187 29.1683C40.3602 28.4664 36.9754 30.2351 36.9754 29.1683L36.222 21.1298C36.2473 19.0523 37.7924 17.3398 39.6668 17.3398L98.6431 17.3397C100.137 17.3397 101.404 18.4065 101.86 19.8945L189.583 91.9138V222.458L92.9779 221.448L3.16194 132.113Z" fill="#8ECAE6"/>
<path fill-rule="evenodd" clip-rule="evenodd" d="M44.2964 28.8549H92.3962C94.2706 28.8549 95.8157 30.4611 95.8157 32.4095V54.2375C95.8157 56.186 94.2706 57.7921 92.3962 57.7921H44.2964C42.422 57.7921 40.877 56.186 40.877 54.2375V32.4095C40.877 30.4611 42.422 28.8549 44.2964 28.8549Z" fill="#C6E8EA"/>
<path fill-rule="evenodd" clip-rule="evenodd" d="M44.423 50.6827H92.2695C99.1084 50.6827 104.731 56.5018 104.731 63.6373V149.949C104.731 157.058 99.1337 162.903 92.2695 162.903H44.423C37.5841 162.903 31.9611 157.084 31.9611 149.949V63.6373C31.9611 56.5281 37.5588 50.6827 44.423 50.6827Z" fill="#D9F1F2"/>
<path fill-rule="evenodd" clip-rule="evenodd" d="M38.3187 17.1904H98.3739C100.248 17.1904 101.793 18.7966 101.793 20.745V42.573C101.793 44.5215 100.248 46.1276 98.3739 46.1276H38.3187C36.4444 46.1276 34.8993 44.5215 34.8993 42.573V20.745C34.8993 18.7966 36.4444 17.1904 38.3187 17.1904Z" fill="#D9F1F2"/>
<path d="M104.731 75.3541H31.9611V132.886H104.731V75.3541Z" fill="#0080FF"/>
<path fill-rule="evenodd" clip-rule="evenodd" d="M67.1684 17.1904H69.6507C69.8787 17.1904 70.056 17.3747 70.056 17.6117V45.7063C70.056 45.9433 69.8787 46.1276 69.6507 46.1276H67.1684C66.9405 46.1276 66.7632 45.9433 66.7632 45.7063V17.6117C66.7632 17.3747 66.9405 17.1904 67.1684 17.1904Z" fill="#C6E8EA"/>
<path fill-rule="evenodd" clip-rule="evenodd" d="M55.821 17.1904H58.3033C58.5312 17.1904 58.7085 17.3747 58.7085 17.6117V45.7063C58.7085 45.9433 58.5312 46.1276 58.3033 46.1276H55.821C55.5931 46.1276 55.4158 45.9433 55.4158 45.7063V17.6117C55.4158 17.3747 55.5931 17.1904 55.821 17.1904Z" fill="#C6E8EA"/>
<path fill-rule="evenodd" clip-rule="evenodd" d="M44.0936 17.1904H46.5759C46.8038 17.1904 46.9811 17.3747 46.9811 17.6117V45.7063C46.9811 45.9433 46.8038 46.1276 46.5759 46.1276H44.0936C43.8657 46.1276 43.6884 45.9433 43.6884 45.7063V17.6117C43.6884 17.3747 43.8657 17.1904 44.0936 17.1904Z" fill="#C6E8EA"/>
<path fill-rule="evenodd" clip-rule="evenodd" d="M90.1167 17.1904H92.5989C92.8269 17.1904 93.0042 17.3747 93.0042 17.6117V45.7063C93.0042 45.9433 92.8269 46.1276 92.5989 46.1276H90.1167C89.8887 46.1276 89.7114 45.9433 89.7114 45.7063V17.6117C89.7114 17.3747 89.8887 17.1904 90.1167 17.1904Z" fill="#C6E8EA"/>
<path fill-rule="evenodd" clip-rule="evenodd" d="M78.3893 17.1904H80.8715C81.0995 17.1904 81.2768 17.3747 81.2768 17.6117V45.7063C81.2768 45.9433 81.0995 46.1276 80.8715 46.1276H78.3893C78.1613 46.1276 77.984 45.9433 77.984 45.7063V17.6117C77.984 17.3747 78.1866 17.1904 78.3893 17.1904Z" fill="#C6E8EA"/>
<path fill-rule="evenodd" clip-rule="evenodd" d="M68.3586 28.8549H92.4212C94.2956 28.8549 95.8407 30.4611 95.8407 32.4095V54.2375C95.8407 56.186 94.2956 57.7921 92.4212 57.7921H68.3586V28.8549Z" fill="#B4D4D6"/>
<path fill-rule="evenodd" clip-rule="evenodd" d="M68.3586 50.6827H92.2946C99.1334 50.6827 104.756 56.5018 104.756 63.6373V149.949C104.756 157.058 99.1588 162.903 92.2946 162.903H68.3586V50.6827Z" fill="#C6E8EA"/>
<path fill-rule="evenodd" clip-rule="evenodd" d="M68.3586 17.1904H98.3989C100.273 17.1904 101.818 18.7966 101.818 20.745V42.573C101.818 44.5215 100.273 46.1276 98.3989 46.1276H68.3586V17.1904Z" fill="#C6E8EA"/>
<path d="M104.731 75.3541H68.3586V132.886H104.731V75.3541Z" fill="#074E95"/>
<path fill-rule="evenodd" clip-rule="evenodd" d="M68.3586 17.1904H69.6504C69.8784 17.1904 70.0557 17.3747 70.0557 17.6117V45.7063C70.0557 45.9433 69.8784 46.1276 69.6504 46.1276H68.3586V17.1904Z" fill="#B4D4D6"/>
<path fill-rule="evenodd" clip-rule="evenodd" d="M90.1166 17.1904H92.5988C92.8268 17.1904 93.0041 17.3747 93.0041 17.6117V45.7063C93.0041 45.9433 92.8268 46.1276 92.5988 46.1276H90.1166C89.8886 46.1276 89.7113 45.9433 89.7113 45.7063V17.6117C89.7113 17.3747 89.8886 17.1904 90.1166 17.1904Z" fill="#B4D4D6"/>
<path fill-rule="evenodd" clip-rule="evenodd" d="M78.3892 17.1904H80.8714C81.0994 17.1904 81.2767 17.3747 81.2767 17.6117V45.7063C81.2767 45.9433 81.0994 46.1276 80.8714 46.1276H78.3892C78.1612 46.1276 77.9839 45.9433 77.9839 45.7063V17.6117C77.9839 17.3747 78.1865 17.1904 78.3892 17.1904Z" fill="#B4D4D6"/>
<path fill-rule="evenodd" clip-rule="evenodd" d="M30.8465 160.507L5.11222 133.755C-1.0934 127.304 -1.0934 116.746 5.11222 110.295C11.3178 103.844 21.4748 103.844 27.6804 110.295L53.4147 137.047C59.6203 143.498 59.6203 154.056 53.4147 160.507C47.2091 166.958 37.0522 166.958 30.8465 160.507Z" fill="#D9F1F2"/>
<path fill-rule="evenodd" clip-rule="evenodd" d="M5.11206 110.295C11.3177 103.844 21.4746 103.844 27.6802 110.295L53.4146 137.046C59.6202 143.497 59.6202 154.056 53.4146 160.507L5.11206 110.295Z" fill="#C6E8EA"/>
<path fill-rule="evenodd" clip-rule="evenodd" d="M17.9794 147.131L5.11222 133.755C-1.0934 127.304 -1.0934 116.746 5.11222 110.295C11.3178 103.844 21.4748 103.844 27.6804 110.295L40.5476 123.671L17.9794 147.131Z" fill="#0080FF"/>
<path fill-rule="evenodd" clip-rule="evenodd" d="M5.11206 110.295C11.3177 103.844 21.4746 103.844 27.6802 110.295L40.5474 123.671L29.2506 135.414L5.11206 110.295Z" fill="#074E95"/>
</svg>
