<svg width="27" height="27" viewBox="0 0 27 27" fill="none" xmlns="http://www.w3.org/2000/svg">
<g clip-path="url(#clip0_384_2915)">
<path d="M26.8579 24.5121L20.0741 17.7283C21.8363 15.5731 22.7027 12.8231 22.4941 10.047C22.2855 7.2709 21.0179 4.68119 18.9535 2.81352C16.889 0.94584 14.1857 -0.0569135 11.4027 0.012671C8.61967 0.0822555 5.96985 1.21885 4.00133 3.18737C2.03282 5.15588 0.89622 7.8057 0.826636 10.5887C0.757051 13.3718 1.7598 16.0751 3.62748 18.1395C5.49516 20.2039 8.08487 21.4715 10.8609 21.6801C13.637 21.8887 16.3871 21.0223 18.5422 19.2601L25.3261 26.044L26.8579 24.5121ZM11.6912 19.544C9.97715 19.544 8.30153 19.0357 6.87631 18.0834C5.45108 17.1311 4.34025 15.7775 3.68429 14.1939C3.02834 12.6102 2.85671 10.8677 3.19111 9.1865C3.52552 7.50534 4.35094 5.96108 5.56299 4.74903C6.77505 3.53697 8.3193 2.71155 10.0005 2.37715C11.6816 2.04274 13.4242 2.21437 15.0078 2.87033C16.5915 3.52629 17.945 4.63712 18.8973 6.06234C19.8496 7.48757 20.3579 9.16318 20.3579 10.8773C20.3553 13.175 19.4414 15.3779 17.8167 17.0027C16.1919 18.6275 13.989 19.5414 11.6912 19.544Z" fill="black"/>
</g>
<defs>
<clipPath id="clip0_384_2915">
<rect width="26" height="26" fill="white" transform="translate(0.858398 0.0432129)"/>
</clipPath>
</defs>
</svg>
