<svg width="236" height="253" viewBox="0 0 236 253" fill="none" xmlns="http://www.w3.org/2000/svg">
<g clip-path="url(#clip0_920_5847)">
<g clip-path="url(#clip1_920_5847)">
<path d="M48.3761 108.054C44.4954 104.282 40.6422 100.51 36.7615 96.7656C33.5138 93.6543 32 89.8546 32.0275 85.3391C32.0826 71.5173 32.0826 57.7229 32 43.9011C32 42.5244 32.4679 41.6708 33.4312 40.8724C34.3945 40.1014 34.9725 38.8624 36.5688 39.0001C37.7248 39.1102 38.578 39.4957 39.3486 40.2941C42.3761 43.3504 45.4037 46.4066 48.4587 49.4628C48.6789 49.6831 48.8716 49.9584 49.3945 49.986C49.3945 48.389 49.3945 46.8196 49.3945 45.2227C49.3945 43.9011 49.5046 42.5519 50.1376 41.3404C51.5138 38.6972 54.6789 38.2291 56.7706 40.3768C59.7706 43.4054 62.7982 46.4066 65.7982 49.4353C66.0183 49.6556 66.2661 49.8483 66.7615 50.2613C66.7615 48.9948 66.7339 48.0036 66.7615 47.0399C66.789 45.7183 66.789 44.3691 66.9817 43.0475C67.2294 41.2303 68.1651 39.771 69.8991 39.1928C71.5505 38.6421 72.9541 39.3305 74.1651 40.6246C77.3303 43.9286 80.633 47.1225 83.8532 50.399C84.4587 51.0323 85.0092 51.0598 85.7798 50.8395C93.844 48.4441 102.046 47.2877 110.468 47.8659C121.064 48.6093 130.752 51.9959 139.89 57.2824C143.248 59.2373 145.587 62.2109 148.312 64.7991C149.468 65.8729 149.385 65.9279 150.101 64.4962C154.229 56.181 160.119 49.2976 167.468 43.6808C169.147 42.3867 170.798 41.1202 172.56 39.9087C174.596 38.5045 176.798 38.945 178.339 40.5695C181.367 43.7634 184.532 46.8196 187.642 49.9309C198.927 61.2197 210.211 72.5085 221.495 83.7973C226.092 88.3954 230.688 93.021 235.312 97.6191C235.78 98.0872 236.028 98.5277 235.972 99.1885C235.945 99.5189 235.972 99.8218 235.972 100.152C235.972 150.071 235.972 199.989 235.972 249.88C235.972 252.275 236.22 251.973 233.963 251.973C195.018 251.973 156.101 251.973 117.156 252C115.917 252 115.037 251.642 114.156 250.761C104 240.491 93.789 230.276 83.578 220.061C71.8532 208.332 60.1009 196.575 48.3211 184.901C45.9817 182.588 44.9358 179.917 44.9358 176.668C44.9633 154.641 44.9633 132.614 44.9633 110.615C44.9633 108.55 44.9633 108.55 46.9725 108.55C47.3303 108.55 47.6881 108.55 48.0459 108.55C48.1835 108.357 48.2661 108.22 48.3761 108.054Z" fill="#8DC9E5"/>
</g>
<path d="M175.62 38.7099C178.12 39.8699 178.84 41.8599 178.84 44.5399C178.8 88.7066 178.8 132.887 178.84 177.08C178.84 180.59 177.76 183.52 174.68 185.44C173.487 186.18 172.132 186.617 170.731 186.713C169.331 186.808 167.928 186.56 166.646 185.989C165.364 185.418 164.241 184.541 163.375 183.436C162.51 182.332 161.928 181.032 161.68 179.65C161.53 178.751 161.47 177.84 161.5 176.93V134.5C160.96 134.5 160.5 134.43 160.02 134.43H148.86C145.93 134.43 144.12 132.69 144.12 129.76C144.12 115.46 143.98 101.16 144.19 86.8199C144.41 70.9999 150.82 57.7499 162.44 46.9999C164.97 44.6399 167.8 42.6099 170.55 40.4799C171.541 39.8056 172.569 39.188 173.63 38.6299C174.28 38.7099 175 38.7099 175.62 38.7099Z" fill="#074E95"/>
<path d="M71.0005 38.7104C73.5005 39.8704 74.2205 41.8604 74.2205 44.5404C74.1505 58.2604 74.2205 72.0204 74.2205 85.7404C74.2205 91.3504 71.9005 95.7404 66.7605 98.2604C64.7898 99.1425 62.6595 99.6122 60.5005 99.6404C55.2105 99.8204 49.8905 99.7104 44.6005 99.7104C37.5105 99.7104 32.3705 95.4004 31.0305 88.3804C30.9702 88.1954 30.8967 88.0149 30.8105 87.8404V41.8404C31.9005 40.8404 32.9805 39.7404 34.0305 38.6904H36.3505C38.8505 39.8504 39.6105 41.8404 39.5705 44.5204C39.4605 53.6004 39.5705 62.7304 39.5705 71.8104V73.3004H48.2605V71.6904C48.2605 62.6904 48.3405 53.5904 48.2605 44.5404C48.2605 41.8604 48.9805 39.8704 51.4805 38.7104H53.8005C56.2905 39.8704 57.0505 41.8604 57.0205 44.5404C56.9105 53.6204 57.0205 62.7504 57.0205 71.8304V73.3204H65.7105V71.6904C65.7105 62.6904 65.7805 53.5904 65.7105 44.5404C65.7105 41.8604 66.4405 39.8704 68.9405 38.7104H71.0005Z" fill="#0080FF"/>
<path d="M135.43 110.14C135.43 116.51 135.36 122.85 135.43 129.22C135.605 131.08 135.882 132.93 136.26 134.76C136.356 135.227 136.281 135.713 136.05 136.13C132.089 141.398 126.86 145.581 120.851 148.291C114.842 151 108.245 152.148 101.674 151.628C95.1023 151.109 88.7685 148.938 83.2595 145.318C77.7505 141.698 73.2449 136.745 70.1603 130.92C69.9075 130.414 69.7806 129.855 69.7903 129.29C69.7903 122.12 69.7903 114.92 69.7903 107.75C69.7618 107.38 69.8521 107.011 70.0482 106.696C70.2443 106.381 70.5358 106.137 70.8803 106C78.6703 101.77 82.5003 95.0696 82.8803 86.3096C82.9503 84.5696 82.8103 82.8296 82.8803 81.0996C82.9044 80.7922 82.9946 80.4937 83.1448 80.2245C83.2949 79.9552 83.5015 79.7216 83.7503 79.5396C90.2935 75.3929 97.9233 73.2887 105.667 73.4953C113.411 73.7019 120.918 76.2099 127.23 80.6996C129.822 82.7545 132.274 84.9794 134.57 87.3596C135.106 87.9442 135.405 88.7068 135.41 89.4996C135.47 96.3396 135.43 103.22 135.43 110.14Z" fill="#D9F1F2"/>
<path d="M152.78 143.48C152.78 147.61 152.78 151.95 152.78 156.33C152.723 156.751 152.517 157.138 152.2 157.42C141.41 168.61 128.34 175.52 112.88 177.48C98.2383 179.425 83.3747 176.245 70.81 168.48C70.5591 168.307 70.3487 168.081 70.1933 167.819C70.0379 167.556 69.9413 167.263 69.91 166.96C69.84 160.08 69.91 153.17 69.91 146.29C69.9234 146.072 69.9501 145.855 69.99 145.64C71.99 147.34 73.82 149.08 75.85 150.64C85.2811 157.941 97.1352 161.384 109.01 160.27C122.48 159.11 133.52 153.14 142.18 142.78C142.379 142.502 142.665 142.298 142.993 142.2C143.32 142.102 143.671 142.116 143.99 142.24C146.73 142.72 149.63 143.05 152.78 143.48Z" fill="#D9F1F2"/>
<path d="M61.1408 108.47V177.26C61.1408 182.11 58.5408 185.59 54.2608 186.49C53.0929 186.75 51.8834 186.762 50.7106 186.526C49.5378 186.289 48.4277 185.809 47.4522 185.116C46.4766 184.423 45.6574 183.533 45.0473 182.504C44.4373 181.475 44.0501 180.329 43.9108 179.14C43.8381 178.516 43.8014 177.889 43.8008 177.26V108.44C49.6308 108.47 55.3108 108.47 61.1408 108.47Z" fill="#0080FF"/>
<path d="M82.9004 69.8799V51.0899C103.94 44.2766 123.66 46.8699 142.06 58.8699C140.06 64.8699 138.18 70.5999 136.27 76.4299C128.993 70.2322 120.056 66.3076 110.569 65.1432C101.081 63.9788 91.4604 65.6258 82.9004 69.8799Z" fill="#D9F1F2"/>
</g>
<defs>
<clipPath id="clip0_920_5847">
<rect width="235.61" height="252.41" fill="white"/>
</clipPath>
<clipPath id="clip1_920_5847">
<rect width="204" height="213" fill="white" transform="translate(32 39)"/>
</clipPath>
</defs>
</svg>
