<svg width="656" height="269" viewBox="0 0 656 269" fill="none" xmlns="http://www.w3.org/2000/svg">
<g clip-path="url(#clip0_920_7906)">
<path d="M647.68 105.82L638.68 80.69C644.48 84.84 656.46 79.08 649.77 69.15C662.14 59.98 653.69 38.59 638.49 40.15C639.64 32.82 630.84 27.05 624.58 31.22C624.361 29.9118 623.775 28.6927 622.889 27.7048C622.004 26.7169 620.857 26.0008 619.58 25.64C628.88 10.44 604 6.52005 604.5 19.86C603.506 19.7202 602.504 19.6467 601.5 19.64H587.91C584.212 19.6436 580.575 20.5893 577.344 22.3879C574.112 24.1865 571.392 26.7787 569.44 29.92C567.479 26.8022 564.758 24.2334 561.533 22.4546C558.308 20.6757 554.683 19.7451 551 19.75H538.44C534.234 19.749 530.118 20.9669 526.59 23.2563C523.062 25.5457 520.273 28.8086 518.56 32.65L513.36 44.33L508.11 32.62C506.395 28.7865 503.608 25.5313 500.084 23.2475C496.559 20.9637 492.449 19.749 488.25 19.75H475.57C469.95 19.7425 464.546 21.919 460.5 25.82C459.98 25.53 459.5 25.23 458.93 24.96C451.529 21.3809 443.389 19.596 435.17 19.75H410.43C406.766 19.7484 403.161 20.6725 399.949 22.4364C396.738 24.2004 394.024 26.747 392.06 29.84C390.104 26.7195 387.388 24.1466 384.167 22.3625C380.945 20.5785 377.323 19.6417 373.64 19.64H360C356.301 19.6427 352.665 20.5879 349.433 22.3866C346.201 24.1853 343.481 26.7781 341.53 29.92C339.568 26.8049 336.849 24.238 333.626 22.4595C330.403 20.6809 326.781 19.7487 323.1 19.75H311.39C308.162 19.7475 304.974 20.4642 302.057 21.848C299.141 23.2318 296.57 25.248 294.53 27.75C292.492 25.2482 289.923 23.2321 287.008 21.8482C284.093 20.4643 280.907 19.7476 277.68 19.75H265.93C260.976 19.7405 256.168 21.4313 252.31 24.54C245.097 21.2477 237.238 19.6111 229.31 19.75H204.61C201.788 19.7449 198.992 20.2919 196.38 21.36C195.09 19.09 191.67 17.77 189.73 20.36C186.843 17.5554 183.398 15.3887 179.62 14L146.09 1.75005C138.965 -0.866033 131.092 -0.544688 124.204 2.6434C117.316 5.83148 111.977 11.6252 109.36 18.75L108.28 21.75C105.846 28.4501 106 35.8171 108.71 42.41L108.47 43.03L97.28 73.55C79.74 73.82 63.62 77.76 49.33 85.27C41.8652 89.1884 34.9769 94.1183 28.86 99.92L28.63 100.15C22.6126 105.941 17.4085 112.521 13.16 119.71C4.43 134.46 0 151.66 0 170.86C0 187.94 3.59 203.66 10.67 217.6L10.79 217.83C12 220.09 13.31 222.34 14.7 224.5C18.0591 229.899 21.981 234.927 26.4 239.5L26.45 239.56C27.2306 240.523 28.0653 241.441 28.95 242.31L29.12 242.47C35.0907 248.107 41.7986 252.907 49.06 256.74C63.84 264.52 80.62 268.47 98.94 268.47C117.26 268.47 134.04 264.53 148.89 256.77C152.922 254.563 156.724 251.961 160.24 249L160.33 248.93L162.05 247.57C162.3 247.38 162.54 247.19 162.77 246.99C167.706 242.848 172.249 238.259 176.34 233.28C177.89 238.72 184.83 242.11 190.03 238.66C190.243 239.97 190.827 241.191 191.713 242.178C192.6 243.166 193.751 243.878 195.03 244.23C185.03 260.73 215.03 263.96 209.45 246.39C216.046 248.356 222.897 249.333 229.78 249.29C239.513 249.454 249.145 247.297 257.88 243C264.362 239.777 270.078 235.201 274.64 229.58C278.832 233.672 283.538 237.202 288.64 240.08C299.472 246.148 311.705 249.271 324.12 249.14C339.3 249.14 352.91 245.14 364.55 237.22C369.18 234.077 373.379 230.342 377.04 226.11C382.103 231.745 388.063 236.502 394.68 240.19C406.861 247.04 420.77 250.203 434.715 249.294C448.661 248.385 462.041 243.443 473.23 235.07C474.899 238.995 477.685 242.343 481.24 244.699C484.796 247.054 488.965 248.313 493.23 248.32H512.43C515.289 248.321 518.121 247.759 520.763 246.666C523.404 245.572 525.805 243.968 527.827 241.947C529.848 239.925 531.452 237.524 532.546 234.883C533.639 232.241 534.201 229.409 534.2 226.55V211.39C541.318 210.98 548.312 209.339 554.87 206.54V226.54C554.869 229.399 555.431 232.231 556.524 234.873C557.618 237.514 559.222 239.915 561.243 241.937C563.265 243.958 565.666 245.562 568.307 246.656C570.949 247.749 573.781 248.311 576.64 248.31H599.76C599.39 250.48 600.5 252.79 604.05 252.73C604.42 260.48 615.75 262.94 619.34 256.13C620.003 256.687 620.809 257.048 621.666 257.173C622.523 257.297 623.397 257.181 624.192 256.836C624.986 256.491 625.669 255.932 626.163 255.221C626.657 254.51 626.944 253.675 626.99 252.81C627.598 253.087 628.271 253.184 628.932 253.09C629.593 252.996 630.214 252.715 630.72 252.28C634.37 260.4 642.97 251.18 637.53 247.65C642.227 246.469 646.397 243.756 649.38 239.941C652.362 236.125 653.988 231.423 654 226.58V210.94C654.005 208.056 653.433 205.2 652.318 202.54C651.204 199.88 649.569 197.47 647.51 195.45C649.074 192.388 649.887 188.998 649.88 185.56V170.34C649.889 167.237 649.235 164.169 647.96 161.34C651.816 157.299 653.965 151.926 653.96 146.34V130.69C653.964 125.444 652.067 120.374 648.62 116.42C649.187 112.863 648.864 109.222 647.68 105.82ZM648.49 51.74C648.349 51.44 648.328 51.0976 648.432 50.7827C648.535 50.4679 648.755 50.2044 649.046 50.0461C649.337 49.8877 649.678 49.8466 649.998 49.9309C650.318 50.0153 650.595 50.2189 650.77 50.5C655.3 58 647.87 68 648 61.44C648.934 60.0116 649.471 58.3607 649.557 56.6563C649.644 54.9519 649.275 53.2553 648.49 51.74ZM182.49 68.9L182.82 68.71V68.9H182.49ZM197.36 254.34C195 253.34 193.61 246.93 197.36 247.46C199.01 248.59 196.48 250.91 198.81 252.18C199.065 252.382 199.235 252.673 199.286 252.994C199.337 253.316 199.266 253.645 199.086 253.916C198.907 254.188 198.632 254.382 198.316 254.46C198 254.539 197.666 254.496 197.38 254.34H197.36ZM366.76 121.42C366.764 121.45 366.764 121.48 366.76 121.51V121.42ZM611.65 258.42C607.28 258.19 605.12 252.42 607.84 254.21C608.182 254.999 608.727 255.684 609.418 256.195C610.11 256.706 610.925 257.025 611.78 257.12C611.942 257.148 612.087 257.237 612.186 257.368C612.285 257.499 612.331 257.662 612.315 257.825C612.298 257.989 612.22 258.14 612.097 258.248C611.974 258.357 611.814 258.415 611.65 258.41V258.42ZM617.26 22.48C615.6 21.35 618.13 19.03 615.81 17.76C615.525 17.5704 615.327 17.2753 615.259 16.9396C615.192 16.6039 615.26 16.2552 615.45 15.97C615.64 15.6849 615.935 15.4868 616.27 15.4193C616.606 15.3518 616.955 15.4204 617.24 15.61C619.6 16.61 621 23 617.26 22.47V22.48ZM619.87 248.82C619.81 248.66 619.73 248.51 619.66 248.36H620.76C620.445 248.47 620.145 248.621 619.87 248.81V248.82ZM625.13 248.91C624.823 248.682 624.487 248.497 624.13 248.36H625.31C625.234 248.534 625.174 248.715 625.13 248.9V248.91ZM635.94 72.38C635.94 72.54 635.94 72.7 635.89 72.86L635.7 72.33L635.94 72.38ZM635.67 254.16C634.59 254.86 631.52 253.65 632.79 252.24C633.7 251.89 634.11 253.59 635.18 252.96C635.336 252.91 635.505 252.921 635.653 252.99C635.802 253.059 635.919 253.182 635.981 253.333C636.043 253.485 636.045 253.654 635.987 253.807C635.93 253.961 635.816 254.087 635.67 254.16Z" fill="white"/>
<path d="M635.06 24.9202C640.98 19.3902 632.17 10.2302 626.41 15.9202C620.5 21.4502 629.31 30.6102 635.06 24.9202ZM631.46 16.1002C634 16.4702 636.99 22.2902 633.26 22.7402C631.36 22.0802 633.26 19.1802 630.63 18.5502C630.305 18.4401 630.037 18.2055 629.885 17.8979C629.733 17.5904 629.71 17.235 629.82 16.9102C629.93 16.5853 630.165 16.3174 630.472 16.1655C630.78 16.0136 631.135 15.9901 631.46 16.1002Z" fill="white"/>
<path d="M179.56 245C173.64 250.52 182.45 259.69 188.2 254C194.12 248.49 185.31 239.32 179.56 245ZM183.15 253.81C180.62 253.44 177.63 247.62 181.36 247.17C183.26 247.83 181.36 250.73 183.99 251.36C184.318 251.471 184.587 251.708 184.74 252.019C184.893 252.329 184.916 252.687 184.805 253.015C184.694 253.343 184.457 253.612 184.146 253.765C183.836 253.918 183.478 253.941 183.15 253.83V253.81Z" fill="white"/>
<path d="M174.73 47.77C178.73 48.44 179.73 42.11 175.67 41.55C171.61 40.99 170.68 47.21 174.73 47.77ZM175.36 42.94C175.65 43.88 173.92 44.17 174.49 45.28C174.544 45.4445 174.531 45.6238 174.453 45.7785C174.376 45.9332 174.239 46.0507 174.075 46.105C173.911 46.1594 173.731 46.1462 173.577 46.0684C173.422 45.9906 173.304 45.8545 173.25 45.69C172.62 44.56 174 41.58 175.36 42.94Z" fill="white"/>
<path d="M626.77 259C627.43 263 633.77 261.91 632.97 257.9C632.17 253.89 626 255 626.77 259ZM631.47 260C630.61 261 627.33 260.58 628.19 258.89C628.98 258.32 629.81 259.89 630.68 258.97C630.817 258.876 630.985 258.839 631.149 258.865C631.314 258.891 631.461 258.979 631.563 259.111C631.664 259.243 631.711 259.409 631.693 259.574C631.676 259.739 631.596 259.892 631.47 260Z" fill="white"/>
<path d="M131.05 39.2502V39.3702L132.17 39.7802L136.83 41.4902C136.786 41.5541 136.745 41.6209 136.71 41.6902C136.384 42.4437 136.369 43.2955 136.669 44.0599C136.969 44.8242 137.559 45.439 138.31 45.7702C138.497 45.8496 138.691 45.9099 138.89 45.9502C138.57 47.2551 138.675 48.628 139.189 49.8695C139.702 51.111 140.598 52.1566 141.746 52.8544C142.894 53.5522 144.235 53.8659 145.573 53.7501C146.912 53.6342 148.179 53.0948 149.19 52.2102C149.523 52.7755 150.006 53.2379 150.585 53.5467C151.165 53.8555 151.818 53.9986 152.473 53.9604C153.128 53.9221 153.76 53.704 154.299 53.33C154.839 52.9559 155.265 52.4404 155.53 51.8402C155.554 51.7886 155.575 51.7351 155.59 51.6802C155.815 51.8959 156.076 52.0718 156.36 52.2002C156.689 52.3388 157.043 52.4102 157.4 52.4102C157.757 52.4102 158.111 52.3388 158.44 52.2002C158.417 52.6698 158.493 53.139 158.664 53.5773C158.834 54.0155 159.095 54.413 159.429 54.7439C159.763 55.0747 160.163 55.3316 160.603 55.4976C161.043 55.6637 161.513 55.7353 161.982 55.7078C162.451 55.6802 162.91 55.5542 163.327 55.3378C163.745 55.1215 164.112 54.8197 164.405 54.452C164.698 54.0844 164.911 53.6592 165.029 53.204C165.147 52.7488 165.168 52.2739 165.09 51.8102L165.7 52.0402L166.82 52.4502V52.3402C168.87 52.7847 171.011 52.4727 172.849 51.4618C174.687 50.451 176.098 48.8094 176.82 46.8402L177.91 43.8402C178.703 41.6666 178.601 39.2672 177.626 37.1691C176.651 35.0709 174.883 33.4456 172.71 32.6502L139.25 20.4402C137.076 19.6436 134.676 19.7428 132.575 20.7161C130.475 21.6894 128.847 23.4569 128.05 25.6302L126.96 28.6302C126.255 30.5966 126.28 32.751 127.031 34.7005C127.781 36.65 129.208 38.2647 131.05 39.2502ZM143.62 51.6902C143.563 51.8089 143.463 51.9012 143.34 51.9478C143.217 51.9943 143.081 51.9916 142.96 51.9402C142.187 51.5804 141.526 51.0191 141.046 50.3151C140.565 49.6112 140.283 48.7907 140.23 47.9402C140.227 47.8082 140.276 47.6803 140.365 47.5834C140.455 47.4864 140.578 47.4279 140.71 47.4202C140.776 47.4175 140.841 47.4278 140.903 47.4505C140.965 47.4731 141.021 47.5078 141.069 47.5523C141.118 47.5969 141.157 47.6506 141.184 47.7103C141.212 47.77 141.227 47.8345 141.23 47.9002C141.284 48.5602 141.512 49.1942 141.889 49.7384C142.267 50.2826 142.781 50.7178 143.38 51.0002C143.503 51.0605 143.597 51.1668 143.642 51.2959C143.686 51.4251 143.679 51.5667 143.62 51.6902ZM151.31 46.8102L151.61 46.9202C151.517 46.9154 151.423 46.9154 151.33 46.9202C151.326 46.8831 151.319 46.8464 151.31 46.8102ZM161.53 54.8102C161.203 54.8288 160.877 54.767 160.58 54.6302C160.296 54.5168 160.047 54.3319 159.856 54.0936C159.665 53.8553 159.539 53.5716 159.49 53.2702C159.478 53.2051 159.48 53.1385 159.494 53.074C159.509 53.0096 159.536 52.9486 159.574 52.8947C159.612 52.8408 159.661 52.7949 159.717 52.7598C159.772 52.7247 159.835 52.701 159.9 52.6902C160.032 52.6699 160.168 52.7027 160.276 52.7812C160.385 52.8598 160.458 52.978 160.48 53.1102C160.536 53.326 160.668 53.5144 160.852 53.641C161.035 53.7677 161.258 53.8242 161.48 53.8002C161.611 53.797 161.739 53.8438 161.837 53.931C161.936 54.0182 161.997 54.1393 162.01 54.2702C162.013 54.3358 162.002 54.4014 161.98 54.4631C161.957 54.5248 161.922 54.5814 161.878 54.6297C161.833 54.678 161.779 54.717 161.72 54.7446C161.66 54.7721 161.596 54.7876 161.53 54.7902V54.8102ZM155.14 48.3602L155 48.1802L155.22 48.2602C155.191 48.2846 155.164 48.3114 155.14 48.3402V48.3602Z" fill="#023047"/>
<path d="M186.89 149.54C188.961 147.864 190.446 145.573 191.13 142.998C191.814 140.423 191.661 137.697 190.693 135.215C189.726 132.732 187.994 130.622 185.748 129.188C183.503 127.755 180.859 127.072 178.2 127.24C178.353 125.949 178.146 124.641 177.602 123.46C177.059 122.28 176.2 121.272 175.12 120.548C174.041 119.824 172.782 119.412 171.484 119.358C170.185 119.303 168.896 119.609 167.76 120.24C167.66 120.24 167.58 120.35 167.48 120.41C167.391 119.799 167.191 119.209 166.89 118.67C166.549 118.048 166.086 117.501 165.53 117.062C164.973 116.622 164.334 116.298 163.65 116.11C164.339 115.294 164.822 114.325 165.057 113.283C165.292 112.241 165.272 111.158 165.001 110.125C164.729 109.093 164.212 108.141 163.494 107.35C162.777 106.559 161.879 105.953 160.877 105.582C159.876 105.212 158.8 105.088 157.74 105.221C156.681 105.354 155.669 105.741 154.79 106.348C153.911 106.955 153.192 107.764 152.692 108.708C152.193 109.652 151.928 110.702 151.92 111.77L150.86 110.83C149.5 109.75 147.96 108.83 146.59 107.83L163 63.0001L127.16 49.8701L122.67 62.1101C122.118 62.4406 121.682 62.9329 121.42 63.5201C121.343 63.7088 121.28 63.9026 121.23 64.1001C119.927 63.7939 118.561 63.9085 117.327 64.4274C116.093 64.9464 115.056 65.843 114.364 66.9884C113.672 68.1339 113.36 69.4693 113.475 70.8028C113.589 72.1362 114.123 73.3991 115 74.4101C114.432 74.7421 113.967 75.2249 113.657 75.8051C113.346 76.3853 113.203 77.0401 113.242 77.6968C113.282 78.3536 113.502 78.9866 113.88 79.5256C114.257 80.0646 114.776 80.4884 115.38 80.7501L115.53 80.8101C115.21 81.1462 114.984 81.5607 114.875 82.0119C114.766 82.4631 114.778 82.935 114.91 83.3801L114.81 83.6601C114.127 83.6588 113.461 83.8672 112.901 84.2571C112.341 84.647 111.914 85.1996 111.678 85.8401C111.443 86.4807 111.409 87.1781 111.583 87.8381C111.757 88.4981 112.129 89.0888 112.65 89.5301L110.76 94.7101C106.93 94.2601 103.29 93.4401 99.24 93.4401C84.1266 93.4401 70.5933 96.5868 58.64 102.88C52.8002 105.934 47.415 109.788 42.64 114.33L42.56 114.4C37.7945 118.969 33.6793 124.171 30.33 129.86C23.4033 141.547 19.94 155.213 19.94 170.86C19.9007 178.153 20.7537 185.424 22.48 192.51L22.26 192.62C21.5466 193.007 20.9169 193.532 20.4071 194.163C19.8974 194.795 19.5177 195.521 19.29 196.3C19.0622 197.079 18.9909 197.895 19.0802 198.702C19.1694 199.509 19.4174 200.29 19.81 201C20.0071 201.353 20.2346 201.687 20.49 202C18.4185 203.676 16.9336 205.967 16.2499 208.542C15.5662 211.117 15.7191 213.843 16.6865 216.325C17.6539 218.808 19.3857 220.919 21.6316 222.352C23.8774 223.786 26.5209 224.468 29.18 224.3C28.9931 225.774 29.2803 227.27 30 228.57C30.449 229.384 31.0541 230.102 31.7806 230.683C32.5071 231.263 33.3408 231.695 34.2341 231.953C35.1275 232.211 36.0629 232.291 36.987 232.187C37.9111 232.084 38.8058 231.799 39.62 231.35L39.89 231.18C39.9901 231.79 40.193 232.378 40.49 232.92C40.8332 233.539 41.2965 234.084 41.8529 234.522C42.4092 234.96 43.0474 235.282 43.73 235.47C42.9779 236.376 42.4797 237.464 42.2861 238.625C42.0925 239.786 42.2105 240.978 42.6281 242.078C43.0457 243.179 43.7479 244.149 44.6629 244.889C45.578 245.629 46.6731 246.114 47.8365 246.292C48.9999 246.471 50.1899 246.337 51.2848 245.906C52.3798 245.474 53.3406 244.759 54.069 243.835C54.7975 242.91 55.2674 241.809 55.431 240.643C55.5946 239.478 55.4458 238.289 55 237.2C56.1 237.86 57.22 238.5 58.37 239.11C70.33 245.41 83.8633 248.557 98.97 248.55C114.077 248.543 127.657 245.397 139.71 239.11C143.53 237.11 146.65 234.36 149.96 231.8C158.594 224.748 165.603 215.915 170.51 205.905C175.417 195.895 178.104 184.944 178.39 173.8C178.39 172.92 178.53 172.1 178.53 171.22C178.539 166.526 178.124 161.84 177.29 157.22C178.214 158.483 179.585 159.345 181.123 159.631C182.661 159.917 184.25 159.605 185.566 158.759C186.882 157.913 187.825 156.596 188.203 155.078C188.581 153.56 188.366 151.955 187.6 150.59C187.399 150.218 187.161 149.866 186.89 149.54ZM115.26 68.2001C115.623 67.4288 116.185 66.7683 116.888 66.2866C117.591 65.805 118.41 65.5197 119.26 65.4601C119.375 65.4833 119.479 65.5458 119.554 65.637C119.629 65.7281 119.669 65.8423 119.669 65.9601C119.669 66.0779 119.629 66.1921 119.554 66.2833C119.479 66.3744 119.375 66.4369 119.26 66.4601C118.599 66.5116 117.964 66.7378 117.419 67.1156C116.874 67.4934 116.44 68.0092 116.16 68.6101C116.101 68.7227 116.001 68.8084 115.88 68.8498C115.76 68.8912 115.628 68.8852 115.512 68.8329C115.396 68.7806 115.304 68.686 115.256 68.5685C115.207 68.4509 115.205 68.3192 115.25 68.2001H115.26ZM21.84 207.89C21.1239 208.992 20.7133 210.264 20.65 211.576C20.5868 212.889 20.8732 214.195 21.48 215.36C21.5778 215.589 21.5866 215.846 21.5048 216.082C21.4229 216.317 21.2563 216.513 21.0374 216.632C20.8186 216.751 20.5633 216.783 20.3215 216.724C20.0796 216.664 19.8687 216.517 19.73 216.31C18.9499 214.818 18.584 213.145 18.6701 211.463C18.7563 209.782 19.2915 208.154 20.22 206.75C20.3727 206.537 20.6029 206.393 20.8609 206.348C21.119 206.303 21.3843 206.361 21.6 206.51C21.8127 206.663 21.9571 206.893 22.0019 207.151C22.0468 207.409 21.9887 207.674 21.84 207.89ZM46.93 242.89C46.7833 243.109 46.5561 243.262 46.2976 243.314C46.0391 243.367 45.7704 243.315 45.55 243.17C45.0148 242.807 44.5756 242.32 44.27 241.75C43.9617 241.227 43.7924 240.633 43.7784 240.026C43.7644 239.418 43.9061 238.817 44.19 238.28C44.2419 238.149 44.3209 238.03 44.422 237.932C44.5231 237.833 44.6439 237.757 44.7764 237.709C44.9089 237.66 45.0502 237.64 45.191 237.65C45.3317 237.66 45.4688 237.7 45.5931 237.767C45.7174 237.834 45.8262 237.926 45.9123 238.038C45.9984 238.15 46.0598 238.278 46.0926 238.416C46.1253 238.553 46.1287 238.696 46.1024 238.834C46.0761 238.973 46.0207 239.104 45.94 239.22C45.7702 239.625 45.7493 240.078 45.8811 240.497C46.0129 240.916 46.2888 241.275 46.66 241.51C46.7719 241.584 46.8679 241.679 46.9424 241.79C47.0168 241.901 47.0681 242.026 47.0933 242.158C47.1185 242.289 47.117 242.425 47.089 242.556C47.0609 242.687 47.0068 242.81 46.93 242.92V242.89ZM113.41 86.7001C113.415 86.7661 113.407 86.8325 113.387 86.8953C113.366 86.9581 113.332 87.016 113.288 87.0656C113.244 87.1151 113.191 87.1552 113.131 87.1835C113.071 87.2118 113.006 87.2276 112.94 87.2301C112.809 87.2384 112.68 87.1948 112.581 87.1087C112.482 87.0227 112.42 86.901 112.41 86.7701C112.383 86.4279 112.442 86.0843 112.58 85.7701C112.698 85.4866 112.885 85.2372 113.124 85.0449C113.364 84.8527 113.648 84.7238 113.95 84.6701C114.092 84.6542 114.236 84.6936 114.35 84.7801L114.01 85.7001C113.818 85.7831 113.657 85.9242 113.549 86.1036C113.441 86.283 113.393 86.4916 113.41 86.7001ZM160.41 108.57C160.483 108.461 160.578 108.367 160.687 108.295C160.797 108.222 160.92 108.172 161.049 108.147C161.178 108.122 161.311 108.122 161.44 108.149C161.569 108.175 161.691 108.226 161.8 108.3C162.334 108.66 162.773 109.144 163.08 109.71C163.388 110.235 163.557 110.831 163.571 111.44C163.585 112.049 163.444 112.651 163.16 113.19C163.033 113.421 162.82 113.593 162.567 113.668C162.314 113.743 162.042 113.715 161.81 113.59C161.579 113.463 161.407 113.25 161.332 112.997C161.257 112.745 161.285 112.472 161.41 112.24C161.576 111.834 161.595 111.383 161.463 110.965C161.332 110.547 161.058 110.188 160.69 109.95C160.476 109.799 160.329 109.569 160.283 109.311C160.236 109.053 160.292 108.787 160.44 108.57H160.41ZM176.17 152H176.23V152.12L176.17 152ZM185.77 145C185.556 144.846 185.412 144.613 185.369 144.353C185.326 144.092 185.387 143.825 185.54 143.61C186.253 142.507 186.662 141.235 186.723 139.922C186.785 138.61 186.497 137.305 185.89 136.14C185.767 135.905 185.742 135.631 185.82 135.378C185.899 135.125 186.075 134.913 186.31 134.79C186.54 134.672 186.808 134.647 187.056 134.722C187.304 134.796 187.513 134.964 187.64 135.19C188.42 136.682 188.786 138.356 188.7 140.037C188.614 141.718 188.078 143.346 187.15 144.75C186.999 144.964 186.769 145.111 186.511 145.158C186.253 145.204 185.987 145.148 185.77 145Z" fill="#023047"/>
<path d="M168.89 108.55C168.203 109.209 167.727 110.057 167.522 110.987C167.317 111.917 167.393 112.886 167.74 113.773C168.087 114.659 168.689 115.423 169.47 115.968C170.251 116.512 171.176 116.812 172.128 116.83C173.079 116.849 174.015 116.584 174.817 116.07C175.618 115.556 176.249 114.816 176.629 113.943C177.009 113.07 177.122 112.104 176.953 111.167C176.784 110.231 176.341 109.365 175.68 108.68C174.796 107.764 173.584 107.236 172.312 107.212C171.039 107.188 169.809 107.669 168.89 108.55ZM175.36 113.06C175.283 113.3 175.118 113.501 174.899 113.625C174.68 113.748 174.422 113.785 174.177 113.726C173.933 113.668 173.719 113.52 173.578 113.311C173.438 113.103 173.381 112.849 173.42 112.6C173.471 112.17 173.372 111.736 173.138 111.371C172.905 111.006 172.552 110.734 172.14 110.6C172.002 110.571 171.871 110.512 171.757 110.429C171.643 110.345 171.548 110.239 171.478 110.116C171.409 109.993 171.366 109.857 171.352 109.716C171.339 109.575 171.356 109.433 171.401 109.3C171.447 109.166 171.52 109.043 171.617 108.94C171.713 108.837 171.83 108.755 171.96 108.7C172.091 108.645 172.231 108.619 172.372 108.622C172.514 108.626 172.652 108.659 172.78 108.72C173.386 108.925 173.938 109.267 174.39 109.72C174.821 110.15 175.135 110.681 175.305 111.265C175.475 111.849 175.493 112.467 175.36 113.06Z" fill="#023047"/>
<path d="M31.8301 236C31.1431 236.659 30.6671 237.507 30.4624 238.437C30.2577 239.367 30.3335 240.336 30.6801 241.223C31.0268 242.109 31.6288 242.873 32.4099 243.417C33.1909 243.962 34.116 244.262 35.0678 244.28C36.0196 244.298 36.9554 244.034 37.7568 243.52C38.5581 243.006 39.1889 242.266 39.5692 241.393C39.9496 240.52 40.0625 239.554 39.8935 238.617C39.7245 237.681 39.2813 236.815 38.6201 236.13C38.1829 235.675 37.6604 235.311 37.0825 235.059C36.5046 234.806 35.8826 234.67 35.252 234.658C34.6214 234.646 33.9946 234.758 33.4075 234.988C32.8203 235.219 32.2843 235.562 31.8301 236ZM35.8301 242.16C35.7457 242.41 35.5658 242.617 35.3298 242.735C35.0938 242.853 34.8207 242.872 34.5701 242.79C33.9656 242.581 33.4155 242.239 32.9601 241.79C32.5218 241.365 32.1997 240.835 32.0246 240.25C31.8495 239.666 31.8273 239.046 31.9601 238.45C32.0218 238.193 32.1827 237.971 32.4075 237.833C32.6323 237.694 32.9029 237.65 33.1601 237.71C33.4169 237.772 33.6389 237.933 33.7775 238.157C33.9162 238.382 33.9602 238.653 33.9001 238.91C33.8469 239.34 33.9457 239.776 34.1794 240.141C34.4131 240.506 34.7671 240.778 35.1801 240.91C35.3095 240.947 35.4302 241.009 35.5351 241.093C35.6399 241.177 35.7266 241.282 35.7901 241.4C35.8536 241.519 35.8925 241.649 35.9045 241.783C35.9166 241.917 35.9014 242.052 35.8601 242.18L35.8301 242.16Z" fill="#023047"/>
<path d="M110.35 83.8599C110.823 83.9374 111.309 83.8727 111.745 83.6738C112.181 83.4749 112.549 83.151 112.801 82.743C113.052 82.335 113.177 81.8614 113.16 81.3822C113.142 80.9031 112.982 80.44 112.701 80.0518C112.42 79.6635 112.029 79.3676 111.579 79.2015C111.13 79.0355 110.641 79.0068 110.175 79.1191C109.708 79.2314 109.286 79.4796 108.961 79.8323C108.636 80.1849 108.424 80.6261 108.35 81.0999C108.252 81.7308 108.407 82.3748 108.782 82.8918C109.156 83.4087 109.72 83.7567 110.35 83.8599ZM109.13 81.2999C109.168 81.0007 109.279 80.7154 109.453 80.4694C109.628 80.2234 109.86 80.0243 110.13 79.8899C110.252 79.8356 110.391 79.8319 110.515 79.8797C110.64 79.9275 110.741 80.0229 110.795 80.1449C110.849 80.2669 110.853 80.4055 110.805 80.5302C110.757 80.6549 110.662 80.7555 110.54 80.8099C110.347 80.9177 110.199 81.0906 110.122 81.2976C110.045 81.5047 110.044 81.7324 110.12 81.9399C110.162 82.066 110.153 82.2033 110.095 82.3229C110.037 82.4424 109.935 82.5346 109.81 82.5799C109.747 82.6018 109.68 82.6108 109.614 82.6065C109.547 82.6021 109.482 82.5845 109.423 82.5547C109.363 82.5249 109.31 82.4835 109.267 82.4328C109.223 82.3822 109.19 82.3234 109.17 82.2599C109.081 81.9475 109.068 81.6186 109.13 81.2999Z" fill="#023047"/>
<path d="M156.6 54.0899C156.127 54.0124 155.641 54.0772 155.205 54.2761C154.769 54.4749 154.401 54.7989 154.15 55.2069C153.898 55.6149 153.773 56.0885 153.79 56.5676C153.808 57.0468 153.968 57.5099 154.249 57.8981C154.531 58.2864 154.921 58.5823 155.371 58.7483C155.82 58.9144 156.309 58.9431 156.776 58.8308C157.242 58.7185 157.664 58.4703 157.989 58.1176C158.314 57.7649 158.526 57.3237 158.6 56.8499C158.695 56.2195 158.539 55.5768 158.165 55.0605C157.791 54.5442 157.229 54.1956 156.6 54.0899ZM157 57.9999C156.678 58.1049 156.334 58.1289 156 58.0699C155.699 58.0368 155.412 57.9276 155.166 57.7526C154.919 57.5776 154.721 57.3427 154.59 57.0699C154.536 56.9478 154.531 56.8091 154.578 56.6838C154.625 56.5585 154.719 56.4565 154.84 56.3999C154.9 56.3735 154.965 56.3592 155.031 56.3579C155.097 56.3567 155.163 56.3685 155.224 56.3926C155.286 56.4168 155.341 56.4529 155.389 56.4987C155.436 56.5446 155.474 56.5994 155.5 56.6599C155.611 56.8517 155.787 56.9981 155.995 57.0731C156.204 57.1481 156.432 57.147 156.64 57.0699C156.773 57.0275 156.917 57.0395 157.041 57.1033C157.164 57.167 157.258 57.2773 157.3 57.4099C157.343 57.5426 157.331 57.6866 157.267 57.8104C157.203 57.9341 157.093 58.0275 156.96 58.0699L157 57.9999Z" fill="#023047"/>
<path d="M72.06 155.33C80.51 155.33 88.49 151.68 95.84 147.87C100.93 145.23 106.17 142.87 111.41 140.59C111.458 140.576 111.503 140.552 111.541 140.519C111.579 140.486 111.609 140.446 111.63 140.4C111.654 140.325 111.654 140.245 111.63 140.17C109.78 134.67 107.24 129.35 102.7 125.56C97.5796 121.331 91.5035 118.416 85 117.07C77.26 115.68 69 117.82 62.13 121.52C56.0091 124.83 50.995 129.865 47.71 136C46.7297 137.867 45.8452 139.783 45.06 141.74C44.8622 142.097 44.8119 142.517 44.92 142.91C45.0445 143.151 45.2309 143.355 45.46 143.5C48.3877 145.838 51.446 148.009 54.62 150C57.7831 151.96 61.2162 153.446 64.81 154.41C67.1794 155.015 69.6146 155.324 72.06 155.33Z" fill="#00467F"/>
<path d="M42.9201 146.86C38.6487 161.159 39.7675 176.529 46.0647 190.059C52.3618 203.589 63.4005 214.341 77.0914 220.28C90.7823 226.22 106.176 226.934 120.358 222.288C134.54 217.642 146.527 207.959 154.05 195.07C155.382 192.763 156.538 190.36 157.51 187.88C159.01 180.26 162.2 153.28 134.94 143.57C105.3 132.53 83.1201 182 42.9201 146.86Z" fill="#0080FF"/>
<path d="M56.5 165.18C56.8115 165.08 57.1494 165.105 57.4434 165.248C57.7373 165.391 57.9647 165.642 58.0781 165.949C58.1915 166.256 58.1823 166.595 58.0522 166.895C57.9222 167.195 57.6814 167.433 57.38 167.56C57.2219 167.627 57.052 167.661 56.8804 167.66C56.7089 167.659 56.5393 167.623 56.3819 167.555C56.2245 167.487 56.0826 167.387 55.9647 167.263C55.8467 167.138 55.7553 166.991 55.6958 166.83C55.6363 166.669 55.61 166.498 55.6185 166.327C55.627 166.155 55.6702 165.987 55.7453 165.833C55.8205 165.679 55.9261 165.542 56.0558 165.429C56.1855 165.317 56.3366 165.232 56.5 165.18Z" fill="#00467F"/>
<path d="M58.9101 161C59.0237 160.959 59.1443 160.94 59.2651 160.945C59.3859 160.95 59.5045 160.979 59.6141 161.03C59.7237 161.082 59.8221 161.154 59.9038 161.243C59.9855 161.332 60.0488 161.436 60.0901 161.55C60.1329 161.664 60.1526 161.784 60.1481 161.906C60.1435 162.027 60.1148 162.146 60.0635 162.256C60.0123 162.366 59.9396 162.464 59.8497 162.546C59.7598 162.627 59.6545 162.69 59.5401 162.73C59.312 162.814 59.0598 162.805 58.8387 162.704C58.6175 162.602 58.4455 162.418 58.3601 162.19C58.2761 161.959 58.2867 161.705 58.3898 161.482C58.4928 161.259 58.6799 161.086 58.9101 161Z" fill="#00467F"/>
<path d="M59.5299 164.82C59.6904 164.762 59.8675 164.769 60.0229 164.84C60.1782 164.911 60.2993 165.04 60.3599 165.2C60.4029 165.319 60.4098 165.447 60.3799 165.57C60.35 165.692 60.2846 165.803 60.1918 165.889C60.0991 165.974 59.9831 166.03 59.8586 166.05C59.734 166.07 59.6064 166.052 59.4917 166C59.3771 165.947 59.2805 165.862 59.2141 165.755C59.1477 165.648 59.1144 165.523 59.1185 165.397C59.1226 165.271 59.1638 165.149 59.237 165.046C59.3102 164.944 59.4121 164.865 59.5299 164.82Z" fill="#00467F"/>
<path d="M61.8399 161.47C62.1438 161.365 62.4721 161.351 62.7835 161.432C63.0949 161.513 63.3754 161.684 63.5897 161.924C63.8041 162.164 63.9427 162.462 63.988 162.78C64.0334 163.098 63.9835 163.423 63.8447 163.713C63.7058 164.004 63.4843 164.246 63.2078 164.411C62.9314 164.575 62.6124 164.654 62.2912 164.638C61.9699 164.621 61.6607 164.51 61.4025 164.318C61.1442 164.127 60.9485 163.863 60.8399 163.56C60.7658 163.357 60.733 163.142 60.7433 162.926C60.7536 162.711 60.807 162.499 60.9001 162.305C60.9933 162.11 61.1244 161.936 61.2858 161.792C61.4472 161.649 61.6356 161.539 61.8399 161.47Z" fill="#00467F"/>
<path d="M140.22 171.84C142.308 171.84 144 170.148 144 168.06C144 165.972 142.308 164.28 140.22 164.28C138.132 164.28 136.44 165.972 136.44 168.06C136.44 170.148 138.132 171.84 140.22 171.84Z" fill="#00467F"/>
<path d="M153.28 179.13C153.282 179.675 153.122 180.208 152.821 180.662C152.519 181.115 152.09 181.47 151.587 181.679C151.084 181.888 150.53 181.944 149.996 181.838C149.462 181.732 148.971 181.47 148.585 181.085C148.2 180.699 147.938 180.209 147.832 179.674C147.727 179.14 147.782 178.586 147.991 178.083C148.201 177.58 148.555 177.151 149.008 176.849C149.462 176.548 149.995 176.388 150.54 176.39C151.267 176.39 151.964 176.679 152.477 177.193C152.991 177.707 153.28 178.403 153.28 179.13Z" fill="#00467F"/>
<path d="M141.87 176.91C141.87 177.289 141.757 177.66 141.545 177.975C141.333 178.29 141.033 178.535 140.681 178.678C140.33 178.821 139.944 178.857 139.572 178.78C139.201 178.703 138.861 178.517 138.595 178.246C138.33 177.975 138.151 177.631 138.082 177.257C138.013 176.884 138.056 176.499 138.207 176.151C138.358 175.803 138.609 175.507 138.928 175.302C139.248 175.097 139.621 174.992 140 175C140.5 175.008 140.978 175.213 141.328 175.57C141.678 175.928 141.873 176.409 141.87 176.91Z" fill="#00467F"/>
<path d="M148.86 186.83C148.864 187.79 148.583 188.729 148.053 189.529C147.523 190.329 146.768 190.954 145.882 191.324C144.997 191.695 144.022 191.794 143.08 191.61C142.138 191.426 141.272 190.967 140.591 190.29C139.911 189.614 139.446 188.75 139.256 187.81C139.066 186.869 139.16 185.893 139.525 185.006C139.89 184.118 140.51 183.359 141.306 182.824C142.103 182.289 143.04 182.002 144 182C145.285 181.997 146.518 182.504 147.429 183.41C148.34 184.315 148.855 185.545 148.86 186.83Z" fill="#00467F"/>
<path d="M73.9 205.29C74.2465 205.637 74.4823 206.079 74.5777 206.56C74.673 207.041 74.6237 207.539 74.4359 207.992C74.2481 208.445 73.9302 208.832 73.5224 209.105C73.1147 209.377 72.6354 209.522 72.145 209.522C71.6547 209.522 71.1754 209.377 70.7676 209.105C70.3599 208.832 70.042 208.445 69.8542 207.992C69.6664 207.539 69.617 207.041 69.7124 206.56C69.8078 206.079 70.0436 205.637 70.39 205.29C70.6204 205.059 70.8939 204.876 71.1951 204.751C71.4962 204.627 71.819 204.562 72.145 204.562C72.471 204.562 72.7939 204.627 73.095 204.751C73.3961 204.876 73.6697 205.059 73.9 205.29Z" fill="#00467F"/>
<path d="M83.31 206.28C83.5625 206.531 83.7347 206.852 83.8048 207.202C83.8749 207.551 83.8397 207.913 83.7037 208.243C83.5677 208.572 83.337 208.854 83.0408 209.052C82.7447 209.25 82.3963 209.356 82.04 209.356C81.6836 209.356 81.3353 209.25 81.0391 209.052C80.743 208.854 80.5123 208.572 80.3763 208.243C80.2402 207.913 80.2051 207.551 80.2752 207.202C80.3453 206.852 80.5175 206.531 80.77 206.28C81.1073 205.944 81.564 205.756 82.04 205.756C82.516 205.756 82.9726 205.944 83.31 206.28Z" fill="#00467F"/>
<path d="M76.9299 210.43C77.1078 210.606 77.2295 210.83 77.2795 211.075C77.3294 211.32 77.3055 211.574 77.2106 211.805C77.1157 212.036 76.9542 212.234 76.7467 212.373C76.5391 212.513 76.2948 212.587 76.0449 212.587C75.795 212.587 75.5507 212.513 75.3432 212.373C75.1356 212.234 74.9741 212.036 74.8792 211.805C74.7844 211.574 74.7604 211.32 74.8104 211.075C74.8603 210.83 74.982 210.606 75.1599 210.43C75.3957 210.197 75.7136 210.067 76.0449 210.067C76.3762 210.067 76.6941 210.197 76.9299 210.43Z" fill="#00467F"/>
<path d="M84.7301 211.92C85.1688 212.371 85.4637 212.943 85.5776 213.562C85.6914 214.181 85.619 214.819 85.3696 215.397C85.1201 215.975 84.7048 216.466 84.1763 216.807C83.6477 217.149 83.0297 217.326 82.4004 217.316C81.7712 217.307 81.159 217.11 80.6413 216.752C80.1237 216.394 79.7239 215.891 79.4926 215.306C79.2613 214.72 79.2088 214.08 79.3419 213.464C79.475 212.849 79.7876 212.288 80.2401 211.85C80.8454 211.265 81.6579 210.944 82.4996 210.957C83.3412 210.97 84.1434 211.317 84.7301 211.92Z" fill="#00467F"/>
<path d="M96.7399 130.27C96.3212 129.989 95.9951 129.59 95.8029 129.124C95.6107 128.658 95.561 128.146 95.6601 127.651C95.7592 127.157 96.0026 126.703 96.3596 126.347C96.7165 125.991 97.1711 125.749 97.6657 125.651C98.1603 125.553 98.6728 125.604 99.1385 125.797C99.6041 125.991 100.002 126.318 100.282 126.737C100.562 127.157 100.711 127.65 100.71 128.154C100.71 128.658 100.56 129.151 100.28 129.57C99.9018 130.131 99.3174 130.519 98.6542 130.65C97.991 130.781 97.3028 130.644 96.7399 130.27Z" fill="#0080FF"/>
<path d="M88.9099 132.24C88.6049 132.037 88.3668 131.749 88.226 131.411C88.0852 131.072 88.0478 130.7 88.1188 130.341C88.1897 129.981 88.3657 129.651 88.6245 129.392C88.8832 129.133 89.2131 128.956 89.5723 128.885C89.9315 128.813 90.3038 128.85 90.6422 128.99C90.9805 129.13 91.2696 129.368 91.4728 129.673C91.6761 129.977 91.7843 130.336 91.7837 130.702C91.7832 131.068 91.674 131.426 91.4699 131.73C91.1973 132.136 90.7749 132.418 90.2952 132.513C89.8154 132.609 89.3174 132.511 88.9099 132.24Z" fill="#0080FF"/>
<path d="M92.59 125.75C92.4275 125.668 92.2841 125.553 92.1694 125.412C92.0547 125.27 91.9711 125.106 91.9242 124.931C91.8773 124.755 91.8681 124.571 91.8973 124.391C91.9265 124.212 91.9933 124.04 92.0934 123.888C92.1935 123.736 92.3247 123.607 92.4782 123.51C92.6317 123.412 92.8042 123.348 92.9843 123.322C93.1643 123.295 93.3479 123.307 93.523 123.357C93.698 123.407 93.8606 123.493 94 123.61C94.2584 123.81 94.4313 124.1 94.4839 124.423C94.5365 124.745 94.4648 125.076 94.2833 125.347C94.1018 125.619 93.824 125.811 93.506 125.886C93.188 125.961 92.8535 125.912 92.57 125.75H92.59Z" fill="#0080FF"/>
<path d="M51.85 141.34C51.312 140.98 50.893 140.469 50.646 139.87C50.399 139.272 50.335 138.614 50.4622 137.98C50.5895 137.345 50.9021 136.762 51.3607 136.306C51.8192 135.849 52.403 135.538 53.038 135.414C53.6731 135.289 54.3309 135.355 54.9282 135.605C55.5255 135.854 56.0353 136.275 56.3931 136.814C56.751 137.354 56.9408 137.987 56.9384 138.634C56.9361 139.281 56.7417 139.913 56.38 140.45C55.8963 141.168 55.1479 141.664 54.2988 141.831C53.4497 141.998 52.5691 141.821 51.85 141.34Z" fill="#0080FF"/>
<path d="M211.72 224.11C206.648 222.061 202.245 218.644 199 214.24C195.842 209.793 194.163 204.465 194.2 199.01H214.78C214.881 202.551 216.385 205.907 218.96 208.34C221.48 210.62 224.933 211.763 229.32 211.77C233.707 211.777 237.23 210.7 239.89 208.54C241.134 207.524 242.127 206.235 242.793 204.773C243.459 203.311 243.78 201.716 243.73 200.11C243.777 198.829 243.571 197.551 243.123 196.35C242.675 195.149 241.994 194.048 241.12 193.11C239.285 191.215 237.06 189.741 234.6 188.79C231.074 187.434 227.479 186.266 223.83 185.29C218.66 183.838 213.598 182.027 208.68 179.87C204.734 178.035 201.299 175.256 198.68 171.78C195.887 168.167 194.493 163.34 194.5 157.3C194.377 152.046 195.86 146.879 198.75 142.49C201.71 138.178 205.858 134.819 210.69 132.82C216.243 130.492 222.22 129.344 228.24 129.45C238.12 129.45 246.147 131.853 252.32 136.66C258.493 141.467 261.9 148.167 262.54 156.76H241.43C241.361 155.177 240.951 153.627 240.228 152.217C239.505 150.807 238.486 149.57 237.24 148.59C234.627 146.443 231.173 145.37 226.88 145.37C223.133 145.37 220.133 146.33 217.88 148.25C215.63 150.17 214.52 152.96 214.52 156.62C214.484 157.8 214.69 158.975 215.125 160.072C215.56 161.169 216.215 162.166 217.05 163C218.868 164.77 221.015 166.166 223.37 167.11C226.849 168.505 230.397 169.72 234 170.75C239.2 172.209 244.287 174.043 249.22 176.24C253.223 178.121 256.709 180.945 259.38 184.47C262.213 188.13 263.63 192.93 263.63 198.87C263.647 203.906 262.262 208.847 259.63 213.14C256.83 217.672 252.796 221.311 248 223.63C242.88 226.243 236.797 227.547 229.75 227.54C223.569 227.635 217.434 226.468 211.72 224.11Z" fill="#023047"/>
<path d="M282 153.26C286.1 145.96 292.13 139.93 299.43 135.83C306.994 131.617 315.533 129.465 324.19 129.59C334.89 129.59 344.263 132.333 352.31 137.82C360.345 143.292 366.294 151.32 369.19 160.6H347.06C345.112 156.295 341.877 152.7 337.8 150.31C333.586 147.962 328.823 146.778 324 146.88C318.774 146.784 313.624 148.138 309.12 150.79C304.753 153.412 301.228 157.229 298.96 161.79C296.568 167.034 295.33 172.731 295.33 178.495C295.33 184.259 296.568 189.956 298.96 195.2C301.208 199.803 304.736 203.661 309.12 206.31C313.622 208.972 318.771 210.339 324 210.26C328.828 210.357 333.593 209.148 337.79 206.76C341.859 204.33 345.09 200.716 347.05 196.4H369.14C366.291 205.701 360.363 213.755 352.33 219.24C344.33 224.687 334.933 227.41 324.14 227.41C315.481 227.536 306.942 225.381 299.38 221.16C292.111 217.072 286.101 211.072 282 203.81C277.812 196.044 275.619 187.359 275.619 178.535C275.619 169.712 277.812 161.026 282 153.26Z" fill="#023047"/>
<path d="M405.36 221.23C397.948 217.115 391.787 211.071 387.53 203.74C383.209 196.029 380.94 187.339 380.94 178.5C380.94 169.661 383.209 160.971 387.53 153.26C391.787 145.929 397.948 139.885 405.36 135.77C412.943 131.623 421.447 129.449 430.09 129.449C438.733 129.449 447.237 131.623 454.82 135.77C462.192 139.893 468.309 145.937 472.52 153.26C476.79 160.987 479.031 169.671 479.031 178.5C479.031 187.329 476.79 196.013 472.52 203.74C468.297 211.077 462.153 217.124 454.75 221.23C447.177 225.37 438.685 227.54 430.055 227.54C421.425 227.54 412.933 225.37 405.36 221.23ZM445.28 206.49C449.717 203.83 453.29 199.944 455.57 195.3C458.133 190.053 459.405 184.269 459.28 178.43C459.41 172.613 458.137 166.851 455.57 161.63C453.28 157.042 449.705 153.22 445.28 150.63C440.644 148.006 435.386 146.679 430.06 146.79C424.709 146.682 419.426 148.008 414.76 150.63C410.303 153.202 406.7 157.027 404.4 161.63C401.836 166.852 400.567 172.614 400.7 178.43C400.572 184.268 401.84 190.052 404.4 195.3C406.691 199.959 410.291 203.848 414.76 206.49C419.413 209.152 424.7 210.503 430.06 210.4C435.395 210.507 440.657 209.155 445.28 206.49Z" fill="#023047"/>
<path d="M559.49 174.86C556.872 179.538 552.902 183.317 548.1 185.7C542.94 188.453 536.427 189.827 528.56 189.82H512.5V226.58H493.3V130.83H528.56C535.96 130.83 542.27 132.11 547.49 134.67C552.372 136.932 556.459 140.612 559.22 145.23C561.735 149.754 563.077 154.835 563.124 160.011C563.172 165.186 561.922 170.291 559.49 174.86ZM539.49 170.68C542.05 168.26 543.33 164.853 543.33 160.46C543.33 151.127 538.117 146.46 527.69 146.46H512.5V174.3H527.73C533.037 174.307 536.97 173.1 539.53 170.68H539.49Z" fill="#023047"/>
<path d="M595.91 146.33V170.33H628.15V185.55H595.91V210.93H632.27V226.57H576.71V130.69H632.27V146.33H595.91Z" fill="#023047"/>
<path d="M252.12 73.1601C250.223 76.5415 247.352 79.2733 243.88 81.0001C240.1 83.0001 235.253 84.0001 229.34 84.0001H216.34V113.07H204.61V41.5201H229.34C234.163 41.3693 238.955 42.338 243.34 44.3501C246.874 46.0013 249.839 48.6636 251.86 52.0001C253.768 55.2837 254.749 59.023 254.7 62.8201C254.716 66.428 253.829 69.9826 252.12 73.1601ZM239.34 71.4601C241.54 69.4601 242.64 66.5901 242.64 62.8501C242.64 55.0235 238.207 51.1068 229.34 51.1001H216.34V74.5001H229.34C233.78 74.5001 237.113 73.4868 239.34 71.4601Z" fill="#0080FF"/>
<path d="M323.13 41.52V113.15H311.39V81.82H277.68V113.15H265.93V41.52H277.68V72.23H311.39V41.52H323.13Z" fill="#0080FF"/>
<path d="M381.78 98.5102H351.78L346.62 113.15H334.37L360 41.4102H373.61L399.27 113.15H386.93L381.78 98.5102ZM378.48 88.9302L366.84 55.6402L355.08 88.9302H378.48Z" fill="#0080FF"/>
<path d="M447.64 113.15L431.15 84.49H422.15V113.15H410.43V41.52H435.17C439.998 41.3689 444.794 42.3554 449.17 44.4C452.72 46.0801 455.698 48.7686 457.73 52.13C459.629 55.4331 460.593 59.1906 460.52 63C460.558 67.5692 459.132 72.0306 456.45 75.73C453.743 79.55 449.57 82.1433 443.93 83.51L461.66 113.2L447.64 113.15ZM422.18 75.15H435.18C439.567 75.15 442.88 74.0499 445.12 71.85C446.254 70.6825 447.135 69.2945 447.71 67.772C448.284 66.2496 448.54 64.6253 448.46 63C448.46 59.2933 447.363 56.39 445.17 54.29C442.977 52.19 439.643 51.1433 435.17 51.15H422.17L422.18 75.15Z" fill="#0080FF"/>
<path d="M551 41.52V113.15H539.27V64.09L517.42 113.15H509.27L487.32 64.09V113.15H475.57V41.52H488.25L513.4 97.69L538.4 41.52H551Z" fill="#0080FF"/>
<path d="M609.66 98.5102H579.66L574.51 113.15H562.25L587.91 41.4102H601.52L627.18 113.15H614.81L609.66 98.5102ZM606.36 88.9302L594.72 55.6402L583 88.9302H606.36Z" fill="#0080FF"/>
</g>
<defs>
<clipPath id="clip0_920_7906">
<rect width="655.73" height="268.45" fill="white"/>
</clipPath>
</defs>
</svg>
