<svg width="407" height="398" viewBox="0 0 407 398" fill="none" xmlns="http://www.w3.org/2000/svg">
<path d="M86.3258 279.563C103.11 314.517 145.495 326.282 180.996 305.843C209.85 289.231 225.275 256.455 221.027 225.996L344.371 154.98C346.419 153.799 347.829 151.67 348.109 149.336L349.82 135.053C349.848 134.808 349.864 134.565 349.867 134.325C349.867 134.258 349.867 134.19 349.865 134.122C349.861 133.94 349.853 133.759 349.838 133.584C349.833 133.524 349.827 133.464 349.82 133.403C349.792 133.178 349.759 132.956 349.711 132.74C349.711 132.74 349.71 132.731 349.708 132.73C349.19 130.417 347.465 128.601 345.091 128.11L320.005 122.919C318.457 122.598 316.797 122.885 315.337 123.725L302.983 130.838L306.04 137.206L295.428 143.316L292.37 136.948L282.441 142.665L285.251 148.522L272.353 155.947L269.542 150.09L264.736 152.856L266.182 155.871L255.369 162.096L253.922 159.081L245.512 163.922L248.57 170.291L242.562 173.75L239.504 167.382L234.297 170.379L237.353 176.745L226.941 182.74L223.883 176.372L209.247 184.798L202.98 188.406C182.471 167.309 149.069 162.647 120.215 179.258C84.7141 199.698 69.5427 244.602 86.3271 279.556L86.3258 279.563ZM115.614 246.341C122.802 242.202 131.386 244.586 134.785 251.663C138.185 258.74 135.111 267.834 127.923 271.973C120.735 276.112 112.152 273.729 108.752 266.652C105.353 259.575 108.427 250.481 115.614 246.341Z" fill="url(#paint0_linear_253_3163)"/>
<path d="M163.867 206.096L222.337 172.431L225.395 178.799L235.807 172.804L232.749 166.436L237.956 163.44L241.014 169.808L247.022 166.348L243.964 159.98L252.374 155.139L253.821 158.154L264.634 151.929L263.188 148.913L267.994 146.147L270.804 152.004L283.703 144.58L280.892 138.723L290.822 133.005L293.88 139.374L304.492 133.263L301.435 126.895L313.789 119.783C315.249 118.943 316.907 118.658 318.457 118.977L343.543 124.167C346.668 124.814 348.674 127.759 348.274 131.113L346.563 145.395C346.282 147.732 344.871 149.861 342.825 151.039L193.927 236.767L163.864 206.101L163.867 206.096Z" fill="url(#paint1_linear_253_3163)"/>
<path d="M179.454 301.897C214.955 281.457 230.126 236.553 213.342 201.599C196.557 166.644 154.172 154.879 118.671 175.319C83.1706 195.758 67.9991 240.663 84.7835 275.617C101.568 310.571 143.953 322.336 179.454 301.897ZM126.383 268.025C119.195 272.164 110.611 269.78 107.212 262.703C103.813 255.626 106.886 246.532 114.074 242.393C121.262 238.253 129.845 240.637 133.245 247.714C136.644 254.791 133.57 263.885 126.383 268.025Z" fill="url(#paint2_linear_253_3163)"/>
<path d="M219.483 222.052L342.826 151.036C344.875 149.856 346.285 147.726 346.565 145.393L348.276 131.11C348.534 128.955 347.791 126.98 346.403 125.664C330.1 128.547 228.98 194.14 219.074 192.253C215.552 191.582 211.372 188.933 207.703 180.859L201.436 184.467C180.928 163.37 147.525 158.707 118.671 175.319C83.1706 195.758 67.9991 240.663 84.7835 275.617C101.568 310.571 143.953 322.336 179.454 301.897C208.308 285.285 223.731 252.508 219.485 222.05L219.483 222.052ZM114.072 242.395C121.26 238.256 129.844 240.64 133.243 247.717C136.642 254.794 133.569 263.888 126.381 268.027C119.193 272.167 110.609 269.783 107.21 262.706C103.811 255.629 106.884 246.535 114.072 242.395Z" fill="url(#paint3_linear_253_3163)"/>
<path d="M173.489 289.476C202.022 273.048 214.218 236.956 200.728 208.862C187.237 180.768 153.17 171.311 124.637 187.739C96.104 204.167 83.9086 240.259 97.3989 268.353C110.889 296.446 144.956 305.904 173.489 289.476ZM126.381 268.027C119.194 272.166 110.61 269.782 107.211 262.705C103.811 255.628 106.885 246.534 114.073 242.395C121.26 238.256 129.844 240.639 133.244 247.716C136.643 254.793 133.569 263.887 126.381 268.027Z" fill="url(#paint4_linear_253_3163)"/>
<defs>
<linearGradient id="paint0_linear_253_3163" x1="-46.7131" y1="240.894" x2="345.355" y2="245.757" gradientUnits="userSpaceOnUse">
<stop stop-color="#E1473D"/>
<stop offset="1" stop-color="#E9605A"/>
</linearGradient>
<linearGradient id="paint1_linear_253_3163" x1="152.629" y1="52.2569" x2="301.671" y2="205.817" gradientUnits="userSpaceOnUse">
<stop stop-color="#FE7062"/>
<stop offset="1" stop-color="#FF928E"/>
</linearGradient>
<linearGradient id="paint2_linear_253_3163" x1="93.4924" y1="306.7" x2="347.829" y2="3.83276" gradientUnits="userSpaceOnUse">
<stop stop-color="#FF9085"/>
<stop offset="1" stop-color="#FB6FBB"/>
</linearGradient>
<linearGradient id="paint3_linear_253_3163" x1="186.137" y1="152.362" x2="48.4092" y2="-44.6934" gradientUnits="userSpaceOnUse">
<stop stop-color="#FE7062"/>
<stop offset="1" stop-color="#FF928E"/>
</linearGradient>
<linearGradient id="paint4_linear_253_3163" x1="24.5603" y1="-26.6141" x2="40.7405" y2="2.00477" gradientUnits="userSpaceOnUse">
<stop stop-color="#FE7062"/>
<stop offset="1" stop-color="#FF928E"/>
</linearGradient>
</defs>
</svg>
