<svg width="290" height="199" viewBox="0 0 290 199" fill="none" xmlns="http://www.w3.org/2000/svg">
<path d="M114.337 177.234C154.323 154.181 171.419 103.544 152.511 64.1233C133.603 24.7024 85.8642 11.4296 45.9072 34.4922C5.95012 57.5548 -11.1646 108.23 7.743 147.593C26.6506 186.956 74.351 200.287 114.337 177.234ZM54.5614 139.035C46.4595 143.702 36.7974 140.976 32.9693 133.039C29.1413 125.103 32.6011 114.799 40.7223 110.132C48.8436 105.465 58.4864 108.192 62.3144 116.128C66.1425 124.065 62.6536 134.369 54.5614 139.035Z" fill="url(#paint0_linear_253_3441)"/>
<path d="M107.621 163.224C139.757 144.702 153.499 104.039 138.303 72.322C123.107 40.6049 84.7301 29.9711 52.5939 48.5027C20.4577 67.0342 6.71555 107.687 21.9114 139.404C37.1073 171.122 75.475 181.755 107.621 163.224ZM54.5613 139.036C46.4594 143.703 36.7972 140.976 32.9595 133.04C29.1217 125.103 32.6009 114.799 40.7125 110.132C48.824 105.465 58.4765 108.192 62.3046 116.138C66.1326 124.084 62.6535 134.369 54.5613 139.036Z" fill="url(#paint1_linear_253_3441)"/>
<path d="M176.42 28.748L176.119 28.9227L177.515 31.8334L177.815 31.6588L176.42 28.748Z" fill="url(#paint2_linear_253_3441)"/>
<path d="M189.057 21.4619L188.747 21.6366L190.142 24.5473L190.452 24.3726L189.057 21.4619Z" fill="url(#paint3_linear_253_3441)"/>
<path d="M234.618 129L234.317 129.175L235.713 132.095L236.023 131.911L234.618 129Z" fill="url(#paint4_linear_253_3441)"/>
<path d="M159.43 87.1953C164.208 121.542 146.832 158.498 114.337 177.234C74.3509 200.286 26.6118 187.014 7.73321 147.593C7.22926 146.545 6.76408 145.478 6.30859 144.41C7.22145 147.008 8.27616 149.554 9.46794 152.036C28.3756 191.457 76.1147 204.72 116.072 181.677C148.576 162.942 165.953 125.976 161.165 91.6293L251.798 39.3916H242.339L159.43 87.1953Z" fill="url(#paint5_linear_253_3441)"/>
<path d="M286.853 183.779C286.976 183.611 287.092 183.446 287.202 183.285L287.319 183.11C287.445 182.887 287.571 182.673 287.677 182.441C288.187 181.371 288.421 180.19 288.356 179.006L288.259 179.122C288.2 179.21 288.135 179.295 288.065 179.375C287.929 179.549 287.784 179.704 287.629 179.869L287.542 179.966L276.096 191.454C275.155 192.385 274.012 193.086 272.757 193.503C271.502 193.92 270.167 194.042 268.857 193.86L204.895 184.662L212.328 190.484L267.51 198.411C268.819 198.596 270.152 198.475 271.407 198.057C272.661 197.64 273.802 196.937 274.739 196.004L286.185 184.527C286.379 184.323 286.563 184.119 286.737 183.906L286.853 183.779Z" fill="url(#paint6_linear_253_3441)"/>
<path d="M211.485 142.341L211.175 142.515L212.299 144.854L212.599 144.679L211.485 142.341Z" fill="url(#paint7_linear_253_3441)"/>
<path d="M33.5415 134.096C32.8052 130.322 33.266 126.412 34.8596 122.914C36.4531 119.415 39.0996 116.503 42.4284 114.585C50.1814 110.131 59.2912 112.382 63.4487 119.523C63.1898 118.354 62.7996 117.218 62.2858 116.137C58.4093 108.152 48.7859 105.465 40.6937 110.131C32.6015 114.798 29.132 125.054 32.9407 133.039C33.1442 133.407 33.3089 133.747 33.5415 134.096Z" fill="url(#paint8_linear_253_3441)"/>
<path d="M219.014 132.551L209.439 138.071L211.484 142.34L215.913 139.789L219.014 132.551Z" fill="url(#paint9_linear_253_3441)"/>
<path d="M233.93 146.27L232.214 154.052L245.869 156.011L246.887 151.393L233.581 149.472L235.296 141.7L233.465 141.438L226.564 145.213L233.93 146.27Z" fill="url(#paint10_linear_253_3441)"/>
<path d="M288.985 178.036C288.898 178.201 288.811 178.366 288.714 178.531C288.811 178.327 288.898 178.162 288.985 178.036Z" fill="url(#paint11_linear_253_3441)"/>
<path d="M289.325 111.065C289.234 111.311 289.138 111.554 289.034 111.793C289.17 111.567 289.267 111.324 289.325 111.065Z" fill="url(#paint12_linear_253_3441)"/>
<path d="M288.355 179.006L288.54 178.725C288.48 178.819 288.416 178.91 288.346 178.996L288.355 179.006Z" fill="url(#paint13_linear_253_3441)"/>
<path d="M268.178 153.062L284.023 171.826C285.965 172.319 287.855 173.001 289.664 173.864C289.777 174.654 289.754 175.458 289.596 176.241C289.809 175.246 289.791 174.215 289.545 173.227C289.298 172.24 288.828 171.323 288.171 170.545L269.544 148.482C268.338 147.093 266.667 146.193 264.844 145.95L248.951 143.66L247.981 148.288L263.487 150.52C265.309 150.764 266.978 151.668 268.178 153.062Z" fill="url(#paint14_linear_253_3441)"/>
<path d="M185.423 32.7259L192.187 28.8159L190.142 24.5468L183.678 28.2725L180.238 21.0928L174.375 24.4692L176.419 28.748L181.982 25.5365L185.423 32.7259Z" fill="url(#paint15_linear_253_3441)"/>
<path d="M146.163 40.7408C146.809 42.1759 147.537 43.5722 148.344 44.9225L164.383 35.6858L167.823 42.8753L179.56 36.0836L177.515 31.8049L166.079 38.4219L162.629 31.2324L139.089 44.8158L146.163 40.7408Z" fill="url(#paint16_linear_253_3441)"/>
<path d="M199.853 19.5794L212.025 12.5549L210.397 9.15906L215.814 6.03489L218.983 12.6422L230.293 6.13191L232.231 1.60089L231.465 0L217.239 8.19852L214.07 1.59119L208.662 4.71536L210.29 8.1112L198.108 15.1357L196.48 11.7302L187.002 17.1926L189.056 21.4617L198.224 16.1739L199.853 19.5794Z" fill="url(#paint17_linear_253_3441)"/>
<path d="M232.231 1.60059L230.293 6.1316L233.51 4.26874L232.231 1.60059Z" fill="url(#paint18_linear_253_3441)"/>
<path d="M159.431 87.1857L242.349 39.4014H242.339L159.431 87.1857Z" fill="url(#paint19_linear_253_3441)"/>
<path d="M159.431 87.1857L242.349 39.4014H242.339L159.431 87.1857Z" fill="url(#paint20_linear_253_3441)"/>
<path d="M268.857 193.889C270.159 194.073 271.487 193.95 272.733 193.53C271.486 193.946 270.159 194.068 268.857 193.889Z" fill="url(#paint21_linear_253_3441)"/>
<path d="M268.857 193.889C270.159 194.073 271.487 193.95 272.733 193.53C271.486 193.946 270.159 194.068 268.857 193.889Z" fill="url(#paint22_linear_253_3441)"/>
<path d="M288.259 179.152L288.356 179.035C288.326 179.076 288.294 179.115 288.259 179.152Z" fill="url(#paint23_linear_253_3441)"/>
<path d="M288.259 179.152L288.356 179.035C288.326 179.076 288.294 179.115 288.259 179.152Z" fill="url(#paint24_linear_253_3441)"/>
<path d="M214.819 137.451L210.39 140.003L211.504 142.331L211.204 142.506L211.969 144.107L214.819 137.451Z" fill="url(#paint25_linear_253_3441)"/>
<path d="M215.913 139.789L211.484 142.341L212.599 144.679L212.298 144.854L213.064 146.445L215.913 139.789Z" fill="url(#paint26_linear_253_3441)"/>
<path d="M167.823 42.8656L164.383 35.6858L148.344 44.9322C151.9 50.8118 155.69 52.9755 159.004 53.5964C165.459 54.8286 206.21 30.6502 243.018 9.3826L244.297 7.29659H229.789L230.283 6.14201L218.983 12.6523L215.814 6.05469L210.397 9.16915L212.025 12.5747L199.853 19.5895L198.225 16.1937L189.047 21.4718L190.452 24.3825L190.142 24.5668L192.187 28.8359L185.403 32.7169L181.963 25.5274L176.4 28.7389L177.795 31.6496L177.495 31.8242L179.54 36.0933L167.823 42.8656Z" fill="url(#paint27_linear_253_3441)"/>
<path d="M167.823 42.8656L164.383 35.6858L148.344 44.9322C151.9 50.8118 155.69 52.9755 159.004 53.5964C165.459 54.8286 206.21 30.6502 243.018 9.3826L244.297 7.29659H229.789L230.283 6.14201L218.983 12.6523L215.814 6.05469L210.397 9.16915L212.025 12.5747L199.853 19.5895L198.225 16.1937L189.047 21.4718L190.452 24.3825L190.142 24.5668L192.187 28.8359L185.403 32.7169L181.963 25.5274L176.4 28.7389L177.795 31.6496L177.495 31.8242L179.54 36.0933L167.823 42.8656Z" fill="url(#paint28_linear_253_3441)"/>
<path d="M232.214 154.052L233.929 146.29L226.564 145.232L220.216 148.706L219.577 151.617L215.894 151.083L214.789 151.694L226.176 160.572L223.889 161.416C249.086 165.025 272.597 168.576 283.975 171.788L268.13 153.023C266.927 151.628 265.254 150.723 263.429 150.481L247.923 148.25L247.226 151.403L246.877 151.355L245.908 155.983L232.214 154.052Z" fill="url(#paint29_linear_253_3441)"/>
<path d="M232.214 154.052L233.929 146.29L226.564 145.232L220.216 148.706L219.577 151.617L215.894 151.083L214.789 151.694L226.176 160.572L223.889 161.416C249.086 165.025 272.597 168.576 283.975 171.788L268.13 153.023C266.927 151.628 265.254 150.723 263.429 150.481L247.923 148.25L247.226 151.403L246.877 151.355L245.908 155.983L232.214 154.052Z" fill="url(#paint30_linear_253_3441)"/>
<path d="M289.073 111.822L288.985 111.997C289.011 111.937 289.04 111.878 289.073 111.822Z" fill="url(#paint31_linear_253_3441)"/>
<path d="M289.596 110.241C289.596 110.241 289.596 110.3 289.596 110.329C289.596 110.359 289.586 110.271 289.596 110.241Z" fill="url(#paint32_linear_253_3441)"/>
<path d="M54.5613 139.035C46.8083 143.488 37.6889 141.237 33.541 134.096C33.7956 135.267 34.1859 136.403 34.704 137.483C38.532 145.468 48.1942 148.155 56.2961 143.488C64.398 138.821 67.8577 128.566 64.0491 120.581C63.8746 120.212 63.6711 119.873 63.4773 119.523C64.211 123.3 63.7458 127.213 62.1469 130.712C60.548 134.211 57.8955 137.121 54.5613 139.035Z" fill="url(#paint33_linear_253_3441)"/>
<path d="M47.613 38.9354C78.499 21.1315 113.998 25.0124 137.276 45.8532L139.098 44.8053C115.994 21.015 78.373 15.7563 45.8782 34.4917C6.95817 56.9236 -10.302 105.484 6.27978 144.41C-7.20075 106.299 10.166 60.5232 47.613 38.9354Z" fill="url(#paint34_linear_253_3441)"/>
<path d="M276.096 191.483C275.16 192.417 274.019 193.118 272.763 193.53C274.02 193.12 275.162 192.419 276.096 191.483L287.542 179.976L287.629 179.879L287.542 179.986L276.096 191.483Z" fill="url(#paint35_linear_253_3441)"/>
<path d="M276.096 191.483C275.16 192.417 274.019 193.118 272.763 193.53C274.02 193.12 275.162 192.419 276.096 191.483L287.542 179.976L287.629 179.879L287.542 179.986L276.096 191.483Z" fill="url(#paint36_linear_253_3441)"/>
<path d="M114.337 177.233C146.842 158.498 164.209 121.541 159.431 87.195L130.638 103.786L96.7768 69.2068L137.267 45.8628C114.008 25.0221 78.4894 21.1411 47.6034 38.945C10.1661 60.5231 -7.20061 106.299 6.27993 144.41C6.72572 145.477 7.24905 146.545 7.70454 147.592C26.6122 187.042 74.3513 200.286 114.337 177.233ZM40.6839 110.131C48.7761 105.465 58.4479 108.191 62.276 116.137C62.7898 117.219 63.1799 118.354 63.4389 119.523C63.6328 119.873 63.8363 120.212 64.0107 120.581C67.8872 128.566 64.379 138.821 56.2577 143.488C48.1364 148.155 38.4937 145.429 34.6656 137.483C34.1475 136.403 33.7572 135.267 33.5027 134.096C33.2991 133.747 33.1053 133.408 32.9212 133.039C29.1319 125.054 32.6014 114.798 40.6936 110.131H40.6839Z" fill="url(#paint37_linear_253_3441)"/>
<path d="M114.337 177.233C146.842 158.498 164.209 121.541 159.431 87.195L130.638 103.786L96.7768 69.2068L137.267 45.8628C114.008 25.0221 78.4894 21.1411 47.6034 38.945C10.1661 60.5231 -7.20061 106.299 6.27993 144.41C6.72572 145.477 7.24905 146.545 7.70454 147.592C26.6122 187.042 74.3513 200.286 114.337 177.233ZM40.6839 110.131C48.7761 105.465 58.4479 108.191 62.276 116.137C62.7898 117.219 63.1799 118.354 63.4389 119.523C63.6328 119.873 63.8363 120.212 64.0107 120.581C67.8872 128.566 64.379 138.821 56.2577 143.488C48.1364 148.155 38.4937 145.429 34.6656 137.483C34.1475 136.403 33.7572 135.267 33.5027 134.096C33.2991 133.747 33.1053 133.408 32.9212 133.039C29.1319 125.054 32.6014 114.798 40.6936 110.131H40.6839Z" fill="url(#paint38_linear_253_3441)"/>
<path d="M140.882 49.2688L147.937 45.2035L148.383 44.9415C147.575 43.5912 146.847 42.1949 146.202 40.7598L139.137 44.8251L137.315 45.8729C138.498 46.9499 139.69 48.0657 140.882 49.2688Z" fill="url(#paint39_linear_253_3441)"/>
<path d="M140.882 49.2688L147.937 45.2035L148.383 44.9415C147.575 43.5912 146.847 42.1949 146.202 40.7598L139.137 44.8251L137.315 45.8729C138.498 46.9499 139.69 48.0657 140.882 49.2688Z" fill="url(#paint40_linear_253_3441)"/>
<path d="M284.023 171.826L286.805 175.125C287.729 176.215 288.27 177.578 288.346 179.006C288.416 178.919 288.481 178.829 288.54 178.734L288.714 178.472C288.811 178.307 288.898 178.142 288.985 177.977L289.073 177.803C289.182 177.564 289.279 177.321 289.363 177.075V177.017C289.441 176.785 289.506 176.548 289.557 176.309C289.557 176.309 289.557 176.25 289.557 176.221C289.715 175.439 289.738 174.635 289.625 173.844C287.828 172.991 285.952 172.315 284.023 171.826Z" fill="url(#paint41_linear_253_3441)"/>
<path d="M284.023 171.826L286.805 175.125C287.729 176.215 288.27 177.578 288.346 179.006C288.416 178.919 288.481 178.829 288.54 178.734L288.714 178.472C288.811 178.307 288.898 178.142 288.985 177.977L289.073 177.803C289.182 177.564 289.279 177.321 289.363 177.075V177.017C289.441 176.785 289.506 176.548 289.557 176.309C289.557 176.309 289.557 176.25 289.557 176.221C289.715 175.439 289.738 174.635 289.625 173.844C287.828 172.991 285.952 172.315 284.023 171.826Z" fill="url(#paint42_linear_253_3441)"/>
<path d="M159.43 87.195L242.339 39.401H229.789L259.599 17.3862L235.923 20.8985L242.979 9.37207C206.152 30.6397 165.449 54.8181 158.965 53.5859C155.69 52.9649 151.9 50.8013 148.305 44.9216L147.859 45.1836L140.881 49.2683C139.728 48.0846 138.536 46.9688 137.315 45.8725L96.7861 69.197L130.647 103.776L159.44 87.1852L159.43 87.195Z" fill="url(#paint43_linear_253_3441)"/>
<path d="M159.43 87.195L242.339 39.401H229.789L259.599 17.3862L235.923 20.8985L242.979 9.37207C206.152 30.6397 165.449 54.8181 158.965 53.5859C155.69 52.9649 151.9 50.8013 148.305 44.9216L147.859 45.1836L140.881 49.2683C139.728 48.0846 138.536 46.9688 137.315 45.8725L96.7861 69.197L130.647 103.776L159.44 87.1852L159.43 87.195Z" fill="url(#paint44_linear_253_3441)"/>
<path d="M159.43 87.195L242.339 39.401H229.789L259.599 17.3862L235.923 20.8985L242.979 9.37207C206.152 30.6397 165.449 54.8181 158.965 53.5859C155.69 52.9649 151.9 50.8013 148.305 44.9216L147.859 45.1836L140.881 49.2683C139.728 48.0846 138.536 46.9688 137.315 45.8725L96.7861 69.197L130.647 103.776L159.44 87.1852L159.43 87.195Z" fill="url(#paint45_linear_253_3441)"/>
<path d="M286.805 175.125L284.024 171.826C272.598 168.614 249.135 165.034 223.938 161.454L211.281 166.169L232.021 178.035L195 176.949L204.875 184.711L268.838 193.909C270.14 194.088 271.466 193.965 272.714 193.55C273.97 193.138 275.112 192.436 276.048 191.502L287.542 179.976L287.629 179.869C287.784 179.704 287.929 179.549 288.065 179.374C288.135 179.295 288.2 179.21 288.259 179.122C288.294 179.086 288.327 179.047 288.356 179.006C288.278 177.577 287.733 176.213 286.805 175.125Z" fill="url(#paint46_linear_253_3441)"/>
<path d="M286.805 175.125L284.024 171.826C272.598 168.614 249.135 165.034 223.938 161.454L211.281 166.169L232.021 178.035L195 176.949L204.875 184.711L268.838 193.909C270.14 194.088 271.466 193.965 272.714 193.55C273.97 193.138 275.112 192.436 276.048 191.502L287.542 179.976L287.629 179.869C287.784 179.704 287.929 179.549 288.065 179.374C288.135 179.295 288.2 179.21 288.259 179.122C288.294 179.086 288.327 179.047 288.356 179.006C288.278 177.577 287.733 176.213 286.805 175.125Z" fill="url(#paint47_linear_253_3441)"/>
<path d="M286.805 175.125L284.024 171.826C272.598 168.614 249.135 165.034 223.938 161.454L211.281 166.169L232.021 178.035L195 176.949L204.875 184.711L268.838 193.909C270.14 194.088 271.466 193.965 272.714 193.55C273.97 193.138 275.112 192.436 276.048 191.502L287.542 179.976L287.629 179.869C287.784 179.704 287.929 179.549 288.065 179.374C288.135 179.295 288.2 179.21 288.259 179.122C288.294 179.086 288.327 179.047 288.356 179.006C288.278 177.577 287.733 176.213 286.805 175.125Z" fill="url(#paint48_linear_253_3441)"/>
<defs>
<linearGradient id="paint0_linear_253_3441" x1="16.4457" y1="181.755" x2="303.315" y2="-159.464" gradientUnits="userSpaceOnUse">
<stop stop-color="#FF9085"/>
<stop offset="1" stop-color="#FB6FBB"/>
</linearGradient>
<linearGradient id="paint1_linear_253_3441" x1="-81.8528" y1="-180.93" x2="-63.5918" y2="-148.678" gradientUnits="userSpaceOnUse">
<stop stop-color="#FE7062"/>
<stop offset="1" stop-color="#FF928E"/>
</linearGradient>
<linearGradient id="paint2_linear_253_3441" x1="-139.399" y1="26.3613" x2="302.232" y2="31.8305" gradientUnits="userSpaceOnUse">
<stop stop-color="#E1473D"/>
<stop offset="1" stop-color="#E9605A"/>
</linearGradient>
<linearGradient id="paint3_linear_253_3441" x1="-139.304" y1="18.9296" x2="302.319" y2="24.3989" gradientUnits="userSpaceOnUse">
<stop stop-color="#E1473D"/>
<stop offset="1" stop-color="#E9605A"/>
</linearGradient>
<linearGradient id="paint4_linear_253_3441" x1="-158.006" y1="125.672" x2="283.627" y2="131.141" gradientUnits="userSpaceOnUse">
<stop stop-color="#E1473D"/>
<stop offset="1" stop-color="#E9605A"/>
</linearGradient>
<linearGradient id="paint5_linear_253_3441" x1="-140.465" y1="112.431" x2="301.155" y2="117.9" gradientUnits="userSpaceOnUse">
<stop stop-color="#E1473D"/>
<stop offset="1" stop-color="#E9605A"/>
</linearGradient>
<linearGradient id="paint6_linear_253_3441" x1="-74.2759" y1="-77.7044" x2="271.522" y2="200.358" gradientUnits="userSpaceOnUse">
<stop stop-color="#E1473D"/>
<stop offset="1" stop-color="#E9605A"/>
</linearGradient>
<linearGradient id="paint7_linear_253_3441" x1="-158.169" y1="139.003" x2="283.462" y2="144.472" gradientUnits="userSpaceOnUse">
<stop stop-color="#E1473D"/>
<stop offset="1" stop-color="#E9605A"/>
</linearGradient>
<linearGradient id="paint8_linear_253_3441" x1="-140.542" y1="118.708" x2="301.078" y2="124.178" gradientUnits="userSpaceOnUse">
<stop stop-color="#E1473D"/>
<stop offset="1" stop-color="#E9605A"/>
</linearGradient>
<linearGradient id="paint9_linear_253_3441" x1="93.9778" y1="12.3672" x2="262.058" y2="185.343" gradientUnits="userSpaceOnUse">
<stop stop-color="#FE7062"/>
<stop offset="1" stop-color="#FF928E"/>
</linearGradient>
<linearGradient id="paint10_linear_253_3441" x1="219.582" y1="-31.6269" x2="245.025" y2="209.376" gradientUnits="userSpaceOnUse">
<stop stop-color="#FE7062"/>
<stop offset="1" stop-color="#FF928E"/>
</linearGradient>
<linearGradient id="paint11_linear_253_3441" x1="268.205" y1="-36.7644" x2="293.65" y2="204.243" gradientUnits="userSpaceOnUse">
<stop stop-color="#FE7062"/>
<stop offset="1" stop-color="#FF928E"/>
</linearGradient>
<linearGradient id="paint12_linear_253_3441" x1="268.651" y1="-102.808" x2="294.096" y2="138.195" gradientUnits="userSpaceOnUse">
<stop stop-color="#FE7062"/>
<stop offset="1" stop-color="#FF928E"/>
</linearGradient>
<linearGradient id="paint13_linear_253_3441" x1="267.745" y1="-36.7186" x2="293.189" y2="204.292" gradientUnits="userSpaceOnUse">
<stop stop-color="#FE7062"/>
<stop offset="1" stop-color="#FF928E"/>
</linearGradient>
<linearGradient id="paint14_linear_253_3441" x1="250.102" y1="-34.8461" x2="275.545" y2="206.157" gradientUnits="userSpaceOnUse">
<stop stop-color="#FE7062"/>
<stop offset="1" stop-color="#FF928E"/>
</linearGradient>
<linearGradient id="paint15_linear_253_3441" x1="69.8252" y1="-90.3877" x2="237.896" y2="82.5876" gradientUnits="userSpaceOnUse">
<stop stop-color="#FE7062"/>
<stop offset="1" stop-color="#FF928E"/>
</linearGradient>
<linearGradient id="paint16_linear_253_3441" x1="51.131" y1="-72.2242" x2="219.211" y2="100.751" gradientUnits="userSpaceOnUse">
<stop stop-color="#FE7062"/>
<stop offset="1" stop-color="#FF928E"/>
</linearGradient>
<linearGradient id="paint17_linear_253_3441" x1="91.6594" y1="-111.607" x2="259.74" y2="61.3784" gradientUnits="userSpaceOnUse">
<stop stop-color="#FE7062"/>
<stop offset="1" stop-color="#FF928E"/>
</linearGradient>
<linearGradient id="paint18_linear_253_3441" x1="105.896" y1="-125.443" x2="273.977" y2="47.5323" gradientUnits="userSpaceOnUse">
<stop stop-color="#FE7062"/>
<stop offset="1" stop-color="#FF928E"/>
</linearGradient>
<linearGradient id="paint19_linear_253_3441" x1="-139.806" y1="59.0681" x2="301.824" y2="64.5374" gradientUnits="userSpaceOnUse">
<stop stop-color="#E1473D"/>
<stop offset="1" stop-color="#E9605A"/>
</linearGradient>
<linearGradient id="paint20_linear_253_3441" x1="60.5896" y1="-81.4128" x2="228.67" y2="91.5625" gradientUnits="userSpaceOnUse">
<stop stop-color="#FE7062"/>
<stop offset="1" stop-color="#FF928E"/>
</linearGradient>
<linearGradient id="paint21_linear_253_3441" x1="-80.9084" y1="-69.4649" x2="264.897" y2="208.603" gradientUnits="userSpaceOnUse">
<stop stop-color="#E1473D"/>
<stop offset="1" stop-color="#E9605A"/>
</linearGradient>
<linearGradient id="paint22_linear_253_3441" x1="217.384" y1="-31.397" x2="242.827" y2="209.606" gradientUnits="userSpaceOnUse">
<stop stop-color="#FE7062"/>
<stop offset="1" stop-color="#FF928E"/>
</linearGradient>
<linearGradient id="paint23_linear_253_3441" x1="260.61" y1="155.684" x2="320.174" y2="203.593" gradientUnits="userSpaceOnUse">
<stop stop-color="#E1473D"/>
<stop offset="1" stop-color="#E9605A"/>
</linearGradient>
<linearGradient id="paint24_linear_253_3441" x1="267.582" y1="-36.6836" x2="293.021" y2="204.31" gradientUnits="userSpaceOnUse">
<stop stop-color="#FE7062"/>
<stop offset="1" stop-color="#FF928E"/>
</linearGradient>
<linearGradient id="paint25_linear_253_3441" x1="-159.252" y1="136.151" x2="282.366" y2="141.62" gradientUnits="userSpaceOnUse">
<stop stop-color="#E1473D"/>
<stop offset="1" stop-color="#E9605A"/>
</linearGradient>
<linearGradient id="paint26_linear_253_3441" x1="90.7603" y1="15.5014" x2="258.84" y2="188.477" gradientUnits="userSpaceOnUse">
<stop stop-color="#FE7062"/>
<stop offset="1" stop-color="#FF928E"/>
</linearGradient>
<linearGradient id="paint27_linear_253_3441" x1="-139.39" y1="25.7311" x2="302.231" y2="31.2004" gradientUnits="userSpaceOnUse">
<stop stop-color="#E1473D"/>
<stop offset="1" stop-color="#E9605A"/>
</linearGradient>
<linearGradient id="paint28_linear_253_3441" x1="76.5413" y1="-96.9168" x2="244.621" y2="76.0585" gradientUnits="userSpaceOnUse">
<stop stop-color="#FE7062"/>
<stop offset="1" stop-color="#FF928E"/>
</linearGradient>
<linearGradient id="paint29_linear_253_3441" x1="-62.4057" y1="-92.4675" x2="283.392" y2="185.595" gradientUnits="userSpaceOnUse">
<stop stop-color="#E1473D"/>
<stop offset="1" stop-color="#E9605A"/>
</linearGradient>
<linearGradient id="paint30_linear_253_3441" x1="230.765" y1="-32.81" x2="256.208" y2="208.193" gradientUnits="userSpaceOnUse">
<stop stop-color="#FE7062"/>
<stop offset="1" stop-color="#FF928E"/>
</linearGradient>
<linearGradient id="paint31_linear_253_3441" x1="295.702" y1="29.3295" x2="310.792" y2="-242.502" gradientUnits="userSpaceOnUse">
<stop stop-color="#FE7062"/>
<stop offset="1" stop-color="#FF928E"/>
</linearGradient>
<linearGradient id="paint32_linear_253_3441" x1="296.248" y1="28.525" x2="311.479" y2="-246.135" gradientUnits="userSpaceOnUse">
<stop stop-color="#FE7062"/>
<stop offset="1" stop-color="#FF928E"/>
</linearGradient>
<linearGradient id="paint33_linear_253_3441" x1="16.6492" y1="82.2372" x2="-138.728" y2="-139.819" gradientUnits="userSpaceOnUse">
<stop stop-color="#FE7062"/>
<stop offset="1" stop-color="#FF928E"/>
</linearGradient>
<linearGradient id="paint34_linear_253_3441" x1="48.4949" y1="59.9507" x2="-106.882" y2="-162.105" gradientUnits="userSpaceOnUse">
<stop stop-color="#FE7062"/>
<stop offset="1" stop-color="#FF928E"/>
</linearGradient>
<linearGradient id="paint35_linear_253_3441" x1="-63.3997" y1="-91.2311" x2="282.398" y2="186.831" gradientUnits="userSpaceOnUse">
<stop stop-color="#E1473D"/>
<stop offset="1" stop-color="#E9605A"/>
</linearGradient>
<linearGradient id="paint36_linear_253_3441" x1="287.343" y1="94.8637" x2="302.433" y2="-176.979" gradientUnits="userSpaceOnUse">
<stop stop-color="#FE7062"/>
<stop offset="1" stop-color="#FF928E"/>
</linearGradient>
<linearGradient id="paint37_linear_253_3441" x1="-140.378" y1="105.338" x2="301.253" y2="110.808" gradientUnits="userSpaceOnUse">
<stop stop-color="#E1473D"/>
<stop offset="1" stop-color="#E9605A"/>
</linearGradient>
<linearGradient id="paint38_linear_253_3441" x1="46.9638" y1="61.0179" x2="-108.413" y2="-161.028" gradientUnits="userSpaceOnUse">
<stop stop-color="#FE7062"/>
<stop offset="1" stop-color="#FF928E"/>
</linearGradient>
<linearGradient id="paint39_linear_253_3441" x1="40.1122" y1="-61.5132" x2="208.192" y2="111.462" gradientUnits="userSpaceOnUse">
<stop stop-color="#FE7062"/>
<stop offset="1" stop-color="#FF928E"/>
</linearGradient>
<linearGradient id="paint40_linear_253_3441" x1="118.931" y1="10.6629" x2="-36.4461" y2="-211.393" gradientUnits="userSpaceOnUse">
<stop stop-color="#FE7062"/>
<stop offset="1" stop-color="#FF928E"/>
</linearGradient>
<linearGradient id="paint41_linear_253_3441" x1="266.789" y1="-36.6104" x2="292.232" y2="204.393" gradientUnits="userSpaceOnUse">
<stop stop-color="#FE7062"/>
<stop offset="1" stop-color="#FF928E"/>
</linearGradient>
<linearGradient id="paint42_linear_253_3441" x1="293.302" y1="95.1994" x2="308.399" y2="-176.651" gradientUnits="userSpaceOnUse">
<stop stop-color="#FE7062"/>
<stop offset="1" stop-color="#FF928E"/>
</linearGradient>
<linearGradient id="paint43_linear_253_3441" x1="-139.719" y1="52.5283" x2="301.902" y2="57.9976" gradientUnits="userSpaceOnUse">
<stop stop-color="#E1473D"/>
<stop offset="1" stop-color="#E9605A"/>
</linearGradient>
<linearGradient id="paint44_linear_253_3441" x1="58.8933" y1="-79.7638" x2="226.964" y2="93.2115" gradientUnits="userSpaceOnUse">
<stop stop-color="#FE7062"/>
<stop offset="1" stop-color="#FF928E"/>
</linearGradient>
<linearGradient id="paint45_linear_253_3441" x1="143.43" y1="-6.49134" x2="-11.9373" y2="-228.538" gradientUnits="userSpaceOnUse">
<stop stop-color="#FE7062"/>
<stop offset="1" stop-color="#FF928E"/>
</linearGradient>
<linearGradient id="paint46_linear_253_3441" x1="-73.4147" y1="-78.7867" x2="272.39" y2="199.281" gradientUnits="userSpaceOnUse">
<stop stop-color="#E1473D"/>
<stop offset="1" stop-color="#E9605A"/>
</linearGradient>
<linearGradient id="paint47_linear_253_3441" x1="221.389" y1="-31.8176" x2="246.832" y2="209.185" gradientUnits="userSpaceOnUse">
<stop stop-color="#FE7062"/>
<stop offset="1" stop-color="#FF928E"/>
</linearGradient>
<linearGradient id="paint48_linear_253_3441" x1="248.3" y1="92.6994" x2="263.39" y2="-179.143" gradientUnits="userSpaceOnUse">
<stop stop-color="#FE7062"/>
<stop offset="1" stop-color="#FF928E"/>
</linearGradient>
</defs>
</svg>
