<svg width="32" height="32" viewBox="0 0 32 32" fill="none" xmlns="http://www.w3.org/2000/svg">
<path d="M19.1416 4.5332C17.6828 4.53318 16.507 4.53316 15.5822 4.6575C14.6221 4.78658 13.8137 5.06273 13.1717 5.70478C12.6117 6.2647 12.3288 6.95278 12.1803 7.76131C12.036 8.54698 12.0084 9.50845 12.002 10.6621C11.9995 11.1039 12.3557 11.4641 12.7975 11.4665C13.2393 11.469 13.5995 11.1128 13.6019 10.671C13.6084 9.50459 13.6387 8.67784 13.754 8.05037C13.865 7.44578 14.0434 7.09583 14.303 6.83615C14.5983 6.54093 15.0127 6.34846 15.7954 6.24323C16.6011 6.1349 17.669 6.1332 19.2001 6.1332H20.2668C21.7979 6.1332 22.8657 6.1349 23.6714 6.24323C24.4541 6.34846 24.8686 6.54093 25.1638 6.83615C25.459 7.13136 25.6515 7.54584 25.7567 8.32853C25.8651 9.13424 25.8668 10.2021 25.8668 11.7332V20.2665C25.8668 21.7976 25.8651 22.8655 25.7567 23.6712C25.6515 24.4539 25.459 24.8684 25.1638 25.1636C24.8686 25.4588 24.4541 25.6513 23.6714 25.7565C22.8657 25.8648 21.7979 25.8665 20.2668 25.8665H19.2001C17.669 25.8665 16.6011 25.8648 15.7954 25.7565C15.0127 25.6513 14.5983 25.4588 14.303 25.1636C14.0434 24.9039 13.865 24.554 13.754 23.9494C13.6387 23.3219 13.6084 22.4952 13.6019 21.3288C13.5995 20.8869 13.2393 20.5308 12.7975 20.5332C12.3557 20.5357 11.9995 20.8958 12.002 21.3377C12.0084 22.4913 12.036 23.4528 12.1803 24.2384C12.3288 25.047 12.6117 25.735 13.1717 26.295C13.8137 26.937 14.6221 27.2132 15.5822 27.3422C16.507 27.4666 17.6828 27.4666 19.1416 27.4665H20.3253C21.7841 27.4666 22.9599 27.4666 23.8846 27.3422C24.8448 27.2132 25.6532 26.937 26.2952 26.295C26.9372 25.6529 27.2134 24.8445 27.3425 23.8844C27.4668 22.9596 27.4668 21.7838 27.4668 20.3251V11.6747C27.4668 10.2159 27.4668 9.0401 27.3425 8.11534C27.2134 7.15522 26.9372 6.34682 26.2952 5.70478C25.6532 5.06273 24.8448 4.78658 23.8846 4.6575C22.9599 4.53316 21.7841 4.53318 20.3253 4.5332H19.1416Z" fill="#C30000"/>
<path d="M19.1999 15.1999C19.6417 15.1999 19.9999 15.558 19.9999 15.9999C19.9999 16.4417 19.6417 16.7999 19.1999 16.7999H7.49581L9.58717 18.5925C9.92263 18.88 9.96148 19.385 9.67394 19.7205C9.3864 20.056 8.88136 20.0948 8.5459 19.8073L4.81257 16.6073C4.63525 16.4553 4.5332 16.2334 4.5332 15.9999C4.5332 15.7663 4.63525 15.5445 4.81257 15.3925L8.5459 12.1925C8.88136 11.9049 9.3864 11.9438 9.67394 12.2792C9.96148 12.6147 9.92263 13.1197 9.58717 13.4073L7.49581 15.1999H19.1999Z" fill="#C30000"/>
</svg>
