<svg width="236" height="253" viewBox="0 0 236 253" fill="none" xmlns="http://www.w3.org/2000/svg">
<g clip-path="url(#clip0_920_6892)">
<g clip-path="url(#clip1_920_6892)">
<path d="M86.8782 152.508C86.6206 152.149 86.5433 151.996 86.4145 151.868C81.9573 147.485 77.5517 143.051 73.043 138.72C70.9818 136.746 68.4827 135.183 66.6792 132.953C62.6858 127.981 57.8937 123.65 54.8278 117.909C50.0872 108.965 47.6396 99.5074 48.0519 89.384C48.1292 87.4618 48.1549 85.5396 48.1807 83.6175C48.2322 80.9264 49.9842 79.1067 52.6636 79.0042C57.0693 78.8248 57.0435 78.8505 60.1609 82.0541C61.9902 83.925 63.871 85.7447 65.726 87.59C65.9063 87.7694 65.9578 88.1025 66.2928 88C66.6792 87.8975 66.5762 87.5131 66.5762 87.2311C66.6019 86.5392 66.5762 85.8728 66.5762 85.1808C66.5762 83.4893 66.5762 83.4893 68.2251 83.4893C70.3635 83.4893 72.5277 83.4893 74.6661 83.4893C75.0268 83.4893 75.5163 83.6687 75.6966 83.233C75.9285 82.7204 75.3102 82.6436 75.0783 82.4129C72.4504 79.7218 69.7967 77.0308 67.0915 74.4423C66.6792 74.0322 66.6019 73.7247 66.6019 73.2633C66.6019 70.9055 66.6277 68.5732 66.5762 66.2154C66.5504 65.3696 66.8338 65.1133 67.684 65.1389C70.4408 65.1902 73.1718 65.1646 75.9285 65.1389C76.315 65.1389 76.856 65.3952 77.0621 64.8826C77.3455 64.2163 76.5726 64.5238 76.3665 64.2675C74.7691 62.1916 72.7338 60.5513 70.8788 58.7317C69.9513 57.809 69.1011 56.8095 68.122 55.9125C67.7871 55.6049 68.122 55.2718 68.2251 54.9898C71.6259 45.8403 77.5774 38.9973 86.8525 35.4861C100.353 30.386 112.307 33.2308 122.536 43.1749C131.295 51.6837 139.875 60.3463 148.532 68.9577C166.592 86.9236 184.627 104.915 202.687 122.881C211.164 131.313 219.64 139.694 228.117 148.126C230.384 150.381 232.625 152.713 234.944 154.943C235.717 155.686 236 156.43 236 157.506C235.975 178.394 235.975 199.281 235.975 220.143C235.975 230.318 235.949 240.467 236 250.642C236 251.795 235.691 252.051 234.583 252.051C204.929 252.026 175.249 252.026 145.594 252.051C144.718 252.051 144.074 251.795 143.456 251.18C136.087 243.799 128.693 236.418 121.299 229.062C115.27 223.065 109.19 217.093 103.161 211.096C98.3947 206.355 93.7057 201.562 88.9393 196.846C82.4726 190.414 75.98 184.032 69.5133 177.625C67.9159 176.036 66.8338 174.139 66.705 171.884C66.4989 168.168 66.4216 164.451 66.7308 160.761C67.1172 156.122 70.8788 152.688 75.5936 152.611C78.8656 152.56 82.1119 152.585 85.3839 152.585C85.7704 152.508 86.1826 152.508 86.8782 152.508Z" fill="#8DC9E5"/>
</g>
<path d="M101.06 31.5698C102.95 31.9498 104.85 32.1798 106.7 32.7298C117.7 35.9398 125.11 43.0098 128.94 53.7998C129.01 54.0298 129.05 54.2598 129.17 54.6098C128.63 54.6098 128.17 54.6898 127.7 54.6898H116.83C116.201 54.6626 115.573 54.7639 114.985 54.9875C114.396 55.2111 113.86 55.5523 113.408 55.9903C112.955 56.4284 112.597 56.954 112.355 57.535C112.113 58.1161 111.992 58.7404 112 59.3698C112.031 60.6094 112.553 61.7858 113.451 62.6408C114.349 63.4957 115.55 63.9594 116.79 63.9298C120.85 63.9298 124.91 63.9298 128.94 63.9298H130.4V73.2098H117.07C114.07 73.2098 112 75.0998 112 77.7698C112 80.4398 114.09 82.4498 117.1 82.4498H130.44V91.6498C129.98 91.6498 129.52 91.6498 129.05 91.7298H117C114 91.7298 112 93.6198 111.93 96.3298C111.86 99.0398 114.02 101.01 117.07 101.01H129C126.68 110.91 115.81 124.09 98.1797 124.13C81.0497 124.13 69.7197 111.53 67.1797 101.01H79.3197C80.2728 101.041 81.2111 100.767 81.9973 100.227C82.7836 99.6877 83.3766 98.9106 83.6897 98.0098C84.0686 97.192 84.1681 96.2722 83.973 95.3922C83.7778 94.5122 83.2988 93.7208 82.6097 93.1398C81.5967 92.3498 80.3711 91.8798 79.0897 91.7898C75.0897 91.6298 71.1597 91.7098 67.2197 91.7098H65.6797V82.4298H72.9097C75.0397 82.4298 77.1597 82.4298 79.2897 82.4298C80.515 82.4298 81.6901 81.9431 82.5565 81.0766C83.4229 80.2102 83.9097 79.0351 83.9097 77.8098C83.9097 76.5845 83.4229 75.4094 82.5565 74.543C81.6901 73.6766 80.515 73.1898 79.2897 73.1898C75.2897 73.1898 71.2897 73.1898 67.2897 73.1898H65.6797V63.9298H78.8997C81.8997 63.9298 83.8997 62.0298 83.9697 59.3698C84.0397 56.7098 81.8797 54.6898 78.8597 54.6898H66.9197C67.4597 53.2998 67.8397 52.0198 68.4197 50.8198C73.6797 39.9598 82.2297 33.6198 94.1797 31.8198C94.4593 31.7616 94.7311 31.671 94.9897 31.5498L101.06 31.5698Z" fill="#D9F1F2"/>
<path d="M93.4394 152V142.76C90.2485 142.229 87.0876 141.531 83.9694 140.67C64.3294 134.37 52.2994 121.11 47.9694 100.88C46.6494 94.7403 47.1594 88.4703 47.1594 82.2903C47.1973 81.1382 47.6739 80.0441 48.4918 79.2318C49.3097 78.4194 50.407 77.9503 51.5594 77.9203C53.1094 77.8403 54.6594 77.9203 56.3994 77.9203V79.5003C56.4794 84.9903 56.1294 90.5003 56.7494 95.9703C58.4494 111.63 66.6094 123.16 80.9094 129.69C86.6664 132.349 92.9572 133.651 99.2967 133.494C105.636 133.338 111.855 131.727 117.474 128.787C123.092 125.847 127.961 121.655 131.703 116.536C135.446 111.417 137.962 105.506 139.059 99.2603C139.759 95.3903 139.639 91.4103 139.799 87.4703C139.919 84.3403 139.799 81.2403 139.799 77.9903C141.619 77.9903 143.279 77.8803 144.939 77.9903C145.992 78.0627 146.983 78.5137 147.73 79.26C148.476 80.0063 148.927 80.9974 148.999 82.0503C149.189 91.0503 149.459 100.11 146.139 108.77C139.219 126.83 126.269 137.92 107.319 141.91C105.849 142.22 104.379 142.37 102.829 142.6V152H120.829C126.629 152 130.539 155.94 130.539 161.74C130.539 164.64 130.539 167.54 130.539 170.44C130.565 171.677 130.341 172.905 129.88 174.053C129.418 175.2 128.73 176.242 127.856 177.117C126.981 177.991 125.939 178.679 124.792 179.141C123.644 179.602 122.416 179.826 121.179 179.8C105.786 179.84 90.3961 179.84 75.0094 179.8C73.7874 179.818 72.5743 179.591 71.441 179.134C70.3076 178.677 69.2769 177.998 68.409 177.137C67.5412 176.277 66.8536 175.252 66.3866 174.123C65.9197 172.994 65.6826 171.782 65.6894 170.56C65.6894 167.47 65.6894 164.37 65.6894 161.28C65.6826 160.058 65.9197 158.847 66.3866 157.718C66.8536 156.588 67.5412 155.564 68.409 154.703C69.2769 153.843 70.3076 153.164 71.441 152.707C72.5743 152.25 73.7874 152.023 75.0094 152.04C80.6194 152.04 86.1894 152.04 91.7894 152.04C92.3372 151.979 92.8893 151.965 93.4394 152Z" fill="#074E95"/>
</g>
<defs>
<clipPath id="clip0_920_6892">
<rect width="235.61" height="252.41" fill="white"/>
</clipPath>
<clipPath id="clip1_920_6892">
<rect width="188" height="219" fill="white" transform="translate(48 33)"/>
</clipPath>
</defs>
</svg>
